<svg width="62" height="66" viewBox="0 0 62 66" fill="none" xmlns="http://www.w3.org/2000/svg">
<path fill-rule="evenodd" clip-rule="evenodd" d="M45.6522 22.826H48.9131H52.174V26.0869V29.3478H48.9131H45.6522V26.0869V22.826Z" fill="black"/>
<path fill-rule="evenodd" clip-rule="evenodd" d="M42.3914 19.5652H45.6522H48.9131V22.8261H45.6522V26.0869V29.3478L48.9131 29.3478H52.174V32.6086H48.9131V35.8695H45.6522H42.3914V32.6086H39.1305V29.3478V26.0869V22.826L42.3914 22.8261V19.5652Z" fill="#F5F5F5"/>
<rect width="3.26087" height="3.26087" transform="matrix(-1 0 0 1 13.0435 16.3043)" fill="black"/>
<rect width="3.26087" height="3.26087" transform="matrix(-1 0 0 1 58.6957 61.9565)" fill="black"/>
<path fill-rule="evenodd" clip-rule="evenodd" d="M19.5652 0H22.8261H26.0869H29.3478H32.6086H35.8695V3.26087H32.6086H29.3478H26.0869H22.8261H19.5652V0ZM9.78259 6.52173V3.26086H13.0435H16.3043L19.5652 3.26087L19.5652 6.52173H16.3043H13.0435H9.78259ZM3.26087 16.3043L3.26086 13.0435H6.52173L6.52173 9.7826H9.7826L9.78259 6.52173L6.52173 6.52173H6.52173H3.26086V9.7826L0 9.78259V13.0435V16.3043H3.26087ZM9.78259 19.5652V16.3043H6.52173L3.26087 16.3043L3.26086 19.5652H6.52173H9.78259ZM9.78259 19.5652L9.78259 22.826V26.0869V29.3478V32.6086V35.8695V39.1304H13.0435V35.8695V32.6086V29.3478V26.0869V22.826V19.5652L9.78259 19.5652ZM42.3914 0H39.1305H35.8696V3.26087H39.1305H42.3914H45.6522L45.6522 6.52173H48.9131L48.9131 9.7826H52.174L52.174 13.0435H55.4348L55.4348 16.3043V19.5652H58.6957L58.6957 22.826V26.0869V29.3478V32.6086V35.8695V39.1304H61.9565V35.8695V32.6086V29.3478V26.0869V22.826L61.9566 19.5652V16.3043H58.6957V13.0435V9.78259L55.4348 9.7826V6.52173L52.174 6.52173V3.26086H48.9131L45.6522 3.26087V0H42.3914ZM61.9565 45.6522V42.3914V39.1305H58.6957V42.3914V45.6522V48.9131V52.174V55.4348V58.6957V61.9565L55.4348 61.9565H52.174H48.9131H45.6522H42.3914H39.1305H35.8696V65.2174H39.1305H42.3914H45.6522H48.9131H52.174H55.4348H58.6957L58.6957 61.9565H61.9565V58.6957V55.4348V52.174V48.9131V45.6522ZM13.0435 42.3914V45.6522V48.9131V52.174V55.4348V58.6957V61.9565H9.78259V58.6957V55.4348V52.174V48.9131V45.6522V42.3914V39.1305H13.0435V42.3914ZM13.0435 61.9565L16.3043 61.9565H19.5652H22.826H26.0869H29.3478H32.6086H35.8695V65.2174H32.6086H29.3478H26.0869H22.826H19.5652H16.3043H13.0435L13.0435 61.9565Z" fill="black"/>
<rect width="3.26087" height="3.26087" transform="matrix(-1 0 0 1 29.3478 19.5652)" fill="#F5F5F5"/>
<rect width="3.26087" height="3.26087" transform="matrix(-1 0 0 1 32.6086 22.826)" fill="black"/>
<rect width="3.26087" height="3.26087" transform="matrix(-1 0 0 1 29.3478 22.826)" fill="black"/>
<rect width="3.26087" height="3.26087" transform="matrix(-1 0 0 1 32.6086 26.0869)" fill="black"/>
<rect width="3.26087" height="3.26087" transform="matrix(-1 0 0 1 29.3478 26.0869)" fill="black"/>
<rect width="3.26087" height="3.26087" transform="matrix(-1 0 0 1 32.6086 29.3478)" fill="#F5F5F5"/>
<rect width="3.26087" height="3.26087" transform="matrix(-1 0 0 1 29.3478 29.3478)" fill="#F5F5F5"/>
<rect width="3.26087" height="3.26087" transform="matrix(-1 0 0 1 29.3478 32.6086)" fill="#F5F5F5"/>
<rect width="3.26087" height="3.26087" transform="matrix(-1 0 0 1 26.0869 19.5652)" fill="#F5F5F5"/>
<rect width="3.26087" height="3.26087" transform="matrix(-1 0 0 1 26.0869 22.826)" fill="#F5F5F5"/>
<rect width="3.26087" height="3.26087" transform="matrix(-1 0 0 1 22.826 22.826)" fill="#F5F5F5"/>
<rect width="3.26087" height="3.26087" transform="matrix(-1 0 0 1 26.0869 26.0869)" fill="#F5F5F5"/>
<rect width="3.26087" height="3.26087" transform="matrix(-1 0 0 1 22.826 26.0869)" fill="#F5F5F5"/>
<rect width="3.26087" height="3.26087" transform="matrix(-1 0 0 1 26.0869 29.3478)" fill="#F5F5F5"/>
<rect width="3.26087" height="3.26087" transform="matrix(-1 0 0 1 22.826 29.3478)" fill="#F5F5F5"/>
<rect width="3.26087" height="3.26087" transform="matrix(-1 0 0 1 26.0869 32.6086)" fill="#F5F5F5"/>
<path fill-rule="evenodd" clip-rule="evenodd" d="M45.6522 3.26086H42.3914H39.1305H35.8696V6.52173V9.7826V13.0435V16.3043V19.5652V22.8261V26.0869V29.3478V32.6086V35.8695V39.1304H39.1305H42.3914H45.6522H48.9131H52.174H55.4348H58.6957V35.8695V32.6086V29.3478V26.0869L58.6957 22.8261V19.5652L55.4348 19.5652V16.3043V13.0435L52.174 13.0435V9.78259L48.9131 9.7826V6.52173L45.6522 6.52173V3.26086ZM52.174 22.8261H48.9131L48.9131 19.5652H45.6522H42.3914L42.3914 22.8261H39.1305L39.1305 26.0869V29.3478L39.1305 32.6086H42.3914V35.8695L45.6522 35.8695H48.9131L48.9131 32.6086L52.174 32.6086V29.3478V26.0869L52.174 22.8261ZM22.826 19.5652H26.0869H29.3478V22.8261H32.6086V26.0869V29.3478V32.6086L29.3478 32.6086V35.8695L26.0869 35.8695H22.8261V32.6086H19.5652V29.3478V26.0869V22.8261H22.8261L22.826 19.5652ZM13.0435 22.8261V19.5652L9.78259 19.5652V16.3043L6.52173 16.3043H3.26086V13.0435L6.52173 13.0435V9.78259L9.78259 9.7826V6.52173H13.0435H16.3043H19.5652L19.5652 3.26086H22.826H26.0869H29.3478H32.6086H35.8695V6.52173V9.7826V13.0435V16.3043V19.5652V22.8261L35.8695 26.0869V29.3478V32.6086V35.8695V39.1304H32.6086H29.3478H26.0869H22.8261H19.5652H16.3043H13.0435V35.8695V32.6086V29.3478V26.0869V22.8261ZM45.6522 39.1305H42.3914H39.1305H35.8696V42.3914V45.6522V48.9131V52.174V55.4348V58.6957V61.9565H39.1305H42.3914H45.6522H48.9131H52.174H55.4348H58.6957V58.6957V55.4348V52.174V48.9131V45.6522V42.3914V39.1305H55.4348H52.174H48.9131H45.6522ZM13.0435 42.3914V39.1305H16.3043H19.5652H22.8261H26.0869H29.3478H32.6086H35.8695V42.3914V45.6522V48.9131V52.174V55.4348V58.6957V61.9565H32.6086H29.3478H26.0869H22.8261H19.5652H16.3043H13.0435V58.6957V55.4348V52.174V48.9131V45.6522V42.3914Z" fill="#79EAEE"/>
</svg>
