<svg width="416" height="312" viewBox="0 0 416 312" fill="none" xmlns="http://www.w3.org/2000/svg">
<mask id="mask0_575_1281" style="mask-type:alpha" maskUnits="userSpaceOnUse" x="0" y="0" width="416" height="312">
<rect width="416" height="312" fill="#D9D9D9"/>
</mask>
<g mask="url(#mask0_575_1281)">
<rect x="172" y="247" width="10" height="10" fill="black"/>
<rect x="172" y="237" width="10" height="10" fill="white"/>
<rect x="172" y="227" width="10" height="10" fill="white"/>
<rect x="172" y="217" width="10" height="10" fill="white"/>
<rect x="172" y="207" width="10" height="10" fill="white"/>
<rect x="172" y="197" width="10" height="10" fill="white"/>
<rect x="172" y="187" width="10" height="10" fill="black"/>
<rect x="182" y="257" width="10" height="10" fill="black"/>
<rect x="182" y="247" width="10" height="10" fill="white"/>
<rect x="182" y="237" width="10" height="10" fill="white"/>
<rect x="182" y="227" width="10" height="10" fill="white"/>
<rect x="182" y="217" width="10" height="10" fill="white"/>
<rect x="182" y="207" width="10" height="10" fill="white"/>
<rect x="182" y="197" width="10" height="10" fill="black"/>
<rect x="192" y="277" width="10" height="10" fill="black"/>
<rect x="192" y="267" width="10" height="10" fill="black"/>
<rect x="192" y="257" width="10" height="10" fill="white"/>
<rect x="192" y="247" width="10" height="10" fill="white"/>
<rect x="192" y="237" width="10" height="10" fill="white"/>
<rect x="192" y="227" width="10" height="10" fill="white"/>
<rect x="192" y="217" width="10" height="10" fill="white"/>
<rect x="192" y="207" width="10" height="10" fill="black"/>
<rect x="192" y="197" width="10" height="10" fill="black"/>
<rect x="192" y="187" width="10" height="10" fill="black"/>
<rect x="192" y="177" width="10" height="10" fill="black"/>
<rect x="192" y="167" width="10" height="10" fill="black"/>
<rect x="192" y="157" width="10" height="10" fill="black"/>
<rect x="192" y="147" width="10" height="10" fill="black"/>
<rect x="192" y="137" width="10" height="10" fill="black"/>
<rect x="192" y="127" width="10" height="10" fill="black"/>
<rect x="192" y="117" width="10" height="10" fill="black"/>
<rect x="192" y="107" width="10" height="10" fill="black"/>
<rect x="192" y="97" width="10" height="10" fill="black"/>
<rect x="202" y="277" width="10" height="10" fill="black"/>
<rect x="202" y="267" width="10" height="10" fill="white"/>
<rect x="202" y="257" width="10" height="10" fill="white"/>
<rect x="202" y="247" width="10" height="10" fill="white"/>
<rect x="202" y="237" width="10" height="10" fill="white"/>
<rect x="202" y="227" width="10" height="10" fill="white"/>
<rect x="202" y="217" width="10" height="10" fill="white"/>
<rect x="202" y="207" width="10" height="10" fill="white"/>
<rect x="202" y="197" width="10" height="10" fill="white"/>
<rect x="202" y="187" width="10" height="10" fill="white"/>
<rect x="202" y="177" width="10" height="10" fill="white"/>
<rect x="202" y="167" width="10" height="10" fill="white"/>
<rect x="202" y="157" width="10" height="10" fill="white"/>
<rect x="202" y="147" width="10" height="10" fill="white"/>
<rect x="202" y="137" width="10" height="10" fill="white"/>
<rect x="202" y="127" width="10" height="10" fill="white"/>
<rect x="202" y="117" width="10" height="10" fill="white"/>
<rect x="202" y="107" width="10" height="10" fill="white"/>
<rect x="202" y="97" width="10" height="10" fill="white"/>
<rect x="202" y="87" width="10" height="10" fill="black"/>
<rect x="212" y="277" width="10" height="10" fill="black"/>
<rect x="212" y="267" width="10" height="10" fill="white"/>
<rect x="212" y="257" width="10" height="10" fill="white"/>
<rect x="212" y="247" width="10" height="10" fill="white"/>
<rect x="212" y="237" width="10" height="10" fill="white"/>
<rect x="212" y="227" width="10" height="10" fill="white"/>
<rect x="212" y="217" width="10" height="10" fill="white"/>
<rect x="212" y="207" width="10" height="10" fill="white"/>
<rect x="212" y="197" width="10" height="10" fill="white"/>
<rect x="212" y="187" width="10" height="10" fill="white"/>
<rect x="212" y="177" width="10" height="10" fill="white"/>
<rect x="212" y="167" width="10" height="10" fill="white"/>
<rect x="212" y="157" width="10" height="10" fill="white"/>
<rect x="212" y="147" width="10" height="10" fill="white"/>
<rect x="212" y="137" width="10" height="10" fill="white"/>
<rect x="212" y="127" width="10" height="10" fill="white"/>
<rect x="212" y="117" width="10" height="10" fill="white"/>
<rect x="212" y="107" width="10" height="10" fill="white"/>
<rect x="212" y="97" width="10" height="10" fill="white"/>
<rect x="212" y="87" width="10" height="10" fill="black"/>
<rect x="222" y="277" width="10" height="10" fill="black"/>
<rect x="222" y="267" width="10" height="10" fill="white"/>
<rect x="222" y="257" width="10" height="10" fill="white"/>
<rect x="222" y="247" width="10" height="10" fill="white"/>
<rect x="222" y="237" width="10" height="10" fill="white"/>
<rect x="222" y="227" width="10" height="10" fill="white"/>
<rect x="222" y="217" width="10" height="10" fill="white"/>
<rect x="222" y="207" width="10" height="10" fill="white"/>
<rect x="222" y="197" width="10" height="10" fill="white"/>
<rect x="222" y="187" width="10" height="10" fill="white"/>
<rect x="222" y="177" width="10" height="10" fill="black"/>
<rect x="222" y="167" width="10" height="10" fill="black"/>
<rect x="222" y="157" width="10" height="10" fill="black"/>
<rect x="222" y="147" width="10" height="10" fill="black"/>
<rect x="222" y="137" width="10" height="10" fill="black"/>
<rect x="222" y="127" width="10" height="10" fill="black"/>
<rect x="222" y="117" width="10" height="10" fill="black"/>
<rect x="222" y="107" width="10" height="10" fill="black"/>
<rect x="222" y="97" width="10" height="10" fill="black"/>
<rect x="232" y="277" width="10" height="10" fill="black"/>
<rect x="232" y="267" width="10" height="10" fill="white"/>
<rect x="232" y="257" width="10" height="10" fill="white"/>
<rect x="232" y="247" width="10" height="10" fill="white"/>
<rect x="232" y="237" width="10" height="10" fill="white"/>
<rect x="232" y="227" width="10" height="10" fill="white"/>
<rect x="232" y="217" width="10" height="10" fill="white"/>
<rect x="232" y="207" width="10" height="10" fill="white"/>
<rect x="232" y="197" width="10" height="10" fill="white"/>
<rect x="232" y="187" width="10" height="10" fill="white"/>
<rect x="232" y="177" width="10" height="10" fill="white"/>
<rect x="232" y="167" width="10" height="10" fill="white"/>
<rect x="232" y="157" width="10" height="10" fill="white"/>
<rect x="232" y="147" width="10" height="10" fill="black"/>
<rect x="242" y="277" width="10" height="10" fill="black"/>
<rect x="242" y="267" width="10" height="10" fill="white"/>
<rect x="242" y="257" width="10" height="10" fill="white"/>
<rect x="242" y="247" width="10" height="10" fill="white"/>
<rect x="242" y="237" width="10" height="10" fill="white"/>
<rect x="242" y="227" width="10" height="10" fill="white"/>
<rect x="242" y="217" width="10" height="10" fill="white"/>
<rect x="242" y="207" width="10" height="10" fill="white"/>
<rect x="242" y="197" width="10" height="10" fill="white"/>
<rect x="242" y="187" width="10" height="10" fill="white"/>
<rect x="242" y="177" width="10" height="10" fill="white"/>
<rect x="242" y="167" width="10" height="10" fill="white"/>
<rect x="242" y="157" width="10" height="10" fill="white"/>
<rect x="242" y="147" width="10" height="10" fill="black"/>
<rect x="252" y="277" width="10" height="10" fill="black"/>
<rect x="252" y="267" width="10" height="10" fill="white"/>
<rect x="252" y="257" width="10" height="10" fill="white"/>
<rect x="252" y="247" width="10" height="10" fill="white"/>
<rect x="252" y="237" width="10" height="10" fill="white"/>
<rect x="252" y="227" width="10" height="10" fill="white"/>
<rect x="252" y="217" width="10" height="10" fill="white"/>
<rect x="252" y="207" width="10" height="10" fill="white"/>
<rect x="252" y="197" width="10" height="10" fill="white"/>
<rect x="252" y="187" width="10" height="10" fill="white"/>
<rect x="252" y="177" width="10" height="10" fill="black"/>
<rect x="252" y="167" width="10" height="10" fill="black"/>
<rect x="252" y="157" width="10" height="10" fill="black"/>
<rect x="262" y="277" width="10" height="10" fill="black"/>
<rect x="262" y="267" width="10" height="10" fill="white"/>
<rect x="262" y="257" width="10" height="10" fill="white"/>
<rect x="262" y="247" width="10" height="10" fill="white"/>
<rect x="262" y="237" width="10" height="10" fill="white"/>
<rect x="262" y="227" width="10" height="10" fill="white"/>
<rect x="262" y="217" width="10" height="10" fill="white"/>
<rect x="262" y="207" width="10" height="10" fill="white"/>
<rect x="262" y="197" width="10" height="10" fill="white"/>
<rect x="262" y="187" width="10" height="10" fill="white"/>
<rect x="262" y="177" width="10" height="10" fill="white"/>
<rect x="262" y="167" width="10" height="10" fill="white"/>
<rect x="262" y="157" width="10" height="10" fill="black"/>
<rect x="272" y="277" width="10" height="10" fill="black"/>
<rect x="272" y="267" width="10" height="10" fill="white"/>
<rect x="272" y="257" width="10" height="10" fill="white"/>
<rect x="272" y="247" width="10" height="10" fill="white"/>
<rect x="272" y="237" width="10" height="10" fill="white"/>
<rect x="272" y="227" width="10" height="10" fill="white"/>
<rect x="272" y="217" width="10" height="10" fill="white"/>
<rect x="272" y="207" width="10" height="10" fill="white"/>
<rect x="272" y="197" width="10" height="10" fill="white"/>
<rect x="272" y="187" width="10" height="10" fill="white"/>
<rect x="272" y="177" width="10" height="10" fill="white"/>
<rect x="272" y="167" width="10" height="10" fill="white"/>
<rect x="272" y="157" width="10" height="10" fill="black"/>
<rect x="142" y="197" width="10" height="10" fill="black"/>
<rect x="142" y="187" width="10" height="10" fill="black"/>
<rect x="282" y="277" width="10" height="10" fill="black"/>
<rect x="282" y="267" width="10" height="10" fill="black"/>
<rect x="282" y="257" width="10" height="10" fill="white"/>
<rect x="282" y="247" width="10" height="10" fill="white"/>
<rect x="282" y="237" width="10" height="10" fill="white"/>
<rect x="282" y="227" width="10" height="10" fill="white"/>
<rect x="282" y="217" width="10" height="10" fill="white"/>
<rect x="282" y="207" width="10" height="10" fill="white"/>
<rect x="282" y="197" width="10" height="10" fill="white"/>
<rect x="282" y="187" width="10" height="10" fill="black"/>
<rect x="282" y="177" width="10" height="10" fill="black"/>
<rect x="282" y="167" width="10" height="10" fill="black"/>
<rect x="152" y="217" width="10" height="10" fill="black"/>
<rect x="142" y="77" width="10" height="10" fill="#F8CC46"/>
<rect x="262" y="77" width="10" height="10" fill="#F8CC46"/>
<rect x="262" y="117" width="10" height="10" fill="#F8CC46"/>
<rect x="262" y="137" width="10" height="10" fill="#F8CC46"/>
<rect x="262" y="147" width="10" height="10" fill="#F8CC46"/>
<rect x="312" y="77" width="10" height="10" fill="#F8CC46"/>
<rect x="312" y="117" width="10" height="10" fill="#F8CC46"/>
<rect x="312" y="137" width="10" height="10" fill="#F8CC46"/>
<rect x="312" y="147" width="10" height="10" fill="#F8CC46"/>
<rect x="312" y="167" width="10" height="10" fill="#F8CC46"/>
<rect x="312" y="157" width="10" height="10" fill="#F8CC46"/>
<rect x="312" y="177" width="10" height="10" fill="#F8CC46"/>
<rect x="182" y="77" width="10" height="10" fill="#F8CC46"/>
<rect x="302" y="77" width="10" height="10" fill="#F8CC46"/>
<rect x="302" y="117" width="10" height="10" fill="#F8CC46"/>
<rect x="302" y="137" width="10" height="10" fill="#F8CC46"/>
<rect x="302" y="147" width="10" height="10" fill="#F8CC46"/>
<rect x="302" y="157" width="10" height="10" fill="#F8CC46"/>
<rect x="352" y="77" width="10" height="10" fill="#F8CC46"/>
<rect x="352" y="117" width="10" height="10" fill="#F8CC46"/>
<rect x="352" y="137" width="10" height="10" fill="#F8CC46"/>
<rect x="352" y="147" width="10" height="10" fill="#F8CC46"/>
<rect x="352" y="167" width="10" height="10" fill="#F8CC46"/>
<rect x="352" y="157" width="10" height="10" fill="#F8CC46"/>
<rect x="352" y="177" width="10" height="10" fill="#F8CC46"/>
<rect x="142" y="117" width="10" height="10" fill="#F8CC46"/>
<rect x="182" y="117" width="10" height="10" fill="#F8CC46"/>
<rect x="142" y="157" width="10" height="10" fill="#F8CC46"/>
<rect x="182" y="157" width="10" height="10" fill="#F8CC46"/>
<rect x="142" y="177" width="10" height="10" fill="#F8CC46"/>
<rect x="142" y="57" width="10" height="10" fill="#F8CC46"/>
<rect x="262" y="57" width="10" height="10" fill="black"/>
<rect x="262" y="97" width="10" height="10" fill="#F8CC46"/>
<rect x="312" y="57" width="10" height="10" fill="#F8CC46"/>
<rect x="312" y="97" width="10" height="10" fill="#F8CC46"/>
<rect x="182" y="57" width="10" height="10" fill="black"/>
<rect x="302" y="57" width="10" height="10" fill="#F8CC46"/>
<rect x="302" y="97" width="10" height="10" fill="#F8CC46"/>
<rect x="352" y="57" width="10" height="10" fill="#F8CC46"/>
<rect x="352" y="97" width="10" height="10" fill="#F8CC46"/>
<rect x="142" y="97" width="10" height="10" fill="#F8CC46"/>
<rect x="182" y="97" width="10" height="10" fill="#F8CC46"/>
<rect x="142" y="137" width="10" height="10" fill="#F8CC46"/>
<rect x="182" y="137" width="10" height="10" fill="#F8CC46"/>
<rect x="142" y="37" width="10" height="10" fill="#F8CC46"/>
<rect x="292" y="37" width="10" height="10" fill="#F8CC46"/>
<rect x="142" y="67" width="10" height="10" fill="#F8CC46"/>
<rect x="262" y="67" width="10" height="10" fill="#F8CC46"/>
<rect x="262" y="107" width="10" height="10" fill="#F8CC46"/>
<rect x="262" y="127" width="10" height="10" fill="#F8CC46"/>
<rect x="312" y="67" width="10" height="10" fill="#F8CC46"/>
<rect x="312" y="107" width="10" height="10" fill="#F8CC46"/>
<rect x="312" y="127" width="10" height="10" fill="#F8CC46"/>
<rect x="182" y="67" width="10" height="10" fill="#F8CC46"/>
<rect x="302" y="67" width="10" height="10" fill="#F8CC46"/>
<rect x="302" y="107" width="10" height="10" fill="#F8CC46"/>
<rect x="302" y="127" width="10" height="10" fill="#F8CC46"/>
<rect x="352" y="67" width="10" height="10" fill="#F8CC46"/>
<rect x="352" y="107" width="10" height="10" fill="black"/>
<rect x="352" y="127" width="10" height="10" fill="#F8CC46"/>
<rect x="142" y="107" width="10" height="10" fill="#F8CC46"/>
<rect x="182" y="107" width="10" height="10" fill="#F8CC46"/>
<rect x="142" y="147" width="10" height="10" fill="black"/>
<rect x="182" y="147" width="10" height="10" fill="black"/>
<rect x="142" y="167" width="10" height="10" fill="#F8CC46"/>
<rect x="182" y="167" width="10" height="10" fill="#F8CC46"/>
<rect x="182" y="177" width="10" height="10" fill="#F8CC46"/>
<rect x="182" y="187" width="10" height="10" fill="#DFB83F"/>
<rect x="142" y="47" width="10" height="10" fill="#F8CC46"/>
<rect x="262" y="47" width="10" height="10" fill="#F8CC46"/>
<rect x="262" y="87" width="10" height="10" fill="#F8CC46"/>
<rect x="312" y="47" width="10" height="10" fill="#F8CC46"/>
<rect x="312" y="87" width="10" height="10" fill="#F8CC46"/>
<rect x="182" y="47" width="10" height="10" fill="#F8CC46"/>
<rect x="302" y="47" width="10" height="10" fill="#F8CC46"/>
<rect x="302" y="87" width="10" height="10" fill="#F8CC46"/>
<rect x="352" y="47" width="10" height="10" fill="#F8CC46"/>
<rect x="352" y="87" width="10" height="10" fill="black"/>
<rect x="142" y="87" width="10" height="10" fill="#F8CC46"/>
<rect x="182" y="87" width="10" height="10" fill="#F8CC46"/>
<rect x="142" y="127" width="10" height="10" fill="#F8CC46"/>
<rect x="182" y="127" width="10" height="10" fill="#F8CC46"/>
<rect x="142" y="27" width="10" height="10" fill="#F8CC46"/>
<rect x="292" y="27" width="10" height="10" fill="#F8CC46"/>
<rect x="132" y="197" width="10" height="10" fill="#DFB83F"/>
<rect x="132" y="77" width="10" height="10" fill="#F8CC46"/>
<rect x="252" y="77" width="10" height="10" fill="black"/>
<rect x="252" y="117" width="10" height="10" fill="black"/>
<rect x="252" y="137" width="10" height="10" fill="black"/>
<rect x="252" y="147" width="10" height="10" fill="black"/>
<rect x="172" y="77" width="10" height="10" fill="#F8CC46"/>
<rect x="292" y="77" width="10" height="10" fill="#F8CC46"/>
<rect x="292" y="117" width="10" height="10" fill="#F8CC46"/>
<rect x="292" y="137" width="10" height="10" fill="#F8CC46"/>
<rect x="292" y="147" width="10" height="10" fill="black"/>
<rect x="292" y="157" width="10" height="10" fill="#F8CC46"/>
<rect x="342" y="77" width="10" height="10" fill="#F8CC46"/>
<rect x="342" y="117" width="10" height="10" fill="#F8CC46"/>
<rect x="342" y="137" width="10" height="10" fill="#F8CC46"/>
<rect x="342" y="147" width="10" height="10" fill="#F8CC46"/>
<rect x="342" y="167" width="10" height="10" fill="#F8CC46"/>
<rect x="342" y="157" width="10" height="10" fill="#F8CC46"/>
<rect x="342" y="177" width="10" height="10" fill="#F8CC46"/>
<rect x="132" y="117" width="10" height="10" fill="#F8CC46"/>
<rect x="172" y="117" width="10" height="10" fill="#F8CC46"/>
<rect x="132" y="157" width="10" height="10" fill="#F8CC46"/>
<rect x="172" y="157" width="10" height="10" fill="#F8CC46"/>
<rect x="132" y="177" width="10" height="10" fill="#F8CC46"/>
<rect x="132" y="57" width="10" height="10" fill="#F8CC46"/>
<rect x="252" y="57" width="10" height="10" fill="black"/>
<rect x="252" y="97" width="10" height="10" fill="black"/>
<rect x="172" y="57" width="10" height="10" fill="#F8CC46"/>
<rect x="292" y="57" width="10" height="10" fill="black"/>
<rect x="292" y="97" width="10" height="10" fill="#F8CC46"/>
<rect x="342" y="57" width="10" height="10" fill="#F8CC46"/>
<rect x="342" y="97" width="10" height="10" fill="black"/>
<rect x="132" y="97" width="10" height="10" fill="#F8CC46"/>
<rect x="172" y="97" width="10" height="10" fill="#F8CC46"/>
<rect x="132" y="137" width="10" height="10" fill="#F8CC46"/>
<rect x="172" y="137" width="10" height="10" fill="#F8CC46"/>
<rect x="132" y="37" width="10" height="10" fill="#F8CC46"/>
<rect x="282" y="37" width="10" height="10" fill="#F8CC46"/>
<rect x="132" y="187" width="10" height="10" fill="#DFB83F"/>
<rect x="132" y="67" width="10" height="10" fill="#F8CC46"/>
<rect x="252" y="67" width="10" height="10" fill="black"/>
<rect x="252" y="107" width="10" height="10" fill="black"/>
<rect x="252" y="127" width="10" height="10" fill="black"/>
<rect x="172" y="67" width="10" height="10" fill="#F8CC46"/>
<rect x="292" y="67" width="10" height="10" fill="#F8CC46"/>
<rect x="292" y="107" width="10" height="10" fill="#F8CC46"/>
<rect x="292" y="127" width="10" height="10" fill="#F8CC46"/>
<rect x="342" y="67" width="10" height="10" fill="#F8CC46"/>
<rect x="342" y="107" width="10" height="10" fill="#F8CC46"/>
<rect x="342" y="127" width="10" height="10" fill="#F8CC46"/>
<rect x="132" y="107" width="10" height="10" fill="#F8CC46"/>
<rect x="172" y="107" width="10" height="10" fill="#F8CC46"/>
<rect x="132" y="147" width="10" height="10" fill="black"/>
<rect x="172" y="147" width="10" height="10" fill="#F8CC46"/>
<rect x="132" y="167" width="10" height="10" fill="#F8CC46"/>
<rect x="172" y="167" width="10" height="10" fill="#F8CC46"/>
<rect x="172" y="177" width="10" height="10" fill="#F8CC46"/>
<rect x="132" y="47" width="10" height="10" fill="#F8CC46"/>
<rect x="252" y="47" width="10" height="10" fill="#F8CC46"/>
<rect x="252" y="87" width="10" height="10" fill="black"/>
<rect x="172" y="47" width="10" height="10" fill="#F8CC46"/>
<rect x="292" y="47" width="10" height="10" fill="#F8CC46"/>
<rect x="292" y="87" width="10" height="10" fill="#F8CC46"/>
<rect x="342" y="47" width="10" height="10" fill="#F8CC46"/>
<rect x="342" y="87" width="10" height="10" fill="#F8CC46"/>
<rect x="132" y="87" width="10" height="10" fill="#F8CC46"/>
<rect x="172" y="87" width="10" height="10" fill="#F8CC46"/>
<rect x="132" y="127" width="10" height="10" fill="#F8CC46"/>
<rect x="172" y="127" width="10" height="10" fill="#F8CC46"/>
<rect x="132" y="27" width="10" height="10" fill="#F8CC46"/>
<rect x="282" y="27" width="10" height="10" fill="#F8CC46"/>
<rect x="122" y="197" width="10" height="10" fill="#DFB83F"/>
<rect x="122" y="77" width="10" height="10" fill="#F8CC46"/>
<rect x="242" y="77" width="10" height="10" fill="#F8CC46"/>
<rect x="242" y="117" width="10" height="10" fill="#F8CC46"/>
<rect x="242" y="137" width="10" height="10" fill="#F8CC46"/>
<rect x="162" y="77" width="10" height="10" fill="#F8CC46"/>
<rect x="282" y="77" width="10" height="10" fill="#F8CC46"/>
<rect x="282" y="117" width="10" height="10" fill="#F8CC46"/>
<rect x="282" y="137" width="10" height="10" fill="#F8CC46"/>
<rect x="282" y="147" width="10" height="10" fill="black"/>
<rect x="282" y="157" width="10" height="10" fill="#F8CC46"/>
<rect x="332" y="77" width="10" height="10" fill="#F8CC46"/>
<rect x="332" y="117" width="10" height="10" fill="#F8CC46"/>
<rect x="332" y="137" width="10" height="10" fill="#F8CC46"/>
<rect x="332" y="147" width="10" height="10" fill="#F8CC46"/>
<rect x="332" y="167" width="10" height="10" fill="#F8CC46"/>
<rect x="332" y="157" width="10" height="10" fill="#F8CC46"/>
<rect x="332" y="177" width="10" height="10" fill="#F8CC46"/>
<rect x="122" y="117" width="10" height="10" fill="#F8CC46"/>
<rect x="162" y="117" width="10" height="10" fill="#F8CC46"/>
<rect x="122" y="157" width="10" height="10" fill="#F8CC46"/>
<rect x="162" y="157" width="10" height="10" fill="#F8CC46"/>
<rect x="122" y="177" width="10" height="10" fill="#F8CC46"/>
<rect x="122" y="57" width="10" height="10" fill="#F8CC46"/>
<rect x="242" y="57" width="10" height="10" fill="#F8CC46"/>
<rect x="242" y="97" width="10" height="10" fill="#F8CC46"/>
<rect x="162" y="57" width="10" height="10" fill="#F8CC46"/>
<rect x="282" y="57" width="10" height="10" fill="black"/>
<rect x="282" y="97" width="10" height="10" fill="#F8CC46"/>
<rect x="332" y="57" width="10" height="10" fill="#F8CC46"/>
<rect x="332" y="97" width="10" height="10" fill="black"/>
<rect x="122" y="97" width="10" height="10" fill="#F8CC46"/>
<rect x="162" y="97" width="10" height="10" fill="#F8CC46"/>
<rect x="122" y="137" width="10" height="10" fill="#F8CC46"/>
<rect x="162" y="137" width="10" height="10" fill="#F8CC46"/>
<rect x="122" y="37" width="10" height="10" fill="#F8CC46"/>
<rect x="272" y="37" width="10" height="10" fill="#F8CC46"/>
<rect x="122" y="187" width="10" height="10" fill="#DFB83F"/>
<rect x="122" y="67" width="10" height="10" fill="#F8CC46"/>
<rect x="242" y="67" width="10" height="10" fill="#F8CC46"/>
<rect x="242" y="107" width="10" height="10" fill="#F8CC46"/>
<rect x="242" y="127" width="10" height="10" fill="#F8CC46"/>
<rect x="162" y="67" width="10" height="10" fill="#F8CC46"/>
<rect x="282" y="67" width="10" height="10" fill="#F8CC46"/>
<rect x="282" y="107" width="10" height="10" fill="#F8CC46"/>
<rect x="282" y="127" width="10" height="10" fill="#F8CC46"/>
<rect x="332" y="67" width="10" height="10" fill="#F8CC46"/>
<rect x="332" y="107" width="10" height="10" fill="#F8CC46"/>
<rect x="332" y="127" width="10" height="10" fill="#F8CC46"/>
<rect x="122" y="107" width="10" height="10" fill="#F8CC46"/>
<rect x="162" y="107" width="10" height="10" fill="#F8CC46"/>
<rect x="122" y="147" width="10" height="10" fill="black"/>
<rect x="162" y="147" width="10" height="10" fill="#F8CC46"/>
<rect x="122" y="167" width="10" height="10" fill="#F8CC46"/>
<rect x="162" y="167" width="10" height="10" fill="#F8CC46"/>
<rect x="122" y="47" width="10" height="10" fill="#F8CC46"/>
<rect x="242" y="47" width="10" height="10" fill="#F8CC46"/>
<rect x="242" y="87" width="10" height="10" fill="#F8CC46"/>
<rect x="162" y="47" width="10" height="10" fill="#F8CC46"/>
<rect x="282" y="47" width="10" height="10" fill="#F8CC46"/>
<rect x="282" y="87" width="10" height="10" fill="#F8CC46"/>
<rect x="332" y="47" width="10" height="10" fill="#F8CC46"/>
<rect x="332" y="87" width="10" height="10" fill="#F8CC46"/>
<rect x="122" y="87" width="10" height="10" fill="#F8CC46"/>
<rect x="162" y="87" width="10" height="10" fill="#F8CC46"/>
<rect x="122" y="127" width="10" height="10" fill="#F8CC46"/>
<rect x="162" y="127" width="10" height="10" fill="#F8CC46"/>
<rect x="122" y="27" width="10" height="10" fill="#F8CC46"/>
<rect x="272" y="27" width="10" height="10" fill="#F8CC46"/>
<rect x="112" y="197" width="10" height="10" fill="#DFB83F"/>
<rect x="112" y="77" width="10" height="10" fill="black"/>
<rect x="232" y="77" width="10" height="10" fill="#F8CC46"/>
<rect x="232" y="117" width="10" height="10" fill="#F8CC46"/>
<rect x="232" y="137" width="10" height="10" fill="#F8CC46"/>
<rect x="152" y="77" width="10" height="10" fill="#F8CC46"/>
<rect x="272" y="77" width="10" height="10" fill="#F8CC46"/>
<rect x="272" y="117" width="10" height="10" fill="#F8CC46"/>
<rect x="272" y="137" width="10" height="10" fill="#F8CC46"/>
<rect x="272" y="147" width="10" height="10" fill="black"/>
<rect x="322" y="77" width="10" height="10" fill="black"/>
<rect x="322" y="117" width="10" height="10" fill="black"/>
<rect x="322" y="137" width="10" height="10" fill="black"/>
<rect x="322" y="147" width="10" height="10" fill="black"/>
<rect x="322" y="167" width="10" height="10" fill="#F8CC46"/>
<rect x="322" y="157" width="10" height="10" fill="#F8CC46"/>
<rect x="322" y="177" width="10" height="10" fill="#F8CC46"/>
<rect x="112" y="117" width="10" height="10" fill="black"/>
<rect x="152" y="117" width="10" height="10" fill="#F8CC46"/>
<rect x="112" y="157" width="10" height="10" fill="#F8CC46"/>
<rect x="152" y="157" width="10" height="10" fill="#F8CC46"/>
<rect x="112" y="177" width="10" height="10" fill="#F8CC46"/>
<rect x="112" y="57" width="10" height="10" fill="black"/>
<rect x="232" y="57" width="10" height="10" fill="#F8CC46"/>
<rect x="232" y="97" width="10" height="10" fill="#F8CC46"/>
<rect x="152" y="57" width="10" height="10" fill="#F8CC46"/>
<rect x="272" y="57" width="10" height="10" fill="black"/>
<rect x="272" y="97" width="10" height="10" fill="#F8CC46"/>
<rect x="322" y="57" width="10" height="10" fill="black"/>
<rect x="322" y="97" width="10" height="10" fill="black"/>
<rect x="112" y="97" width="10" height="10" fill="black"/>
<rect x="152" y="97" width="10" height="10" fill="#F8CC46"/>
<rect x="112" y="137" width="10" height="10" fill="black"/>
<rect x="152" y="137" width="10" height="10" fill="#F8CC46"/>
<rect x="112" y="37" width="10" height="10" fill="#F8CC46"/>
<rect x="262" y="37" width="10" height="10" fill="#F8CC46"/>
<rect x="112" y="187" width="10" height="10" fill="#DFB83F"/>
<rect x="112" y="67" width="10" height="10" fill="black"/>
<rect x="232" y="67" width="10" height="10" fill="#F8CC46"/>
<rect x="232" y="107" width="10" height="10" fill="#F8CC46"/>
<rect x="232" y="127" width="10" height="10" fill="#F8CC46"/>
<rect x="152" y="67" width="10" height="10" fill="#F8CC46"/>
<rect x="272" y="67" width="10" height="10" fill="#F8CC46"/>
<rect x="272" y="107" width="10" height="10" fill="#F8CC46"/>
<rect x="272" y="127" width="10" height="10" fill="#F8CC46"/>
<rect x="322" y="67" width="10" height="10" fill="black"/>
<rect x="322" y="107" width="10" height="10" fill="black"/>
<rect x="322" y="127" width="10" height="10" fill="black"/>
<rect x="112" y="107" width="10" height="10" fill="black"/>
<rect x="152" y="107" width="10" height="10" fill="#F8CC46"/>
<rect x="112" y="147" width="10" height="10" fill="black"/>
<rect x="152" y="147" width="10" height="10" fill="black"/>
<rect x="112" y="167" width="10" height="10" fill="#F8CC46"/>
<rect x="152" y="167" width="10" height="10" fill="#F8CC46"/>
<rect x="112" y="47" width="10" height="10" fill="#F8CC46"/>
<rect x="232" y="47" width="10" height="10" fill="#F8CC46"/>
<rect x="232" y="87" width="10" height="10" fill="#F8CC46"/>
<rect x="152" y="47" width="10" height="10" fill="#F8CC46"/>
<rect x="272" y="47" width="10" height="10" fill="#F8CC46"/>
<rect x="272" y="87" width="10" height="10" fill="#F8CC46"/>
<rect x="322" y="47" width="10" height="10" fill="#F8CC46"/>
<rect x="322" y="87" width="10" height="10" fill="black"/>
<rect x="112" y="87" width="10" height="10" fill="black"/>
<rect x="152" y="87" width="10" height="10" fill="#F8CC46"/>
<rect x="112" y="127" width="10" height="10" fill="black"/>
<rect x="152" y="127" width="10" height="10" fill="#F8CC46"/>
<rect x="112" y="27" width="10" height="10" fill="#F8CC46"/>
<rect x="262" y="27" width="10" height="10" fill="#F8CC46"/>
<rect x="102" y="197" width="10" height="10" fill="#DFB83F"/>
<rect x="102" y="77" width="10" height="10" fill="#F8CC46"/>
<rect x="222" y="77" width="10" height="10" fill="#F8CC46"/>
<rect x="222" y="87" width="10" height="10" fill="#F8CC46"/>
<rect x="102" y="117" width="10" height="10" fill="#F8CC46"/>
<rect x="102" y="157" width="10" height="10" fill="#F8CC46"/>
<rect x="102" y="177" width="10" height="10" fill="#F8CC46"/>
<rect x="102" y="57" width="10" height="10" fill="#F8CC46"/>
<rect x="222" y="57" width="10" height="10" fill="black"/>
<rect x="102" y="97" width="10" height="10" fill="#F8CC46"/>
<rect x="102" y="137" width="10" height="10" fill="#F8CC46"/>
<rect x="102" y="37" width="10" height="10" fill="#F8CC46"/>
<rect x="252" y="37" width="10" height="10" fill="#F8CC46"/>
<rect x="102" y="187" width="10" height="10" fill="#DFB83F"/>
<rect x="102" y="67" width="10" height="10" fill="#F8CC46"/>
<rect x="222" y="67" width="10" height="10" fill="#F8CC46"/>
<rect x="102" y="107" width="10" height="10" fill="#F8CC46"/>
<rect x="102" y="147" width="10" height="10" fill="#F8CC46"/>
<rect x="102" y="167" width="10" height="10" fill="#F8CC46"/>
<rect x="102" y="47" width="10" height="10" fill="#F8CC46"/>
<rect x="222" y="47" width="10" height="10" fill="#F8CC46"/>
<rect x="102" y="87" width="10" height="10" fill="#F8CC46"/>
<rect x="102" y="127" width="10" height="10" fill="#F8CC46"/>
<rect x="102" y="27" width="10" height="10" fill="#F8CC46"/>
<rect x="252" y="27" width="10" height="10" fill="#F8CC46"/>
<rect x="92" y="197" width="10" height="10" fill="#DFB83F"/>
<rect x="92" y="77" width="10" height="10" fill="#F8CC46"/>
<rect x="212" y="77" width="10" height="10" fill="#F8CC46"/>
<rect x="92" y="117" width="10" height="10" fill="#F8CC46"/>
<rect x="92" y="157" width="10" height="10" fill="#F8CC46"/>
<rect x="92" y="177" width="10" height="10" fill="#F8CC46"/>
<rect x="92" y="57" width="10" height="10" fill="#F8CC46"/>
<rect x="212" y="57" width="10" height="10" fill="black"/>
<rect x="92" y="97" width="10" height="10" fill="#F8CC46"/>
<rect x="92" y="137" width="10" height="10" fill="#F8CC46"/>
<rect x="92" y="37" width="10" height="10" fill="#F8CC46"/>
<rect x="242" y="37" width="10" height="10" fill="#F8CC46"/>
<rect x="92" y="187" width="10" height="10" fill="#DFB83F"/>
<rect x="92" y="67" width="10" height="10" fill="#F8CC46"/>
<rect x="212" y="67" width="10" height="10" fill="#F8CC46"/>
<rect x="92" y="107" width="10" height="10" fill="#F8CC46"/>
<rect x="92" y="147" width="10" height="10" fill="#F8CC46"/>
<rect x="92" y="167" width="10" height="10" fill="#F8CC46"/>
<rect x="92" y="47" width="10" height="10" fill="#F8CC46"/>
<rect x="212" y="47" width="10" height="10" fill="#F8CC46"/>
<rect x="92" y="87" width="10" height="10" fill="#F8CC46"/>
<rect x="92" y="127" width="10" height="10" fill="#F8CC46"/>
<rect x="92" y="27" width="10" height="10" fill="#F8CC46"/>
<rect x="242" y="27" width="10" height="10" fill="#F8CC46"/>
<rect x="82" y="197" width="10" height="10" fill="#DFB83F"/>
<rect x="82" y="77" width="10" height="10" fill="#F8CC46"/>
<rect x="202" y="77" width="10" height="10" fill="black"/>
<rect x="82" y="117" width="10" height="10" fill="#F8CC46"/>
<rect x="82" y="157" width="10" height="10" fill="#F8CC46"/>
<rect x="82" y="177" width="10" height="10" fill="#F8CC46"/>
<rect x="82" y="57" width="10" height="10" fill="black"/>
<rect x="202" y="57" width="10" height="10" fill="black"/>
<rect x="82" y="97" width="10" height="10" fill="#F8CC46"/>
<rect x="82" y="137" width="10" height="10" fill="#F8CC46"/>
<rect x="82" y="37" width="10" height="10" fill="#F8CC46"/>
<rect x="232" y="37" width="10" height="10" fill="#F8CC46"/>
<rect x="382" y="37" width="10" height="10" fill="#DFB83F"/>
<rect x="382" y="57" width="10" height="10" fill="#DFB83F"/>
<rect x="382" y="77" width="10" height="10" fill="#DFB83F"/>
<rect x="382" y="97" width="10" height="10" fill="#DFB83F"/>
<rect x="382" y="117" width="10" height="10" fill="#DFB83F"/>
<rect x="382" y="137" width="10" height="10" fill="#DFB83F"/>
<rect x="382" y="157" width="10" height="10" fill="#DFB83F"/>
<rect x="382" y="177" width="10" height="10" fill="#DFB83F"/>
<rect x="382" y="197" width="10" height="10" fill="#DFB83F"/>
<rect x="82" y="187" width="10" height="10" fill="#DFB83F"/>
<rect x="82" y="67" width="10" height="10" fill="#F8CC46"/>
<rect x="202" y="67" width="10" height="10" fill="black"/>
<rect x="82" y="107" width="10" height="10" fill="#F8CC46"/>
<rect x="82" y="147" width="10" height="10" fill="black"/>
<rect x="82" y="167" width="10" height="10" fill="#F8CC46"/>
<rect x="82" y="47" width="10" height="10" fill="#F8CC46"/>
<rect x="202" y="47" width="10" height="10" fill="#F8CC46"/>
<rect x="82" y="87" width="10" height="10" fill="#F8CC46"/>
<rect x="82" y="127" width="10" height="10" fill="#F8CC46"/>
<rect x="82" y="27" width="10" height="10" fill="#F8CC46"/>
<rect x="232" y="27" width="10" height="10" fill="#F8CC46"/>
<rect x="382" y="47" width="10" height="10" fill="#DFB83F"/>
<rect x="382" y="67" width="10" height="10" fill="#DFB83F"/>
<rect x="382" y="87" width="10" height="10" fill="#DFB83F"/>
<rect x="382" y="107" width="10" height="10" fill="#DFB83F"/>
<rect x="382" y="127" width="10" height="10" fill="#DFB83F"/>
<rect x="382" y="147" width="10" height="10" fill="#DFB83F"/>
<rect x="382" y="167" width="10" height="10" fill="#DFB83F"/>
<rect x="382" y="187" width="10" height="10" fill="#DFB83F"/>
<rect x="72" y="197" width="10" height="10" fill="#DFB83F"/>
<rect x="72" y="77" width="10" height="10" fill="#F8CC46"/>
<rect x="192" y="77" width="10" height="10" fill="#F8CC46"/>
<rect x="192" y="87" width="10" height="10" fill="#F8CC46"/>
<rect x="72" y="117" width="10" height="10" fill="#F8CC46"/>
<rect x="72" y="157" width="10" height="10" fill="#F8CC46"/>
<rect x="72" y="177" width="10" height="10" fill="#F8CC46"/>
<rect x="72" y="57" width="10" height="10" fill="black"/>
<rect x="192" y="57" width="10" height="10" fill="black"/>
<rect x="72" y="97" width="10" height="10" fill="#F8CC46"/>
<rect x="72" y="137" width="10" height="10" fill="#F8CC46"/>
<rect x="372" y="37" width="10" height="10" fill="#F8CC46"/>
<rect x="72" y="37" width="10" height="10" fill="#F8CC46"/>
<rect x="222" y="37" width="10" height="10" fill="#F8CC46"/>
<rect x="372" y="57" width="10" height="10" fill="#F8CC46"/>
<rect x="372" y="77" width="10" height="10" fill="#F8CC46"/>
<rect x="372" y="97" width="10" height="10" fill="#F8CC46"/>
<rect x="372" y="117" width="10" height="10" fill="#F8CC46"/>
<rect x="372" y="137" width="10" height="10" fill="#F8CC46"/>
<rect x="372" y="157" width="10" height="10" fill="#F8CC46"/>
<rect x="372" y="177" width="10" height="10" fill="#F8CC46"/>
<rect x="372" y="197" width="10" height="10" fill="#DFB83F"/>
<rect x="72" y="187" width="10" height="10" fill="#DFB83F"/>
<rect x="72" y="67" width="10" height="10" fill="#F8CC46"/>
<rect x="192" y="67" width="10" height="10" fill="#F8CC46"/>
<rect x="72" y="107" width="10" height="10" fill="#F8CC46"/>
<rect x="72" y="147" width="10" height="10" fill="black"/>
<rect x="72" y="167" width="10" height="10" fill="#F8CC46"/>
<rect x="372" y="27" width="10" height="10" fill="#F8CC46"/>
<rect x="72" y="47" width="10" height="10" fill="#F8CC46"/>
<rect x="192" y="47" width="10" height="10" fill="#F8CC46"/>
<rect x="72" y="87" width="10" height="10" fill="#F8CC46"/>
<rect x="72" y="127" width="10" height="10" fill="#F8CC46"/>
<rect x="72" y="27" width="10" height="10" fill="#F8CC46"/>
<rect x="222" y="27" width="10" height="10" fill="#F8CC46"/>
<rect x="372" y="47" width="10" height="10" fill="#F8CC46"/>
<rect x="372" y="67" width="10" height="10" fill="#F8CC46"/>
<rect x="372" y="87" width="10" height="10" fill="#F8CC46"/>
<rect x="372" y="107" width="10" height="10" fill="#F8CC46"/>
<rect x="372" y="127" width="10" height="10" fill="#F8CC46"/>
<rect x="372" y="147" width="10" height="10" fill="#F8CC46"/>
<rect x="372" y="167" width="10" height="10" fill="#F8CC46"/>
<rect x="372" y="187" width="10" height="10" fill="#DFB83F"/>
<rect x="62" y="197" width="10" height="10" fill="#DFB83F"/>
<rect x="362" y="37" width="10" height="10" fill="#F8CC46"/>
<rect x="62" y="77" width="10" height="10" fill="#F8CC46"/>
<rect x="62" y="117" width="10" height="10" fill="#F8CC46"/>
<rect x="62" y="157" width="10" height="10" fill="#F8CC46"/>
<rect x="62" y="177" width="10" height="10" fill="#F8CC46"/>
<rect x="62" y="57" width="10" height="10" fill="black"/>
<rect x="62" y="97" width="10" height="10" fill="#F8CC46"/>
<rect x="62" y="137" width="10" height="10" fill="#F8CC46"/>
<rect x="62" y="37" width="10" height="10" fill="#F8CC46"/>
<rect x="212" y="37" width="10" height="10" fill="#F8CC46"/>
<rect x="362" y="57" width="10" height="10" fill="black"/>
<rect x="362" y="77" width="10" height="10" fill="black"/>
<rect x="362" y="97" width="10" height="10" fill="#F8CC46"/>
<rect x="362" y="117" width="10" height="10" fill="black"/>
<rect x="362" y="137" width="10" height="10" fill="black"/>
<rect x="362" y="157" width="10" height="10" fill="#F8CC46"/>
<rect x="362" y="177" width="10" height="10" fill="#F8CC46"/>
<rect x="362" y="197" width="10" height="10" fill="#DFB83F"/>
<rect x="362" y="27" width="10" height="10" fill="#F8CC46"/>
<rect x="62" y="187" width="10" height="10" fill="#DFB83F"/>
<rect x="62" y="67" width="10" height="10" fill="#F8CC46"/>
<rect x="62" y="107" width="10" height="10" fill="#F8CC46"/>
<rect x="62" y="147" width="10" height="10" fill="black"/>
<rect x="62" y="167" width="10" height="10" fill="#F8CC46"/>
<rect x="62" y="47" width="10" height="10" fill="#F8CC46"/>
<rect x="62" y="87" width="10" height="10" fill="#F8CC46"/>
<rect x="62" y="127" width="10" height="10" fill="#F8CC46"/>
<rect x="62" y="27" width="10" height="10" fill="#F8CC46"/>
<rect x="212" y="27" width="10" height="10" fill="#F8CC46"/>
<rect x="362" y="47" width="10" height="10" fill="#F8CC46"/>
<rect x="362" y="67" width="10" height="10" fill="black"/>
<rect x="362" y="87" width="10" height="10" fill="#F8CC46"/>
<rect x="362" y="107" width="10" height="10" fill="#F8CC46"/>
<rect x="362" y="127" width="10" height="10" fill="black"/>
<rect x="362" y="147" width="10" height="10" fill="black"/>
<rect x="362" y="167" width="10" height="10" fill="#F8CC46"/>
<rect x="362" y="187" width="10" height="10" fill="#DFB83F"/>
<rect x="52" y="197" width="10" height="10" fill="#DFB83F"/>
<rect x="52" y="77" width="10" height="10" fill="#F8CC46"/>
<rect x="52" y="117" width="10" height="10" fill="#F8CC46"/>
<rect x="52" y="157" width="10" height="10" fill="#F8CC46"/>
<rect x="52" y="177" width="10" height="10" fill="#F8CC46"/>
<rect x="52" y="57" width="10" height="10" fill="black"/>
<rect x="52" y="97" width="10" height="10" fill="#F8CC46"/>
<rect x="52" y="137" width="10" height="10" fill="#F8CC46"/>
<rect x="52" y="37" width="10" height="10" fill="#F8CC46"/>
<rect x="202" y="37" width="10" height="10" fill="#F8CC46"/>
<rect x="352" y="37" width="10" height="10" fill="#F8CC46"/>
<rect x="352" y="197" width="10" height="10" fill="#DFB83F"/>
<rect x="52" y="187" width="10" height="10" fill="#DFB83F"/>
<rect x="52" y="67" width="10" height="10" fill="#F8CC46"/>
<rect x="52" y="107" width="10" height="10" fill="#F8CC46"/>
<rect x="52" y="147" width="10" height="10" fill="black"/>
<rect x="52" y="167" width="10" height="10" fill="#F8CC46"/>
<rect x="52" y="47" width="10" height="10" fill="#F8CC46"/>
<rect x="52" y="87" width="10" height="10" fill="#F8CC46"/>
<rect x="52" y="127" width="10" height="10" fill="#F8CC46"/>
<rect x="52" y="27" width="10" height="10" fill="#F8CC46"/>
<rect x="202" y="27" width="10" height="10" fill="#F8CC46"/>
<rect x="352" y="27" width="10" height="10" fill="#F8CC46"/>
<rect x="352" y="187" width="10" height="10" fill="#DFB83F"/>
<rect x="42" y="197" width="10" height="10" fill="#DFB83F"/>
<rect x="42" y="77" width="10" height="10" fill="black"/>
<rect x="42" y="117" width="10" height="10" fill="black"/>
<rect x="42" y="157" width="10" height="10" fill="#F8CC46"/>
<rect x="42" y="177" width="10" height="10" fill="#F8CC46"/>
<rect x="42" y="57" width="10" height="10" fill="black"/>
<rect x="42" y="97" width="10" height="10" fill="black"/>
<rect x="42" y="137" width="10" height="10" fill="black"/>
<rect x="42" y="37" width="10" height="10" fill="#F8CC46"/>
<rect x="192" y="37" width="10" height="10" fill="#F8CC46"/>
<rect x="342" y="37" width="10" height="10" fill="#F8CC46"/>
<rect x="342" y="197" width="10" height="10" fill="#DFB83F"/>
<rect x="42" y="187" width="10" height="10" fill="#DFB83F"/>
<rect x="42" y="67" width="10" height="10" fill="black"/>
<rect x="42" y="107" width="10" height="10" fill="black"/>
<rect x="42" y="147" width="10" height="10" fill="black"/>
<rect x="42" y="167" width="10" height="10" fill="#F8CC46"/>
<rect x="42" y="47" width="10" height="10" fill="#F8CC46"/>
<rect x="42" y="87" width="10" height="10" fill="black"/>
<rect x="42" y="127" width="10" height="10" fill="black"/>
<rect x="42" y="27" width="10" height="10" fill="#F8CC46"/>
<rect x="192" y="27" width="10" height="10" fill="#F8CC46"/>
<rect x="342" y="27" width="10" height="10" fill="#F8CC46"/>
<rect x="342" y="187" width="10" height="10" fill="#DFB83F"/>
<rect x="32" y="197" width="10" height="10" fill="#DFB83F"/>
<rect x="32" y="77" width="10" height="10" fill="#F8CC46"/>
<rect x="32" y="117" width="10" height="10" fill="#F8CC46"/>
<rect x="32" y="157" width="10" height="10" fill="#F8CC46"/>
<rect x="32" y="177" width="10" height="10" fill="#F8CC46"/>
<rect x="32" y="57" width="10" height="10" fill="#F8CC46"/>
<rect x="32" y="97" width="10" height="10" fill="#F8CC46"/>
<rect x="32" y="137" width="10" height="10" fill="#F8CC46"/>
<rect x="32" y="37" width="10" height="10" fill="#F8CC46"/>
<rect x="182" y="37" width="10" height="10" fill="#F8CC46"/>
<rect x="332" y="37" width="10" height="10" fill="#F8CC46"/>
<rect x="332" y="197" width="10" height="10" fill="#DFB83F"/>
<rect x="32" y="187" width="10" height="10" fill="#DFB83F"/>
<rect x="32" y="67" width="10" height="10" fill="#F8CC46"/>
<rect x="32" y="107" width="10" height="10" fill="#F8CC46"/>
<rect x="32" y="147" width="10" height="10" fill="#F8CC46"/>
<rect x="32" y="167" width="10" height="10" fill="#F8CC46"/>
<rect x="32" y="47" width="10" height="10" fill="#F8CC46"/>
<rect x="32" y="87" width="10" height="10" fill="#F8CC46"/>
<rect x="32" y="127" width="10" height="10" fill="#F8CC46"/>
<rect x="32" y="27" width="10" height="10" fill="#F8CC46"/>
<rect x="182" y="27" width="10" height="10" fill="#F8CC46"/>
<rect x="332" y="27" width="10" height="10" fill="#F8CC46"/>
<rect x="332" y="187" width="10" height="10" fill="#DFB83F"/>
<rect x="22" y="197" width="10" height="10" fill="#DFB83F"/>
<rect x="22" y="77" width="10" height="10" fill="#DFB83F"/>
<rect x="22" y="117" width="10" height="10" fill="#DFB83F"/>
<rect x="22" y="157" width="10" height="10" fill="#DFB83F"/>
<rect x="22" y="177" width="10" height="10" fill="#DFB83F"/>
<rect x="22" y="57" width="10" height="10" fill="#DFB83F"/>
<rect x="22" y="97" width="10" height="10" fill="#DFB83F"/>
<rect x="22" y="137" width="10" height="10" fill="#DFB83F"/>
<rect x="22" y="37" width="10" height="10" fill="#DFB83F"/>
<rect x="172" y="37" width="10" height="10" fill="#F8CC46"/>
<rect x="322" y="37" width="10" height="10" fill="#F8CC46"/>
<rect x="322" y="197" width="10" height="10" fill="#DFB83F"/>
<rect x="22" y="187" width="10" height="10" fill="#DFB83F"/>
<rect x="22" y="67" width="10" height="10" fill="#DFB83F"/>
<rect x="22" y="107" width="10" height="10" fill="#DFB83F"/>
<rect x="22" y="147" width="10" height="10" fill="#DFB83F"/>
<rect x="22" y="167" width="10" height="10" fill="#DFB83F"/>
<rect x="22" y="47" width="10" height="10" fill="#DFB83F"/>
<rect x="22" y="87" width="10" height="10" fill="#DFB83F"/>
<rect x="22" y="127" width="10" height="10" fill="#DFB83F"/>
<rect x="172" y="27" width="10" height="10" fill="#F8CC46"/>
<rect x="322" y="27" width="10" height="10" fill="#F8CC46"/>
<rect x="322" y="187" width="10" height="10" fill="#DFB83F"/>
<rect x="162" y="37" width="10" height="10" fill="#F8CC46"/>
<rect x="312" y="37" width="10" height="10" fill="#F8CC46"/>
<rect x="312" y="197" width="10" height="10" fill="#DFB83F"/>
<rect x="162" y="27" width="10" height="10" fill="#F8CC46"/>
<rect x="312" y="27" width="10" height="10" fill="#F8CC46"/>
<rect x="312" y="187" width="10" height="10" fill="#DFB83F"/>
<rect x="152" y="37" width="10" height="10" fill="#F8CC46"/>
<rect x="302" y="37" width="10" height="10" fill="#F8CC46"/>
<rect x="152" y="27" width="10" height="10" fill="#F8CC46"/>
<rect x="302" y="27" width="10" height="10" fill="#F8CC46"/>
<rect x="152" y="207" width="10" height="10" fill="black"/>
<rect x="152" y="197" width="10" height="10" fill="white"/>
<rect x="152" y="187" width="10" height="10" fill="white"/>
<rect x="152" y="177" width="10" height="10" fill="black"/>
<rect x="292" y="267" width="10" height="10" fill="black"/>
<rect x="292" y="257" width="10" height="10" fill="white"/>
<rect x="292" y="247" width="10" height="10" fill="white"/>
<rect x="292" y="237" width="10" height="10" fill="white"/>
<rect x="292" y="227" width="10" height="10" fill="white"/>
<rect x="292" y="217" width="10" height="10" fill="white"/>
<rect x="292" y="207" width="10" height="10" fill="white"/>
<rect x="292" y="197" width="10" height="10" fill="white"/>
<rect x="292" y="187" width="10" height="10" fill="white"/>
<rect x="292" y="177" width="10" height="10" fill="white"/>
<rect x="292" y="167" width="10" height="10" fill="black"/>
<rect x="162" y="237" width="10" height="10" fill="black"/>
<rect x="162" y="227" width="10" height="10" fill="black"/>
<rect x="162" y="217" width="10" height="10" fill="white"/>
<rect x="162" y="207" width="10" height="10" fill="white"/>
<rect x="162" y="197" width="10" height="10" fill="white"/>
<rect x="162" y="187" width="10" height="10" fill="white"/>
<rect x="162" y="177" width="10" height="10" fill="black"/>
<rect x="302" y="257" width="10" height="10" fill="black"/>
<rect x="302" y="247" width="10" height="10" fill="black"/>
<rect x="302" y="237" width="10" height="10" fill="black"/>
<rect x="302" y="227" width="10" height="10" fill="black"/>
<rect x="302" y="217" width="10" height="10" fill="black"/>
<rect x="302" y="207" width="10" height="10" fill="black"/>
<rect x="302" y="197" width="10" height="10" fill="black"/>
<rect x="302" y="187" width="10" height="10" fill="black"/>
<rect x="302" y="177" width="10" height="10" fill="black"/>
<rect x="302" y="167" width="10" height="10" fill="black"/>
</g>
</svg>
