<svg width="45" height="60" viewBox="0 0 45 60" fill="none" xmlns="http://www.w3.org/2000/svg">
<rect x="12.6316" y="3.15789" width="3.15789" height="3.15789" fill="#F8CC46"/>
<rect x="12.6316" width="3.15789" height="3.15789" fill="black"/>
<rect x="9.47363" width="3.15789" height="3.15789" fill="black"/>
<rect x="9.47363" y="3.15789" width="3.15789" height="3.15789" fill="black"/>
<rect x="6.31592" y="3.15789" width="3.15789" height="3.15789" fill="black"/>
<rect x="6.31592" y="6.31579" width="3.15789" height="3.15789" fill="black"/>
<rect x="12.6316" y="6.31579" width="3.15789" height="3.15789" fill="#F8CC46"/>
<rect x="12.6316" y="9.47368" width="3.15789" height="3.15789" fill="#F8CC46"/>
<rect x="12.6316" y="12.6316" width="3.15789" height="3.15789" fill="#F8CC46"/>
<rect x="12.6316" y="15.7895" width="3.15789" height="3.15789" fill="#F5F5F5"/>
<rect x="12.6316" y="18.9474" width="3.15789" height="3.15789" fill="#F5F5F5"/>
<rect x="12.6316" y="22.1053" width="3.15789" height="3.15789" fill="#F5F5F5"/>
<rect x="12.6316" y="25.2632" width="3.15789" height="3.15789" fill="#F5F5F5"/>
<rect x="12.6316" y="28.421" width="3.15789" height="3.15789" fill="#F5F5F5"/>
<rect x="12.6316" y="37.8947" width="3.15789" height="3.15789" fill="#F8CC46"/>
<rect x="12.6316" y="44.2105" width="3.15789" height="3.15789" fill="#F8CC46"/>
<rect x="12.6316" y="50.5263" width="3.15789" height="3.15789" fill="#F8CC46"/>
<rect x="12.6316" y="31.5789" width="3.15789" height="3.15789" fill="#F8CC46"/>
<rect x="12.6316" y="53.6842" width="3.15789" height="3.15789" fill="#F8CC46"/>
<rect x="12.6316" y="34.7368" width="3.15789" height="3.15789" fill="#F8CC46"/>
<rect x="12.6316" y="41.0526" width="3.15789" height="3.15789" fill="#F8CC46"/>
<rect x="12.6316" y="47.3684" width="3.15789" height="3.15789" fill="#F8CC46"/>
<rect x="9.47363" y="6.31579" width="3.15789" height="3.15789" fill="#F8CC46"/>
<rect x="9.47363" y="9.47368" width="3.15789" height="3.15789" fill="#F8CC46"/>
<rect x="6.31592" y="9.47368" width="3.15789" height="3.15789" fill="#F8CC46"/>
<rect x="9.47363" y="12.6316" width="3.15789" height="3.15789" fill="#F8CC46"/>
<rect x="6.31592" y="12.6316" width="3.15789" height="3.15789" fill="#F8CC46"/>
<rect x="9.47363" y="15.7895" width="3.15789" height="3.15789" fill="#F5F5F5"/>
<rect x="6.31592" y="15.7895" width="3.15789" height="3.15789" fill="#F8CC46"/>
<rect x="3.15796" y="15.7895" width="3.15789" height="3.15789" fill="#F8CC46"/>
<rect x="9.47363" y="18.9474" width="3.15789" height="3.15789" fill="#F5F5F5"/>
<rect x="6.31592" y="18.9474" width="3.15789" height="3.15789" fill="#F5F5F5"/>
<rect x="3.15796" y="18.9474" width="3.15789" height="3.15789" fill="#F8CC46"/>
<rect x="9.47363" y="22.1053" width="3.15789" height="3.15789" fill="black"/>
<rect x="6.31592" y="22.1053" width="3.15789" height="3.15789" fill="black"/>
<rect x="3.15796" y="22.1053" width="3.15789" height="3.15789" fill="#F8CC46"/>
<rect x="9.47363" y="25.2632" width="3.15789" height="3.15789" fill="black"/>
<rect x="6.31592" y="25.2632" width="3.15789" height="3.15789" fill="black"/>
<rect x="3.15796" y="25.2632" width="3.15789" height="3.15789" fill="#F8CC46"/>
<rect x="9.47363" y="28.421" width="3.15789" height="3.15789" fill="#F5F5F5"/>
<rect x="9.47363" y="37.8947" width="3.15789" height="3.15789" fill="#F8CC46"/>
<rect x="9.47363" y="44.2105" width="3.15789" height="3.15789" fill="#F8CC46"/>
<rect x="9.47363" y="50.5263" width="3.15789" height="3.15789" fill="#F8CC46"/>
<rect x="6.31592" y="28.421" width="3.15789" height="3.15789" fill="#F8CC46"/>
<rect x="3.15796" y="28.421" width="3.15789" height="3.15789" fill="#F8CC46"/>
<rect x="6.31592" y="37.8947" width="3.15789" height="3.15789" fill="#F8CC46"/>
<rect x="6.31592" y="44.2105" width="3.15789" height="3.15789" fill="#F8CC46"/>
<rect x="6.31592" y="50.5263" width="3.15789" height="3.15789" fill="#F8CC46"/>
<rect x="3.15796" y="37.8947" width="3.15789" height="3.15789" fill="#F8CC46"/>
<rect x="3.15796" y="44.2105" width="3.15789" height="3.15789" fill="#F8CC46"/>
<rect x="3.15796" y="50.5263" width="3.15789" height="3.15789" fill="#F8CC46"/>
<rect x="9.47363" y="31.5789" width="3.15789" height="3.15789" fill="#F8CC46"/>
<rect x="9.47363" y="53.6842" width="3.15789" height="3.15789" fill="#F8CC46"/>
<rect x="6.31592" y="31.5789" width="3.15789" height="3.15789" fill="#F8CC46"/>
<rect x="3.15796" y="31.5789" width="3.15789" height="3.15789" fill="#F8CC46"/>
<rect x="6.31592" y="53.6842" width="3.15789" height="3.15789" fill="#F8CC46"/>
<rect x="3.15796" y="53.6842" width="3.15789" height="3.15789" fill="#F8CC46"/>
<rect x="9.47363" y="34.7368" width="3.15789" height="3.15789" fill="#F8CC46"/>
<rect x="9.47363" y="41.0526" width="3.15789" height="3.15789" fill="#F8CC46"/>
<rect x="9.47363" y="47.3684" width="3.15789" height="3.15789" fill="#F8CC46"/>
<rect x="6.31592" y="34.7368" width="3.15789" height="3.15789" fill="#F8CC46"/>
<rect x="6.31592" y="41.0526" width="3.15789" height="3.15789" fill="#F8CC46"/>
<rect x="6.31592" y="47.3684" width="3.15789" height="3.15789" fill="#F8CC46"/>
<rect x="3.15796" y="34.7368" width="3.15789" height="3.15789" fill="#F8CC46"/>
<rect x="3.15796" y="41.0526" width="3.15789" height="3.15789" fill="#F8CC46"/>
<rect x="3.15796" y="47.3684" width="3.15789" height="3.15789" fill="#F8CC46"/>
<rect x="15.7896" y="3.15789" width="3.15789" height="3.15789" fill="#F8CC46"/>
<rect x="15.7896" width="3.15789" height="3.15789" fill="black"/>
<rect x="15.7896" y="6.31579" width="3.15789" height="3.15789" fill="#F8CC46"/>
<rect x="15.7896" y="9.47368" width="3.15789" height="3.15789" fill="#F8CC46"/>
<rect x="15.7896" y="12.6316" width="3.15789" height="3.15789" fill="#F8CC46"/>
<rect x="15.7896" y="15.7895" width="3.15789" height="3.15789" fill="#F8CC46"/>
<rect x="15.7896" y="18.9474" width="3.15789" height="3.15789" fill="#F5F5F5"/>
<rect x="15.7896" y="22.1053" width="3.15789" height="3.15789" fill="#F5F5F5"/>
<rect x="15.7896" y="25.2632" width="3.15789" height="3.15789" fill="#F5F5F5"/>
<rect x="15.7896" y="28.421" width="3.15789" height="3.15789" fill="#F8CC46"/>
<rect x="15.7896" y="37.8947" width="3.15789" height="3.15789" fill="#F8CC46"/>
<rect x="15.7896" y="44.2105" width="3.15789" height="3.15789" fill="#F8CC46"/>
<rect x="15.7896" y="50.5263" width="3.15789" height="3.15789" fill="#F8CC46"/>
<rect x="15.7896" y="31.5789" width="3.15789" height="3.15789" fill="#F8CC46"/>
<rect x="15.7896" y="53.6842" width="3.15789" height="3.15789" fill="#F8CC46"/>
<rect x="15.7896" y="34.7368" width="3.15789" height="3.15789" fill="#F8CC46"/>
<rect x="15.7896" y="41.0526" width="3.15789" height="3.15789" fill="#F8CC46"/>
<rect x="15.7896" y="47.3684" width="3.15789" height="3.15789" fill="#F8CC46"/>
<rect x="18.9475" y="3.15789" width="3.15789" height="3.15789" fill="#F8CC46"/>
<rect x="18.9475" width="3.15789" height="3.15789" fill="black"/>
<rect x="18.9475" y="6.31579" width="3.15789" height="3.15789" fill="#F8CC46"/>
<rect x="18.9475" y="9.47368" width="3.15789" height="3.15789" fill="#F8CC46"/>
<rect x="18.9475" y="12.6316" width="3.15789" height="3.15789" fill="#F8CC46"/>
<rect x="18.9475" y="15.7895" width="3.15789" height="3.15789" fill="#F8CC46"/>
<rect x="18.9475" y="18.9474" width="3.15789" height="3.15789" fill="#F8CC46"/>
<rect x="18.9475" y="22.1053" width="3.15789" height="3.15789" fill="#F8CC46"/>
<rect x="18.9475" y="25.2632" width="3.15789" height="3.15789" fill="#F8CC46"/>
<rect x="18.9475" y="28.421" width="3.15789" height="3.15789" fill="#F8CC46"/>
<rect x="37.8948" y="28.421" width="3.15789" height="3.15789" fill="#F8CC46"/>
<rect x="37.8948" y="25.2632" width="3.15789" height="3.15789" fill="#F8CC46"/>
<rect x="37.8948" y="22.1053" width="3.15789" height="3.15789" fill="#F8CC46"/>
<rect x="37.8948" y="18.9474" width="3.15789" height="3.15789" fill="#F8CC46"/>
<rect x="37.8948" y="15.7895" width="3.15789" height="3.15789" fill="#F8CC46"/>
<rect x="18.9475" y="37.8947" width="3.15789" height="3.15789" fill="#F8CC46"/>
<rect x="18.9475" y="44.2105" width="3.15789" height="3.15789" fill="#F8CC46"/>
<rect x="37.8948" y="37.8947" width="3.15789" height="3.15789" fill="#F8CC46"/>
<rect x="37.8948" y="44.2105" width="3.15789" height="3.15789" fill="#F8CC46"/>
<rect x="18.9475" y="50.5263" width="3.15789" height="3.15789" fill="#F8CC46"/>
<rect x="37.8948" y="50.5263" width="3.15789" height="3.15789" fill="#F8CC46"/>
<rect x="18.9475" y="31.5789" width="3.15789" height="3.15789" fill="#F8CC46"/>
<rect x="37.8948" y="31.5789" width="3.15789" height="3.15789" fill="#F8CC46"/>
<rect x="18.9475" y="53.6842" width="3.15789" height="3.15789" fill="#F8CC46"/>
<rect x="37.8948" y="53.6842" width="3.15789" height="3.15789" fill="#F8CC46"/>
<rect x="18.9475" y="34.7368" width="3.15789" height="3.15789" fill="#F8CC46"/>
<rect x="18.9475" y="41.0526" width="3.15789" height="3.15789" fill="#F8CC46"/>
<rect x="37.8948" y="34.7368" width="3.15789" height="3.15789" fill="#F8CC46"/>
<rect x="37.8948" y="41.0526" width="3.15789" height="3.15789" fill="#F8CC46"/>
<rect x="18.9475" y="47.3684" width="3.15789" height="3.15789" fill="#F8CC46"/>
<rect x="37.8948" y="47.3684" width="3.15789" height="3.15789" fill="#F8CC46"/>
<rect x="22.1052" y="3.15789" width="3.15789" height="3.15789" fill="#F8CC46"/>
<rect x="22.1052" width="3.15789" height="3.15789" fill="black"/>
<rect x="22.1052" y="6.31579" width="3.15789" height="3.15789" fill="#F8CC46"/>
<rect x="22.1052" y="9.47368" width="3.15789" height="3.15789" fill="#F8CC46"/>
<rect x="22.1052" y="12.6316" width="3.15789" height="3.15789" fill="#F8CC46"/>
<rect x="28.4209" y="12.6316" width="3.15789" height="3.15789" fill="#F8CC46"/>
<rect x="22.1052" y="15.7895" width="3.15789" height="3.15789" fill="#F8CC46"/>
<rect x="22.1052" y="18.9474" width="3.15789" height="3.15789" fill="#F8CC46"/>
<rect x="22.1052" y="22.1053" width="3.15789" height="3.15789" fill="#F8CC46"/>
<rect x="22.1052" y="25.2632" width="3.15789" height="3.15789" fill="#F8CC46"/>
<rect x="22.1052" y="28.421" width="3.15789" height="3.15789" fill="#F8CC46"/>
<rect x="22.1052" y="37.8947" width="3.15789" height="3.15789" fill="#F8CC46"/>
<rect x="22.1052" y="44.2105" width="3.15789" height="3.15789" fill="#F8CC46"/>
<rect x="22.1052" y="50.5263" width="3.15789" height="3.15789" fill="#F8CC46"/>
<rect x="22.1052" y="31.5789" width="3.15789" height="3.15789" fill="#F8CC46"/>
<rect x="22.1052" y="53.6842" width="3.15789" height="3.15789" fill="#F8CC46"/>
<rect x="22.1052" y="34.7368" width="3.15789" height="3.15789" fill="#F8CC46"/>
<rect x="22.1052" y="41.0526" width="3.15789" height="3.15789" fill="#F8CC46"/>
<rect x="22.1052" y="47.3684" width="3.15789" height="3.15789" fill="#F8CC46"/>
<rect x="25.2632" y="3.15789" width="3.15789" height="3.15789" fill="#F8CC46"/>
<rect x="28.4209" y="3.15789" width="3.15789" height="3.15789" fill="#F8CC46"/>
<rect x="25.2632" width="3.15789" height="3.15789" fill="black"/>
<rect x="28.4209" width="3.15789" height="3.15789" fill="black"/>
<rect x="31.5791" width="3.15789" height="3.15789" fill="black"/>
<rect x="31.5791" y="3.15789" width="3.15789" height="3.15789" fill="black"/>
<rect x="34.7368" y="3.15789" width="3.15789" height="3.15789" fill="black"/>
<rect x="34.7368" y="6.31579" width="3.15789" height="3.15789" fill="black"/>
<rect x="37.8948" y="6.31579" width="3.15789" height="3.15789" fill="black"/>
<rect x="3.15796" y="6.31579" width="3.15789" height="3.15789" fill="black"/>
<rect x="41.0525" y="12.6316" width="3.15789" height="3.15789" fill="black"/>
<rect x="41.0525" y="12.6316" width="3.15789" height="3.15789" fill="black"/>
<rect x="3.15796" y="12.6316" width="3.15789" height="3.15789" fill="black"/>
<rect y="12.6316" width="3.15789" height="3.15789" fill="black"/>
<rect x="41.0525" y="18.9474" width="3.15789" height="3.15789" fill="black"/>
<rect y="18.9474" width="3.15789" height="3.15789" fill="black"/>
<rect x="41.0525" y="25.2632" width="3.15789" height="3.15789" fill="black"/>
<rect y="25.2632" width="3.15789" height="3.15789" fill="black"/>
<rect x="41.0525" y="31.5789" width="3.15789" height="3.15789" fill="black"/>
<rect y="31.5789" width="3.15789" height="3.15789" fill="black"/>
<rect x="41.0525" y="37.8947" width="3.15789" height="3.15789" fill="black"/>
<rect x="41.0525" y="44.2105" width="3.15789" height="3.15789" fill="black"/>
<rect x="41.0525" y="50.5263" width="3.15789" height="3.15789" fill="black"/>
<rect y="37.8947" width="3.15789" height="3.15789" fill="black"/>
<rect y="44.2105" width="3.15789" height="3.15789" fill="black"/>
<rect y="50.5263" width="3.15789" height="3.15789" fill="black"/>
<rect x="3.15796" y="56.8421" width="3.15789" height="3.15789" fill="black"/>
<rect x="6.31592" y="56.8421" width="3.15789" height="3.15789" fill="black"/>
<rect x="3.15796" y="56.8421" width="3.15789" height="3.15789" fill="black"/>
<rect x="9.47363" y="56.8421" width="3.15789" height="3.15789" fill="black"/>
<rect x="12.6316" y="56.8421" width="3.15789" height="3.15789" fill="black"/>
<rect x="15.7896" y="56.8421" width="3.15789" height="3.15789" fill="black"/>
<rect x="18.9475" y="56.8421" width="3.15789" height="3.15789" fill="black"/>
<rect x="37.8948" y="56.8421" width="3.15789" height="3.15789" fill="black"/>
<rect x="22.1052" y="56.8421" width="3.15789" height="3.15789" fill="black"/>
<rect x="25.2632" y="56.8421" width="3.15789" height="3.15789" fill="black"/>
<rect x="28.4209" y="56.8421" width="3.15789" height="3.15789" fill="black"/>
<rect x="31.5791" y="56.8421" width="3.15789" height="3.15789" fill="black"/>
<rect x="34.7368" y="56.8421" width="3.15789" height="3.15789" fill="black"/>
<rect x="37.8948" y="9.47368" width="3.15789" height="3.15789" fill="black"/>
<rect x="3.15796" y="9.47368" width="3.15789" height="3.15789" fill="black"/>
<rect x="41.0525" y="15.7895" width="3.15789" height="3.15789" fill="black"/>
<rect y="15.7895" width="3.15789" height="3.15789" fill="black"/>
<rect x="41.0525" y="22.1053" width="3.15789" height="3.15789" fill="black"/>
<rect y="22.1053" width="3.15789" height="3.15789" fill="black"/>
<rect x="41.0525" y="28.421" width="3.15789" height="3.15789" fill="black"/>
<rect y="28.421" width="3.15789" height="3.15789" fill="black"/>
<rect x="41.0525" y="34.7368" width="3.15789" height="3.15789" fill="black"/>
<rect x="41.0525" y="41.0526" width="3.15789" height="3.15789" fill="black"/>
<rect x="41.0525" y="47.3684" width="3.15789" height="3.15789" fill="black"/>
<rect y="34.7368" width="3.15789" height="3.15789" fill="black"/>
<rect y="41.0526" width="3.15789" height="3.15789" fill="black"/>
<rect y="47.3684" width="3.15789" height="3.15789" fill="black"/>
<rect x="41.0525" y="53.6842" width="3.15789" height="3.15789" fill="black"/>
<rect y="53.6842" width="3.15789" height="3.15789" fill="black"/>
<rect x="25.2632" y="6.31579" width="3.15789" height="3.15789" fill="#F8CC46"/>
<rect x="28.4209" y="6.31579" width="3.15789" height="3.15789" fill="#F8CC46"/>
<rect x="25.2632" y="9.47368" width="3.15789" height="3.15789" fill="#F8CC46"/>
<rect x="28.4209" y="9.47368" width="3.15789" height="3.15789" fill="#F8CC46"/>
<rect x="25.2632" y="12.6316" width="3.15789" height="3.15789" fill="#F8CC46"/>
<rect x="31.5791" y="12.6316" width="3.15789" height="3.15789" fill="#F8CC46"/>
<rect x="25.2632" y="15.7895" width="3.15789" height="3.15789" fill="#F8CC46"/>
<rect x="28.4209" y="15.7895" width="3.15789" height="3.15789" fill="#F5F5F5"/>
<rect x="25.2632" y="18.9474" width="3.15789" height="3.15789" fill="#F5F5F5"/>
<rect x="28.4209" y="18.9474" width="3.15789" height="3.15789" fill="#F5F5F5"/>
<rect x="25.2632" y="22.1053" width="3.15789" height="3.15789" fill="black"/>
<rect x="28.4209" y="22.1053" width="3.15789" height="3.15789" fill="black"/>
<rect x="25.2632" y="25.2632" width="3.15789" height="3.15789" fill="black"/>
<rect x="28.4209" y="25.2632" width="3.15789" height="3.15789" fill="black"/>
<rect x="25.2632" y="28.421" width="3.15789" height="3.15789" fill="#F8CC46"/>
<rect x="28.4209" y="28.421" width="3.15789" height="3.15789" fill="#F5F5F5"/>
<rect x="25.2632" y="37.8947" width="3.15789" height="3.15789" fill="#F8CC46"/>
<rect x="25.2632" y="44.2105" width="3.15789" height="3.15789" fill="#F8CC46"/>
<rect x="25.2632" y="50.5263" width="3.15789" height="3.15789" fill="#F8CC46"/>
<rect x="28.4209" y="37.8947" width="3.15789" height="3.15789" fill="#F8CC46"/>
<rect x="28.4209" y="44.2105" width="3.15789" height="3.15789" fill="#F8CC46"/>
<rect x="28.4209" y="50.5263" width="3.15789" height="3.15789" fill="#F8CC46"/>
<rect x="25.2632" y="31.5789" width="3.15789" height="3.15789" fill="#F8CC46"/>
<rect x="28.4209" y="31.5789" width="3.15789" height="3.15789" fill="#F8CC46"/>
<rect x="25.2632" y="53.6842" width="3.15789" height="3.15789" fill="#F8CC46"/>
<rect x="28.4209" y="53.6842" width="3.15789" height="3.15789" fill="#F8CC46"/>
<rect x="25.2632" y="34.7368" width="3.15789" height="3.15789" fill="#F8CC46"/>
<rect x="25.2632" y="41.0526" width="3.15789" height="3.15789" fill="#F8CC46"/>
<rect x="25.2632" y="47.3684" width="3.15789" height="3.15789" fill="#F8CC46"/>
<rect x="28.4209" y="34.7368" width="3.15789" height="3.15789" fill="#F8CC46"/>
<rect x="28.4209" y="41.0526" width="3.15789" height="3.15789" fill="#F8CC46"/>
<rect x="28.4209" y="47.3684" width="3.15789" height="3.15789" fill="#F8CC46"/>
<rect x="31.5791" y="6.31579" width="3.15789" height="3.15789" fill="#F8CC46"/>
<rect x="31.5791" y="9.47368" width="3.15789" height="3.15789" fill="#F8CC46"/>
<rect x="34.7368" y="9.47368" width="3.15789" height="3.15789" fill="#F8CC46"/>
<rect x="34.7368" y="12.6316" width="3.15789" height="3.15789" fill="#F8CC46"/>
<rect x="37.8948" y="12.6316" width="3.15789" height="3.15789" fill="black"/>
<rect x="31.5791" y="15.7895" width="3.15789" height="3.15789" fill="#F5F5F5"/>
<rect x="34.7368" y="15.7895" width="3.15789" height="3.15789" fill="#F8CC46"/>
<rect x="31.5791" y="18.9474" width="3.15789" height="3.15789" fill="#F5F5F5"/>
<rect x="34.7368" y="18.9474" width="3.15789" height="3.15789" fill="#F5F5F5"/>
<rect x="31.5791" y="22.1053" width="3.15789" height="3.15789" fill="#F5F5F5"/>
<rect x="34.7368" y="22.1053" width="3.15789" height="3.15789" fill="#F5F5F5"/>
<rect x="31.5791" y="25.2632" width="3.15789" height="3.15789" fill="#F5F5F5"/>
<rect x="34.7368" y="25.2632" width="3.15789" height="3.15789" fill="#F5F5F5"/>
<rect x="31.5791" y="28.421" width="3.15789" height="3.15789" fill="#F5F5F5"/>
<rect x="31.5791" y="37.8947" width="3.15789" height="3.15789" fill="#F8CC46"/>
<rect x="31.5791" y="44.2105" width="3.15789" height="3.15789" fill="#F8CC46"/>
<rect x="31.5791" y="50.5263" width="3.15789" height="3.15789" fill="#F8CC46"/>
<rect x="34.7368" y="28.421" width="3.15789" height="3.15789" fill="#F8CC46"/>
<rect x="34.7368" y="37.8947" width="3.15789" height="3.15789" fill="#F8CC46"/>
<rect x="34.7368" y="44.2105" width="3.15789" height="3.15789" fill="#F8CC46"/>
<rect x="34.7368" y="50.5263" width="3.15789" height="3.15789" fill="#F8CC46"/>
<rect x="31.5791" y="31.5789" width="3.15789" height="3.15789" fill="#F8CC46"/>
<rect x="31.5791" y="53.6842" width="3.15789" height="3.15789" fill="#F8CC46"/>
<rect x="34.7368" y="31.5789" width="3.15789" height="3.15789" fill="#F8CC46"/>
<rect x="34.7368" y="53.6842" width="3.15789" height="3.15789" fill="#F8CC46"/>
<rect x="31.5791" y="34.7368" width="3.15789" height="3.15789" fill="#F8CC46"/>
<rect x="31.5791" y="41.0526" width="3.15789" height="3.15789" fill="#F8CC46"/>
<rect x="31.5791" y="47.3684" width="3.15789" height="3.15789" fill="#F8CC46"/>
<rect x="34.7368" y="34.7368" width="3.15789" height="3.15789" fill="#F8CC46"/>
<rect x="34.7368" y="41.0526" width="3.15789" height="3.15789" fill="#F8CC46"/>
<rect x="34.7368" y="47.3684" width="3.15789" height="3.15789" fill="#F8CC46"/>
</svg>
