<svg width="46" height="75" viewBox="0 0 46 75" fill="none" xmlns="http://www.w3.org/2000/svg">
<path fill-rule="evenodd" clip-rule="evenodd" d="M22.8259 29.3479H26.0869H29.3479V32.6088V35.8696H26.0869H22.8259V32.6088V29.3479Z" fill="black"/>
<path fill-rule="evenodd" clip-rule="evenodd" d="M19.5652 22.8262H22.8262H26.0869V26.087H29.3479V29.3479H26.0869H22.8262V32.6088V35.8696H26.0869V39.1305H22.8262H19.5652V35.8696H16.3042V32.6088V29.3479V26.087H19.5652V22.8262Z" fill="#F5F5F5"/>
<rect width="3.26087" height="3.26087" transform="matrix(-1 0 0 1 3.26099 19.5652)" fill="black"/>
<rect width="3.26087" height="3.26087" transform="matrix(-1 0 0 1 42.3914 71.7391)" fill="black"/>
<path fill-rule="evenodd" clip-rule="evenodd" d="M13.0433 0H9.78247V3.26087L6.52173 3.26086V6.52173V6.52173V9.7826V13.0435V16.3043H9.7826V13.0435V9.7826V6.52173V3.26086L13.0433 3.26087V0ZM29.3477 0H32.6085V3.26087L29.3478 3.26086V6.52173V9.7826H26.0869V6.52173V3.26086L29.3477 3.26087V0ZM32.6086 0H35.8695V3.26087L39.1301 3.26086V6.52173V9.7826V13.0435V16.3043H35.8693V13.0435V9.7826V6.52173V3.26086L32.6086 3.26087V0ZM19.5651 9.7826V6.52173V3.26086L16.3043 3.26087V0H13.0435V3.26087L16.3042 3.26086V6.52173V9.7826H19.5651ZM22.8259 0H19.5652V3.26087H22.8259H22.8261H26.0868V0H22.8261H22.8259ZM42.3911 13.0435H39.1303V16.3043V19.5652H42.3911V16.3043V13.0435ZM39.1303 19.5652H42.3911H45.652V22.8261V26.087V29.3478V32.6087V35.8696V39.1304V42.3913V45.6522V48.913V52.1739V55.4348H42.3911V52.1739V48.913V45.6522V42.3913V39.1304V35.8696V32.6087V29.3478V26.087L42.3911 22.8261H39.1303V19.5652ZM42.3911 61.9565V58.6957V55.4348H45.652V58.6957V61.9565V65.2174V68.4783V71.7391L42.3912 71.7391V75H39.1304V71.7391L42.3911 71.7391V68.4783V65.2174V61.9565ZM35.8695 71.7391H39.1303V75H35.8695H35.8694H32.6086V71.7391H35.8694H35.8695ZM32.6085 71.7391H29.3478H29.3477H26.0869V75H29.3477H29.3478H32.6085V71.7391ZM26.0868 71.7391H22.8261H22.8259H19.5652V75H22.8259H22.8261H26.0868V71.7391ZM3.26087 71.7391L6.52161 71.7391V75H3.26074V71.7391L0 71.7391V68.4783V65.2174V61.9565V58.6957V55.4348H3.26087V58.6957V61.9565V65.2174V68.4783V71.7391ZM16.3043 71.7391H19.5651V75H16.3043H16.3042H13.0435V71.7391H16.3042H16.3043ZM9.7826 71.7391H13.0433V75H9.7826H9.78247H6.52173V71.7391H9.78247H9.7826ZM3.26074 13.0435H6.52161V16.3043V19.5652H3.26074V16.3043V13.0435ZM3.26087 19.5652H6.52161V22.8261H3.26087V26.087V29.3478V32.6087V35.8696V39.1304V42.3913V45.6522V48.913V52.1739V55.4348H0V52.1739V48.913V45.6522V42.3913V39.1304V35.8696V32.6087V29.3478V26.087V22.8261V19.5652H3.26074H3.26087Z" fill="black"/>
<path fill-rule="evenodd" clip-rule="evenodd" d="M32.6086 3.26086H29.3477V6.52173V9.78259H26.0869V6.52173V3.26086H22.8259H19.5652V6.52173V9.78259H16.3042L16.3044 6.52173V3.26086H13.0435H9.78247V6.52173V9.78259V13.0435V16.3043H6.52173V19.5652V22.8261H3.26074V26.087V29.3478V32.6087V35.8696V39.1304V42.3913V45.6522V48.913V52.1739V55.4348V58.6957V61.9565V65.2174V68.4783V71.7391H6.52173H9.78247H13.0435H16.3042H19.5652H22.8259H26.0869H29.3477H32.6086H35.8696H39.1304H42.3914V68.4783V65.2174V61.9565V58.6957V55.4348V52.1739V48.913V45.6522V42.3913V39.1304V35.8696V32.6087V29.3478V26.087V22.8261H39.1304V19.5652V16.3043H35.8696V13.0435V9.78259V6.52173V3.26086H32.6086ZM19.5652 39.1304V35.8696H16.3042L16.3044 32.6087V29.3478L16.3042 26.087H19.5652V22.8261H22.8259H26.0869V26.087H29.3479L29.3477 29.3478V32.6087V35.8696H26.0869V39.1304H22.8259H19.5652Z" fill="#6029F5"/>
</svg>
