<svg width="746" height="360" viewBox="0 0 746 360" fill="none" xmlns="http://www.w3.org/2000/svg">
<rect x="228" y="43" width="10" height="10" fill="#F8CC46"/>
<rect x="577" y="94" width="10" height="10" fill="#79EAEE"/>
<rect x="60" y="302" width="10" height="10" fill="#6029F5"/>
<rect x="639" y="272" width="10" height="10" fill="#F8CC46"/>
<path d="M404.279 73.0567L401.026 73.7827L397.396 57.5162L400.649 56.7902L399.923 53.5369L403.176 52.8109L402.45 49.5576L412.21 47.3795L412.936 50.6328L416.19 49.9068L416.916 53.1601L413.662 53.8861L412.936 50.6328L403.176 52.8109L403.902 56.0642L400.649 56.7902L404.279 73.0567L407.533 72.3307L408.259 75.584L418.018 73.406L417.292 70.1527L420.546 69.4267L421.272 72.68L418.018 73.406L418.744 76.6593L408.985 78.8373L408.259 75.584L405.005 76.31L404.279 73.0567ZM420.156 52.4369L423.41 51.7109L422.684 48.4576L425.937 47.7316L425.211 44.4783L434.971 42.3003L435.697 45.5536L438.95 44.8276L439.676 48.0809L442.929 47.3549L446.56 63.6214L443.306 64.3474L444.032 67.6007L440.779 68.3267L441.505 71.58L431.745 73.7581L431.019 70.5048L427.766 71.2308L427.04 67.9775L423.786 68.7035L420.156 52.4369ZM426.663 50.9849L423.41 51.7109L427.04 67.9775L430.293 67.2515L431.019 70.5048L440.779 68.3267L440.053 65.0734L443.306 64.3474L439.676 48.0809L436.423 48.8069L435.697 45.5536L425.937 47.7316L426.663 50.9849ZM446.195 46.626L449.449 45.9L448.723 42.6467L451.976 41.9207L451.25 38.6674L461.01 36.4893L461.736 39.7426L464.989 39.0166L465.715 42.2699L468.969 41.5439L472.599 57.8105L469.345 58.5365L470.071 61.7898L466.818 62.5158L467.544 65.7691L457.784 67.9472L457.058 64.6938L453.805 65.4199L453.079 62.1665L449.826 62.8926L446.195 46.626ZM452.702 45.174L449.449 45.9L453.079 62.1665L456.332 61.4405L457.058 64.6938L466.818 62.5158L466.092 59.2625L469.345 58.5365L465.715 42.2699L462.462 42.996L461.736 39.7426L451.976 41.9207L452.702 45.174ZM479.844 59.6089L496.111 55.9789L496.837 59.2322L477.317 63.5882L470.783 34.3085L474.036 33.5825L479.844 59.6089Z" fill="#F8CC46"/>
<path d="M401.026 73.7827L400.05 74.0005L400.268 74.9765L401.244 74.7587L401.026 73.7827ZM397.396 57.5162L397.178 56.5402L396.202 56.758L396.42 57.734L397.396 57.5162ZM400.649 56.7902L400.867 57.7662L401.843 57.5484L401.625 56.5724L400.649 56.7902ZM399.923 53.5369L399.705 52.5609L398.729 52.7787L398.947 53.7547L399.923 53.5369ZM403.176 52.8109L403.394 53.7869L404.37 53.569L404.152 52.5931L403.176 52.8109ZM402.45 49.5576L402.233 48.5816L401.257 48.7994L401.474 49.7754L402.45 49.5576ZM412.21 47.3795L413.186 47.1617L412.969 46.1857L411.993 46.4035L412.21 47.3795ZM412.936 50.6328L411.96 50.8506L412.178 51.8266L413.154 51.6088L412.936 50.6328ZM416.19 49.9068L417.166 49.689L416.948 48.713L415.972 48.9308L416.19 49.9068ZM416.916 53.1601L417.133 54.1361L418.109 53.9183L417.892 52.9423L416.916 53.1601ZM413.662 53.8861L412.686 54.1039L412.904 55.0799L413.88 54.8621L413.662 53.8861ZM412.936 50.6328L413.912 50.415L413.695 49.439L412.719 49.6568L412.936 50.6328ZM403.176 52.8109L402.959 51.8349L401.983 52.0527L402.2 53.0287L403.176 52.8109ZM403.902 56.0642L404.12 57.0402L405.096 56.8224L404.878 55.8464L403.902 56.0642ZM400.649 56.7902L400.431 55.8142L399.455 56.032L399.673 57.008L400.649 56.7902ZM407.533 72.3307L408.509 72.1129L408.291 71.1369L407.315 71.3547L407.533 72.3307ZM408.259 75.584L407.283 75.8018L407.5 76.7778L408.476 76.56L408.259 75.584ZM418.018 73.406L418.236 74.382L419.212 74.1642L418.994 73.1882L418.018 73.406ZM417.292 70.1527L417.075 69.1767L416.099 69.3945L416.316 70.3705L417.292 70.1527ZM420.546 69.4267L421.522 69.2089L421.304 68.2329L420.328 68.4507L420.546 69.4267ZM421.272 72.68L421.49 73.656L422.466 73.4382L422.248 72.4622L421.272 72.68ZM418.018 73.406L417.801 72.43L416.825 72.6478L417.042 73.6238L418.018 73.406ZM418.744 76.6593L418.962 77.6353L419.938 77.4175L419.72 76.4415L418.744 76.6593ZM408.985 78.8373L408.009 79.0551L408.226 80.0311L409.202 79.8133L408.985 78.8373ZM408.259 75.584L409.235 75.3662L409.017 74.3902L408.041 74.608L408.259 75.584ZM405.005 76.31L404.029 76.5278L404.247 77.5038L405.223 77.286L405.005 76.31ZM404.061 72.0807L400.808 72.8067L401.244 74.7587L404.497 74.0327L404.061 72.0807ZM402.002 73.5649L398.372 57.2984L396.42 57.734L400.05 74.0005L402.002 73.5649ZM397.614 58.4922L400.867 57.7662L400.431 55.8142L397.178 56.5402L397.614 58.4922ZM401.625 56.5724L400.899 53.3191L398.947 53.7547L399.673 57.008L401.625 56.5724ZM400.141 54.5129L403.394 53.7869L402.959 51.8349L399.705 52.5609L400.141 54.5129ZM404.152 52.5931L403.426 49.3397L401.474 49.7754L402.2 53.0287L404.152 52.5931ZM402.668 50.5335L412.428 48.3555L411.993 46.4035L402.233 48.5816L402.668 50.5335ZM411.234 47.5973L411.96 50.8506L413.912 50.415L413.186 47.1617L411.234 47.5973ZM413.154 51.6088L416.407 50.8828L415.972 48.9308L412.719 49.6568L413.154 51.6088ZM415.214 50.1246L415.94 53.3779L417.892 52.9423L417.166 49.689L415.214 50.1246ZM416.698 52.1841L413.445 52.9101L413.88 54.8621L417.133 54.1361L416.698 52.1841ZM414.638 53.6683L413.912 50.415L411.96 50.8506L412.686 54.1039L414.638 53.6683ZM412.719 49.6568L402.959 51.8349L403.394 53.7869L413.154 51.6088L412.719 49.6568ZM402.2 53.0287L402.926 56.282L404.878 55.8464L404.152 52.5931L402.2 53.0287ZM403.685 55.0882L400.431 55.8142L400.867 57.7662L404.12 57.0402L403.685 55.0882ZM399.673 57.008L403.303 73.2745L405.255 72.8389L401.625 56.5724L399.673 57.008ZM404.497 74.0327L407.75 73.3067L407.315 71.3547L404.061 72.0807L404.497 74.0327ZM406.557 72.5485L407.283 75.8018L409.235 75.3662L408.509 72.1129L406.557 72.5485ZM408.476 76.56L418.236 74.382L417.801 72.43L408.041 74.608L408.476 76.56ZM418.994 73.1882L418.268 69.9349L416.316 70.3705L417.042 73.6238L418.994 73.1882ZM417.51 71.1287L420.764 70.4027L420.328 68.4507L417.075 69.1767L417.51 71.1287ZM419.57 69.6445L420.296 72.8978L422.248 72.4622L421.522 69.2089L419.57 69.6445ZM421.054 71.704L417.801 72.43L418.236 74.382L421.49 73.656L421.054 71.704ZM417.042 73.6238L417.768 76.8771L419.72 76.4415L418.994 73.1882L417.042 73.6238ZM418.527 75.6833L408.767 77.8613L409.202 79.8133L418.962 77.6353L418.527 75.6833ZM409.961 78.6195L409.235 75.3662L407.283 75.8018L408.009 79.0551L409.961 78.6195ZM408.041 74.608L404.787 75.334L405.223 77.286L408.476 76.56L408.041 74.608ZM405.981 76.0922L405.255 72.8389L403.303 73.2745L404.029 76.5278L405.981 76.0922ZM420.156 52.4369L419.938 51.461L418.962 51.6788L419.18 52.6548L420.156 52.4369ZM423.41 51.7109L423.627 52.6869L424.603 52.4691L424.386 51.4931L423.41 51.7109ZM422.684 48.4576L422.466 47.4816L421.49 47.6994L421.708 48.6754L422.684 48.4576ZM425.937 47.7316L426.155 48.7076L427.131 48.4898L426.913 47.5138L425.937 47.7316ZM425.211 44.4783L424.993 43.5023L424.017 43.7201L424.235 44.6961L425.211 44.4783ZM434.971 42.3003L435.947 42.0825L435.729 41.1065L434.753 41.3243L434.971 42.3003ZM435.697 45.5536L434.721 45.7714L434.939 46.7474L435.915 46.5296L435.697 45.5536ZM438.95 44.8276L439.926 44.6098L439.708 43.6338L438.732 43.8516L438.95 44.8276ZM439.676 48.0809L438.7 48.2987L438.918 49.2747L439.894 49.0569L439.676 48.0809ZM442.929 47.3549L443.905 47.1371L443.688 46.1611L442.712 46.3789L442.929 47.3549ZM446.56 63.6214L446.777 64.5974L447.753 64.3796L447.536 63.4036L446.56 63.6214ZM443.306 64.3474L443.088 63.3714L442.112 63.5892L442.33 64.5652L443.306 64.3474ZM444.032 67.6007L444.25 68.5767L445.226 68.3589L445.008 67.3829L444.032 67.6007ZM440.779 68.3267L440.561 67.3507L439.585 67.5686L439.803 68.5445L440.779 68.3267ZM441.505 71.58L441.723 72.556L442.699 72.3382L442.481 71.3622L441.505 71.58ZM431.745 73.7581L430.769 73.9759L430.987 74.9519L431.963 74.7341L431.745 73.7581ZM431.019 70.5048L431.995 70.287L431.777 69.311L430.801 69.5288L431.019 70.5048ZM427.766 71.2308L426.79 71.4486L427.007 72.4246L427.983 72.2068L427.766 71.2308ZM427.04 67.9775L428.016 67.7597L427.798 66.7837L426.822 67.0015L427.04 67.9775ZM423.786 68.7035L422.81 68.9213L423.028 69.8973L424.004 69.6795L423.786 68.7035ZM426.663 50.9849L426.881 51.9609L427.857 51.7431L427.639 50.7671L426.663 50.9849ZM423.41 51.7109L423.192 50.7349L422.216 50.9527L422.434 51.9287L423.41 51.7109ZM427.04 67.9775L426.064 68.1953L426.281 69.1713L427.257 68.9535L427.04 67.9775ZM430.293 67.2515L431.269 67.0337L431.051 66.0577L430.075 66.2755L430.293 67.2515ZM431.019 70.5048L430.043 70.7226L430.261 71.6986L431.237 71.4808L431.019 70.5048ZM440.779 68.3267L440.997 69.3027L441.973 69.0849L441.755 68.1089L440.779 68.3267ZM440.053 65.0734L439.835 64.0974L438.859 64.3152L439.077 65.2912L440.053 65.0734ZM443.306 64.3474L443.524 65.3234L444.5 65.1056L444.282 64.1296L443.306 64.3474ZM439.676 48.0809L440.652 47.8631L440.434 46.8871L439.458 47.1049L439.676 48.0809ZM436.423 48.8069L435.447 49.0247L435.665 50.0007L436.641 49.7829L436.423 48.8069ZM435.697 45.5536L436.673 45.3358L436.455 44.3598L435.479 44.5776L435.697 45.5536ZM425.937 47.7316L425.719 46.7556L424.743 46.9734L424.961 47.9494L425.937 47.7316ZM420.374 53.4129L423.627 52.6869L423.192 50.7349L419.938 51.461L420.374 53.4129ZM424.386 51.4931L423.66 48.2398L421.708 48.6754L422.434 51.9287L424.386 51.4931ZM422.901 49.4336L426.155 48.7076L425.719 46.7556L422.466 47.4816L422.901 49.4336ZM426.913 47.5138L426.187 44.2605L424.235 44.6961L424.961 47.9494L426.913 47.5138ZM425.429 45.4543L435.189 43.2763L434.753 41.3243L424.993 43.5023L425.429 45.4543ZM433.995 42.5181L434.721 45.7714L436.673 45.3358L435.947 42.0825L433.995 42.5181ZM435.915 46.5296L439.168 45.8036L438.732 43.8516L435.479 44.5776L435.915 46.5296ZM437.974 45.0454L438.7 48.2987L440.652 47.8631L439.926 44.6098L437.974 45.0454ZM439.894 49.0569L443.147 48.3309L442.712 46.3789L439.458 47.1049L439.894 49.0569ZM441.953 47.5727L445.584 63.8392L447.536 63.4036L443.905 47.1371L441.953 47.5727ZM446.342 62.6454L443.088 63.3714L443.524 65.3234L446.777 64.5974L446.342 62.6454ZM442.33 64.5652L443.056 67.8185L445.008 67.3829L444.282 64.1296L442.33 64.5652ZM443.814 66.6247L440.561 67.3507L440.997 69.3027L444.25 68.5767L443.814 66.6247ZM439.803 68.5445L440.529 71.7979L442.481 71.3622L441.755 68.1089L439.803 68.5445ZM441.287 70.6041L431.527 72.7821L431.963 74.7341L441.723 72.556L441.287 70.6041ZM432.721 73.5403L431.995 70.287L430.043 70.7226L430.769 73.9759L432.721 73.5403ZM430.801 69.5288L427.548 70.2548L427.983 72.2068L431.237 71.4808L430.801 69.5288ZM428.742 71.013L428.016 67.7597L426.064 68.1953L426.79 71.4486L428.742 71.013ZM426.822 67.0015L423.569 67.7275L424.004 69.6795L427.257 68.9535L426.822 67.0015ZM424.762 68.4857L421.132 52.2191L419.18 52.6548L422.81 68.9213L424.762 68.4857ZM426.445 50.0089L423.192 50.7349L423.627 52.6869L426.881 51.9609L426.445 50.0089ZM422.434 51.9287L426.064 68.1953L428.016 67.7597L424.386 51.4931L422.434 51.9287ZM427.257 68.9535L430.511 68.2275L430.075 66.2755L426.822 67.0015L427.257 68.9535ZM429.317 67.4693L430.043 70.7226L431.995 70.287L431.269 67.0337L429.317 67.4693ZM431.237 71.4808L440.997 69.3027L440.561 67.3507L430.801 69.5288L431.237 71.4808ZM441.755 68.1089L441.029 64.8556L439.077 65.2912L439.803 68.5445L441.755 68.1089ZM440.271 66.0494L443.524 65.3234L443.088 63.3714L439.835 64.0974L440.271 66.0494ZM444.282 64.1296L440.652 47.8631L438.7 48.2987L442.33 64.5652L444.282 64.1296ZM439.458 47.1049L436.205 47.8309L436.641 49.7829L439.894 49.0569L439.458 47.1049ZM437.399 48.5891L436.673 45.3358L434.721 45.7714L435.447 49.0247L437.399 48.5891ZM435.479 44.5776L425.719 46.7556L426.155 48.7076L435.915 46.5296L435.479 44.5776ZM424.961 47.9494L425.687 51.2027L427.639 50.7671L426.913 47.5138L424.961 47.9494ZM446.195 46.626L445.978 45.65L445.002 45.8678L445.219 46.8438L446.195 46.626ZM449.449 45.9L449.667 46.876L450.643 46.6582L450.425 45.6822L449.449 45.9ZM448.723 42.6467L448.505 41.6707L447.529 41.8885L447.747 42.8645L448.723 42.6467ZM451.976 41.9207L452.194 42.8967L453.17 42.6789L452.952 41.7029L451.976 41.9207ZM451.25 38.6674L451.032 37.6914L450.056 37.9092L450.274 38.8852L451.25 38.6674ZM461.01 36.4893L461.986 36.2715L461.768 35.2955L460.792 35.5133L461.01 36.4893ZM461.736 39.7426L460.76 39.9605L460.978 40.9364L461.954 40.7186L461.736 39.7426ZM464.989 39.0166L465.965 38.7988L465.747 37.8228L464.772 38.0406L464.989 39.0166ZM465.715 42.2699L464.739 42.4878L464.957 43.4637L465.933 43.2459L465.715 42.2699ZM468.969 41.5439L469.945 41.3261L469.727 40.3501L468.751 40.5679L468.969 41.5439ZM472.599 57.8105L472.816 58.7865L473.792 58.5687L473.575 57.5927L472.599 57.8105ZM469.345 58.5365L469.128 57.5605L468.152 57.7783L468.369 58.7543L469.345 58.5365ZM470.071 61.7898L470.289 62.7658L471.265 62.548L471.047 61.572L470.071 61.7898ZM466.818 62.5158L466.6 61.5398L465.624 61.7576L465.842 62.7336L466.818 62.5158ZM467.544 65.7691L467.762 66.7451L468.738 66.5273L468.52 65.5513L467.544 65.7691ZM457.784 67.9472L456.808 68.165L457.026 69.141L458.002 68.9231L457.784 67.9472ZM457.058 64.6938L458.034 64.476L457.816 63.5001L456.84 63.7179L457.058 64.6938ZM453.805 65.4199L452.829 65.6377L453.047 66.6137L454.023 66.3959L453.805 65.4199ZM453.079 62.1665L454.055 61.9487L453.837 60.9728L452.861 61.1906L453.079 62.1665ZM449.826 62.8926L448.85 63.1104L449.067 64.0864L450.043 63.8686L449.826 62.8926ZM452.702 45.174L452.92 46.15L453.896 45.9322L453.678 44.9562L452.702 45.174ZM449.449 45.9L449.231 44.924L448.255 45.1418L448.473 46.1178L449.449 45.9ZM453.079 62.1665L452.103 62.3844L452.321 63.3603L453.297 63.1425L453.079 62.1665ZM456.332 61.4405L457.308 61.2227L457.09 60.2467L456.114 60.4645L456.332 61.4405ZM457.058 64.6938L456.082 64.9116L456.3 65.8876L457.276 65.6698L457.058 64.6938ZM466.818 62.5158L467.036 63.4918L468.012 63.274L467.794 62.298L466.818 62.5158ZM466.092 59.2625L465.874 58.2865L464.898 58.5043L465.116 59.4803L466.092 59.2625ZM469.345 58.5365L469.563 59.5125L470.539 59.2947L470.321 58.3187L469.345 58.5365ZM465.715 42.2699L466.691 42.0521L466.474 41.0762L465.498 41.294L465.715 42.2699ZM462.462 42.996L461.486 43.2138L461.704 44.1898L462.68 43.972L462.462 42.996ZM461.736 39.7426L462.712 39.5248L462.494 38.5489L461.518 38.7667L461.736 39.7426ZM451.976 41.9207L451.758 40.9447L450.782 41.1625L451 42.1385L451.976 41.9207ZM446.413 47.602L449.667 46.876L449.231 44.924L445.978 45.65L446.413 47.602ZM450.425 45.6822L449.699 42.4289L447.747 42.8645L448.473 46.1178L450.425 45.6822ZM448.941 43.6227L452.194 42.8967L451.758 40.9447L448.505 41.6707L448.941 43.6227ZM452.952 41.7029L452.226 38.4496L450.274 38.8852L451 42.1385L452.952 41.7029ZM451.468 39.6434L461.228 37.4653L460.792 35.5133L451.032 37.6914L451.468 39.6434ZM460.034 36.7071L460.76 39.9605L462.712 39.5248L461.986 36.2715L460.034 36.7071ZM461.954 40.7186L465.207 39.9926L464.772 38.0406L461.518 38.7667L461.954 40.7186ZM464.013 39.2344L464.739 42.4878L466.691 42.0521L465.965 38.7988L464.013 39.2344ZM465.933 43.2459L469.186 42.5199L468.751 40.5679L465.498 41.294L465.933 43.2459ZM467.993 41.7617L471.623 58.0283L473.575 57.5927L469.945 41.3261L467.993 41.7617ZM472.381 56.8345L469.128 57.5605L469.563 59.5125L472.816 58.7865L472.381 56.8345ZM468.369 58.7543L469.095 62.0076L471.047 61.572L470.321 58.3187L468.369 58.7543ZM469.854 60.8138L466.6 61.5398L467.036 63.4918L470.289 62.7658L469.854 60.8138ZM465.842 62.7336L466.568 65.9869L468.52 65.5513L467.794 62.298L465.842 62.7336ZM467.326 64.7931L457.566 66.9712L458.002 68.9231L467.762 66.7451L467.326 64.7931ZM458.76 67.7294L458.034 64.476L456.082 64.9116L456.808 68.165L458.76 67.7294ZM456.84 63.7179L453.587 64.4439L454.023 66.3959L457.276 65.6698L456.84 63.7179ZM454.781 65.2021L454.055 61.9487L452.103 62.3844L452.829 65.6377L454.781 65.2021ZM452.861 61.1906L449.608 61.9166L450.043 63.8686L453.297 63.1425L452.861 61.1906ZM450.802 62.6748L447.171 46.4082L445.219 46.8438L448.85 63.1104L450.802 62.6748ZM452.484 44.198L449.231 44.924L449.667 46.876L452.92 46.15L452.484 44.198ZM448.473 46.1178L452.103 62.3844L454.055 61.9487L450.425 45.6822L448.473 46.1178ZM453.297 63.1425L456.55 62.4165L456.114 60.4645L452.861 61.1906L453.297 63.1425ZM455.356 61.6583L456.082 64.9116L458.034 64.476L457.308 61.2227L455.356 61.6583ZM457.276 65.6698L467.036 63.4918L466.6 61.5398L456.84 63.7179L457.276 65.6698ZM467.794 62.298L467.068 59.0447L465.116 59.4803L465.842 62.7336L467.794 62.298ZM466.31 60.2385L469.563 59.5125L469.128 57.5605L465.874 58.2865L466.31 60.2385ZM470.321 58.3187L466.691 42.0521L464.739 42.4878L468.369 58.7543L470.321 58.3187ZM465.498 41.294L462.244 42.02L462.68 43.972L465.933 43.2459L465.498 41.294ZM463.438 42.7782L462.712 39.5248L460.76 39.9605L461.486 43.2138L463.438 42.7782ZM461.518 38.7667L451.758 40.9447L452.194 42.8967L461.954 40.7186L461.518 38.7667ZM451 42.1385L451.726 45.3918L453.678 44.9562L452.952 41.7029L451 42.1385ZM479.844 59.6089L478.868 59.8267L479.086 60.8027L480.062 60.5849L479.844 59.6089ZM496.111 55.9789L497.087 55.7611L496.869 54.7851L495.893 55.0029L496.111 55.9789ZM496.837 59.2322L497.054 60.2082L498.03 59.9904L497.813 59.0144L496.837 59.2322ZM477.317 63.5882L476.341 63.8061L476.559 64.782L477.535 64.5642L477.317 63.5882ZM470.783 34.3085L470.565 33.3325L469.589 33.5503L469.807 34.5263L470.783 34.3085ZM474.036 33.5825L475.012 33.3647L474.794 32.3887L473.818 32.6065L474.036 33.5825ZM480.062 60.5849L496.328 56.9549L495.893 55.0029L479.626 58.6329L480.062 60.5849ZM495.135 56.1967L495.861 59.45L497.813 59.0144L497.087 55.7611L495.135 56.1967ZM496.619 58.2562L477.099 62.6123L477.535 64.5642L497.054 60.2082L496.619 58.2562ZM478.293 63.3704L471.759 34.0907L469.807 34.5263L476.341 63.8061L478.293 63.3704ZM471 35.2845L474.254 34.5585L473.818 32.6065L470.565 33.3325L471 35.2845ZM473.06 33.8003L478.868 59.8267L480.82 59.3911L475.012 33.3647L473.06 33.8003Z" fill="#F8CC46"/>
<path d="M107.065 243.494L104.042 242.089L111.067 226.975L114.09 228.38L115.495 225.357L118.518 226.762L119.923 223.74L128.991 227.955L127.586 230.978L130.609 232.383L129.204 235.406L126.181 234L127.586 230.978L118.518 226.762L117.113 229.785L114.09 228.38L107.065 243.494L110.087 244.899L108.682 247.921L117.75 252.137L119.156 249.114L122.178 250.519L120.773 253.542L117.75 252.137L116.345 255.159L107.277 250.944L108.682 247.921L105.66 246.516L107.065 243.494ZM132.215 236.805L135.237 238.21L136.642 235.188L139.665 236.593L141.07 233.57L150.138 237.785L148.733 240.808L151.756 242.213L150.351 245.236L153.374 246.641L146.348 261.755L143.325 260.349L141.92 263.372L138.898 261.967L137.492 264.99L128.424 260.774L129.829 257.752L126.807 256.347L128.212 253.324L125.189 251.919L132.215 236.805ZM138.26 239.615L135.237 238.21L128.212 253.324L131.235 254.729L129.829 257.752L138.898 261.967L140.303 258.944L143.325 260.349L150.351 245.236L147.328 243.831L148.733 240.808L139.665 236.593L138.26 239.615ZM156.408 248.052L159.431 249.457L160.836 246.434L163.859 247.839L165.264 244.816L174.332 249.032L172.927 252.054L175.95 253.459L174.544 256.482L177.567 257.887L170.542 273.001L167.519 271.596L166.114 274.618L163.091 273.213L161.686 276.236L152.618 272.021L154.023 268.998L151 267.593L152.405 264.57L149.383 263.165L156.408 248.052ZM162.454 250.862L159.431 249.457L152.405 264.57L155.428 265.975L154.023 268.998L163.091 273.213L164.496 270.191L167.519 271.596L174.544 256.482L171.522 255.077L172.927 252.054L163.859 247.839L162.454 250.862ZM175.194 278.839L190.307 285.865L188.902 288.888L170.766 280.457L183.412 253.252L186.435 254.658L175.194 278.839Z" fill="#79EAEE"/>
<path d="M104.042 242.089L103.135 241.667L102.714 242.574L103.62 242.995L104.042 242.089ZM111.067 226.975L111.489 226.068L110.582 225.647L110.161 226.553L111.067 226.975ZM114.09 228.38L113.669 229.287L114.575 229.708L114.997 228.802L114.09 228.38ZM115.495 225.357L115.917 224.451L115.01 224.029L114.588 224.936L115.495 225.357ZM118.518 226.762L118.096 227.669L119.003 228.091L119.425 227.184L118.518 226.762ZM119.923 223.74L120.345 222.833L119.438 222.411L119.016 223.318L119.923 223.74ZM128.991 227.955L129.898 228.377L130.32 227.47L129.413 227.048L128.991 227.955ZM127.586 230.978L126.679 230.556L126.258 231.463L127.165 231.885L127.586 230.978ZM130.609 232.383L131.516 232.804L131.937 231.898L131.03 231.476L130.609 232.383ZM129.204 235.406L128.782 236.312L129.689 236.734L130.111 235.827L129.204 235.406ZM126.181 234L125.274 233.579L124.853 234.486L125.76 234.907L126.181 234ZM127.586 230.978L128.493 231.399L128.915 230.492L128.008 230.071L127.586 230.978ZM118.518 226.762L118.94 225.856L118.033 225.434L117.611 226.341L118.518 226.762ZM117.113 229.785L116.691 230.692L117.598 231.114L118.02 230.207L117.113 229.785ZM114.09 228.38L114.512 227.473L113.605 227.052L113.183 227.959L114.09 228.38ZM110.087 244.899L110.994 245.32L111.416 244.413L110.509 243.992L110.087 244.899ZM108.682 247.921L107.775 247.5L107.354 248.407L108.261 248.828L108.682 247.921ZM117.75 252.137L117.329 253.044L118.236 253.465L118.657 252.558L117.75 252.137ZM119.156 249.114L119.577 248.207L118.67 247.786L118.249 248.693L119.156 249.114ZM122.178 250.519L123.085 250.941L123.507 250.034L122.6 249.612L122.178 250.519ZM120.773 253.542L120.352 254.449L121.258 254.87L121.68 253.963L120.773 253.542ZM117.75 252.137L118.172 251.23L117.265 250.808L116.844 251.715L117.75 252.137ZM116.345 255.159L115.924 256.066L116.831 256.488L117.252 255.581L116.345 255.159ZM107.277 250.944L106.37 250.523L105.949 251.429L106.856 251.851L107.277 250.944ZM108.682 247.921L109.589 248.343L110.011 247.436L109.104 247.015L108.682 247.921ZM105.66 246.516L104.753 246.095L104.331 247.002L105.238 247.423L105.66 246.516ZM107.486 242.587L104.463 241.182L103.62 242.995L106.643 244.4L107.486 242.587ZM104.949 242.51L111.974 227.396L110.161 226.553L103.135 241.667L104.949 242.51ZM110.646 227.882L113.669 229.287L114.512 227.473L111.489 226.068L110.646 227.882ZM114.997 228.802L116.402 225.779L114.588 224.936L113.183 227.959L114.997 228.802ZM115.074 226.264L118.096 227.669L118.94 225.856L115.917 224.451L115.074 226.264ZM119.425 227.184L120.83 224.161L119.016 223.318L117.611 226.341L119.425 227.184ZM119.502 224.647L128.57 228.862L129.413 227.048L120.345 222.833L119.502 224.647ZM128.084 227.534L126.679 230.556L128.493 231.399L129.898 228.377L128.084 227.534ZM127.165 231.885L130.187 233.29L131.03 231.476L128.008 230.071L127.165 231.885ZM129.702 231.961L128.297 234.984L130.111 235.827L131.516 232.804L129.702 231.961ZM129.625 234.499L126.603 233.094L125.76 234.907L128.782 236.312L129.625 234.499ZM127.088 234.422L128.493 231.399L126.679 230.556L125.274 233.579L127.088 234.422ZM128.008 230.071L118.94 225.856L118.096 227.669L127.165 231.885L128.008 230.071ZM117.611 226.341L116.206 229.364L118.02 230.207L119.425 227.184L117.611 226.341ZM117.534 228.878L114.512 227.473L113.669 229.287L116.691 230.692L117.534 228.878ZM113.183 227.959L106.158 243.072L107.971 243.915L114.997 228.802L113.183 227.959ZM106.643 244.4L109.666 245.806L110.509 243.992L107.486 242.587L106.643 244.4ZM109.181 244.477L107.775 247.5L109.589 248.343L110.994 245.32L109.181 244.477ZM108.261 248.828L117.329 253.044L118.172 251.23L109.104 247.015L108.261 248.828ZM118.657 252.558L120.062 249.536L118.249 248.693L116.844 251.715L118.657 252.558ZM118.734 250.021L121.757 251.426L122.6 249.612L119.577 248.207L118.734 250.021ZM121.271 250.098L119.866 253.12L121.68 253.963L123.085 250.941L121.271 250.098ZM121.195 252.635L118.172 251.23L117.329 253.044L120.352 254.449L121.195 252.635ZM116.844 251.715L115.438 254.738L117.252 255.581L118.657 252.558L116.844 251.715ZM116.767 254.253L107.699 250.037L106.856 251.851L115.924 256.066L116.767 254.253ZM108.184 251.366L109.589 248.343L107.775 247.5L106.37 250.523L108.184 251.366ZM109.104 247.015L106.081 245.61L105.238 247.423L108.261 248.828L109.104 247.015ZM106.566 246.938L107.971 243.915L106.158 243.072L104.753 246.095L106.566 246.938ZM132.215 236.805L132.636 235.898L131.729 235.477L131.308 236.384L132.215 236.805ZM135.237 238.21L134.816 239.117L135.723 239.539L136.144 238.632L135.237 238.21ZM136.642 235.188L137.064 234.281L136.157 233.859L135.736 234.766L136.642 235.188ZM139.665 236.593L139.244 237.5L140.15 237.921L140.572 237.014L139.665 236.593ZM141.07 233.57L141.492 232.663L140.585 232.242L140.163 233.148L141.07 233.57ZM150.138 237.785L151.045 238.207L151.467 237.3L150.56 236.879L150.138 237.785ZM148.733 240.808L147.827 240.386L147.405 241.293L148.312 241.715L148.733 240.808ZM151.756 242.213L152.663 242.635L153.084 241.728L152.178 241.306L151.756 242.213ZM150.351 245.236L149.444 244.814L149.023 245.721L149.929 246.143L150.351 245.236ZM153.374 246.641L154.28 247.062L154.702 246.156L153.795 245.734L153.374 246.641ZM146.348 261.755L145.927 262.661L146.833 263.083L147.255 262.176L146.348 261.755ZM143.325 260.349L143.747 259.443L142.84 259.021L142.419 259.928L143.325 260.349ZM141.92 263.372L141.499 264.279L142.406 264.7L142.827 263.794L141.92 263.372ZM138.898 261.967L139.319 261.06L138.412 260.639L137.991 261.545L138.898 261.967ZM137.492 264.99L137.071 265.897L137.978 266.318L138.399 265.411L137.492 264.99ZM128.424 260.774L127.518 260.353L127.096 261.26L128.003 261.681L128.424 260.774ZM129.829 257.752L130.736 258.173L131.158 257.266L130.251 256.845L129.829 257.752ZM126.807 256.347L125.9 255.925L125.478 256.832L126.385 257.253L126.807 256.347ZM128.212 253.324L129.119 253.745L129.54 252.839L128.633 252.417L128.212 253.324ZM125.189 251.919L124.282 251.497L123.861 252.404L124.768 252.826L125.189 251.919ZM138.26 239.615L137.839 240.522L138.745 240.944L139.167 240.037L138.26 239.615ZM135.237 238.21L135.659 237.304L134.752 236.882L134.331 237.789L135.237 238.21ZM128.212 253.324L127.305 252.902L126.883 253.809L127.79 254.231L128.212 253.324ZM131.235 254.729L132.141 255.151L132.563 254.244L131.656 253.822L131.235 254.729ZM129.829 257.752L128.923 257.33L128.501 258.237L129.408 258.659L129.829 257.752ZM138.898 261.967L138.476 262.874L139.383 263.295L139.804 262.389L138.898 261.967ZM140.303 258.944L140.724 258.037L139.817 257.616L139.396 258.523L140.303 258.944ZM143.325 260.349L142.904 261.256L143.811 261.678L144.232 260.771L143.325 260.349ZM150.351 245.236L151.258 245.657L151.679 244.751L150.772 244.329L150.351 245.236ZM147.328 243.831L146.421 243.409L146 244.316L146.907 244.738L147.328 243.831ZM148.733 240.808L149.64 241.23L150.062 240.323L149.155 239.901L148.733 240.808ZM139.665 236.593L140.087 235.686L139.18 235.264L138.758 236.171L139.665 236.593ZM131.793 237.712L134.816 239.117L135.659 237.304L132.636 235.898L131.793 237.712ZM136.144 238.632L137.549 235.609L135.736 234.766L134.331 237.789L136.144 238.632ZM136.221 236.094L139.244 237.5L140.087 235.686L137.064 234.281L136.221 236.094ZM140.572 237.014L141.977 233.992L140.163 233.148L138.758 236.171L140.572 237.014ZM140.649 234.477L149.717 238.692L150.56 236.879L141.492 232.663L140.649 234.477ZM149.232 237.364L147.827 240.386L149.64 241.23L151.045 238.207L149.232 237.364ZM148.312 241.715L151.335 243.12L152.178 241.306L149.155 239.901L148.312 241.715ZM150.849 241.792L149.444 244.814L151.258 245.657L152.663 242.635L150.849 241.792ZM149.929 246.143L152.952 247.548L153.795 245.734L150.772 244.329L149.929 246.143ZM152.467 246.219L145.441 261.333L147.255 262.176L154.28 247.062L152.467 246.219ZM146.77 260.848L143.747 259.443L142.904 261.256L145.927 262.661L146.77 260.848ZM142.419 259.928L141.013 262.951L142.827 263.794L144.232 260.771L142.419 259.928ZM142.342 262.465L139.319 261.06L138.476 262.874L141.499 264.279L142.342 262.465ZM137.991 261.545L136.586 264.568L138.399 265.411L139.804 262.389L137.991 261.545ZM137.914 264.083L128.846 259.868L128.003 261.681L137.071 265.897L137.914 264.083ZM129.331 261.196L130.736 258.173L128.923 257.33L127.518 260.353L129.331 261.196ZM130.251 256.845L127.228 255.44L126.385 257.253L129.408 258.659L130.251 256.845ZM127.714 256.768L129.119 253.745L127.305 252.902L125.9 255.925L127.714 256.768ZM128.633 252.417L125.611 251.012L124.768 252.826L127.79 254.231L128.633 252.417ZM126.096 252.34L133.121 237.227L131.308 236.384L124.282 251.497L126.096 252.34ZM138.682 238.709L135.659 237.304L134.816 239.117L137.839 240.522L138.682 238.709ZM134.331 237.789L127.305 252.902L129.119 253.745L136.144 238.632L134.331 237.789ZM127.79 254.231L130.813 255.636L131.656 253.822L128.633 252.417L127.79 254.231ZM130.328 254.307L128.923 257.33L130.736 258.173L132.141 255.151L130.328 254.307ZM129.408 258.659L138.476 262.874L139.319 261.06L130.251 256.845L129.408 258.659ZM139.804 262.389L141.21 259.366L139.396 258.523L137.991 261.545L139.804 262.389ZM139.881 259.851L142.904 261.256L143.747 259.443L140.724 258.037L139.881 259.851ZM144.232 260.771L151.258 245.657L149.444 244.814L142.419 259.928L144.232 260.771ZM150.772 244.329L147.75 242.924L146.907 244.738L149.929 246.143L150.772 244.329ZM148.235 244.252L149.64 241.23L147.827 240.386L146.421 243.409L148.235 244.252ZM149.155 239.901L140.087 235.686L139.244 237.5L148.312 241.715L149.155 239.901ZM138.758 236.171L137.353 239.194L139.167 240.037L140.572 237.014L138.758 236.171ZM156.408 248.052L156.83 247.145L155.923 246.723L155.501 247.63L156.408 248.052ZM159.431 249.457L159.009 250.363L159.916 250.785L160.338 249.878L159.431 249.457ZM160.836 246.434L161.258 245.527L160.351 245.106L159.929 246.012L160.836 246.434ZM163.859 247.839L163.437 248.746L164.344 249.167L164.766 248.261L163.859 247.839ZM165.264 244.816L165.685 243.91L164.779 243.488L164.357 244.395L165.264 244.816ZM174.332 249.032L175.239 249.453L175.66 248.546L174.753 248.125L174.332 249.032ZM172.927 252.054L172.02 251.633L171.598 252.54L172.505 252.961L172.927 252.054ZM175.95 253.459L176.856 253.881L177.278 252.974L176.371 252.553L175.95 253.459ZM174.544 256.482L173.638 256.061L173.216 256.967L174.123 257.389L174.544 256.482ZM177.567 257.887L178.474 258.309L178.895 257.402L177.989 256.98L177.567 257.887ZM170.542 273.001L170.12 273.908L171.027 274.329L171.448 273.422L170.542 273.001ZM167.519 271.596L167.94 270.689L167.034 270.267L166.612 271.174L167.519 271.596ZM166.114 274.618L165.692 275.525L166.599 275.947L167.021 275.04L166.114 274.618ZM163.091 273.213L163.513 272.307L162.606 271.885L162.184 272.792L163.091 273.213ZM161.686 276.236L161.264 277.143L162.171 277.564L162.593 276.658L161.686 276.236ZM152.618 272.021L151.711 271.599L151.289 272.506L152.196 272.928L152.618 272.021ZM154.023 268.998L154.93 269.42L155.351 268.513L154.444 268.091L154.023 268.998ZM151 267.593L150.093 267.171L149.672 268.078L150.579 268.5L151 267.593ZM152.405 264.57L153.312 264.992L153.734 264.085L152.827 263.663L152.405 264.57ZM149.383 263.165L148.476 262.744L148.054 263.65L148.961 264.072L149.383 263.165ZM162.454 250.862L162.032 251.769L162.939 252.19L163.36 251.283L162.454 250.862ZM159.431 249.457L159.852 248.55L158.946 248.128L158.524 249.035L159.431 249.457ZM152.405 264.57L151.499 264.149L151.077 265.055L151.984 265.477L152.405 264.57ZM155.428 265.975L156.335 266.397L156.756 265.49L155.85 265.069L155.428 265.975ZM154.023 268.998L153.116 268.577L152.695 269.483L153.601 269.905L154.023 268.998ZM163.091 273.213L162.67 274.12L163.576 274.542L163.998 273.635L163.091 273.213ZM164.496 270.191L164.918 269.284L164.011 268.862L163.589 269.769L164.496 270.191ZM167.519 271.596L167.097 272.503L168.004 272.924L168.426 272.017L167.519 271.596ZM174.544 256.482L175.451 256.904L175.873 255.997L174.966 255.575L174.544 256.482ZM171.522 255.077L170.615 254.656L170.193 255.562L171.1 255.984L171.522 255.077ZM172.927 252.054L173.834 252.476L174.255 251.569L173.348 251.148L172.927 252.054ZM163.859 247.839L164.28 246.932L163.373 246.511L162.952 247.418L163.859 247.839ZM155.987 248.958L159.009 250.363L159.852 248.55L156.83 247.145L155.987 248.958ZM160.338 249.878L161.743 246.855L159.929 246.012L158.524 249.035L160.338 249.878ZM160.414 247.341L163.437 248.746L164.28 246.932L161.258 245.527L160.414 247.341ZM164.766 248.261L166.171 245.238L164.357 244.395L162.952 247.418L164.766 248.261ZM164.842 245.723L173.91 249.938L174.753 248.125L165.685 243.91L164.842 245.723ZM173.425 248.61L172.02 251.633L173.834 252.476L175.239 249.453L173.425 248.61ZM172.505 252.961L175.528 254.366L176.371 252.553L173.348 251.148L172.505 252.961ZM175.043 253.038L173.638 256.061L175.451 256.904L176.856 253.881L175.043 253.038ZM174.123 257.389L177.146 258.794L177.989 256.98L174.966 255.575L174.123 257.389ZM176.66 257.466L169.635 272.579L171.448 273.422L178.474 258.309L176.66 257.466ZM170.963 272.094L167.94 270.689L167.097 272.503L170.12 273.908L170.963 272.094ZM166.612 271.174L165.207 274.197L167.021 275.04L168.426 272.017L166.612 271.174ZM166.535 273.712L163.513 272.307L162.67 274.12L165.692 275.525L166.535 273.712ZM162.184 272.792L160.779 275.815L162.593 276.658L163.998 273.635L162.184 272.792ZM162.108 275.329L153.039 271.114L152.196 272.928L161.264 277.143L162.108 275.329ZM153.525 272.442L154.93 269.42L153.116 268.577L151.711 271.599L153.525 272.442ZM154.444 268.091L151.422 266.686L150.579 268.5L153.601 269.905L154.444 268.091ZM151.907 268.014L153.312 264.992L151.499 264.149L150.093 267.171L151.907 268.014ZM152.827 263.663L149.804 262.258L148.961 264.072L151.984 265.477L152.827 263.663ZM150.289 263.587L157.315 248.473L155.501 247.63L148.476 262.744L150.289 263.587ZM162.875 249.955L159.852 248.55L159.009 250.363L162.032 251.769L162.875 249.955ZM158.524 249.035L151.499 264.149L153.312 264.992L160.338 249.878L158.524 249.035ZM151.984 265.477L155.007 266.882L155.85 265.069L152.827 263.663L151.984 265.477ZM154.521 265.554L153.116 268.577L154.93 269.42L156.335 266.397L154.521 265.554ZM153.601 269.905L162.67 274.12L163.513 272.307L154.444 268.091L153.601 269.905ZM163.998 273.635L165.403 270.612L163.589 269.769L162.184 272.792L163.998 273.635ZM164.075 271.097L167.097 272.503L167.94 270.689L164.918 269.284L164.075 271.097ZM168.426 272.017L175.451 256.904L173.638 256.061L166.612 271.174L168.426 272.017ZM174.966 255.575L171.943 254.17L171.1 255.984L174.123 257.389L174.966 255.575ZM172.429 255.499L173.834 252.476L172.02 251.633L170.615 254.656L172.429 255.499ZM173.348 251.148L164.28 246.932L163.437 248.746L172.505 252.961L173.348 251.148ZM162.952 247.418L161.547 250.44L163.36 251.283L164.766 248.261L162.952 247.418ZM175.194 278.839L174.287 278.418L173.865 279.325L174.772 279.746L175.194 278.839ZM190.307 285.865L191.214 286.286L191.636 285.38L190.729 284.958L190.307 285.865ZM188.902 288.888L188.481 289.794L189.387 290.216L189.809 289.309L188.902 288.888ZM170.766 280.457L169.859 280.035L169.438 280.942L170.344 281.364L170.766 280.457ZM183.412 253.252L183.833 252.346L182.927 251.924L182.505 252.831L183.412 253.252ZM186.435 254.658L187.341 255.079L187.763 254.172L186.856 253.751L186.435 254.658ZM174.772 279.746L189.886 286.772L190.729 284.958L175.615 277.932L174.772 279.746ZM189.4 285.443L187.995 288.466L189.809 289.309L191.214 286.286L189.4 285.443ZM189.324 287.981L171.187 279.55L170.344 281.364L188.481 289.794L189.324 287.981ZM171.673 280.878L184.319 253.674L182.505 252.831L169.859 280.035L171.673 280.878ZM182.99 254.159L186.013 255.564L186.856 253.751L183.833 252.346L182.99 254.159ZM185.528 254.236L174.287 278.418L176.101 279.261L187.341 255.079L185.528 254.236Z" fill="#79EAEE"/>
<rect x="183" y="142" width="10" height="10" fill="#6029F5"/>
<rect width="10" height="10" transform="matrix(-1 0 0 1 558 237)" fill="#79EAEE"/>
<rect x="173" y="142" width="10" height="10" fill="#F8CC46"/>
<rect width="10" height="10" transform="matrix(-1 0 0 1 568 237)" fill="#79EAEE"/>
<rect width="10" height="10" transform="matrix(-1 0 0 1 578 237)" fill="#79EAEE"/>
<rect x="163" y="132" width="10" height="10" fill="#F8CC46"/>
<rect width="10" height="10" transform="matrix(-1 0 0 1 578 227)" fill="#79EAEE"/>
<rect x="173" y="122" width="10" height="10" fill="#F8CC46"/>
<rect width="10" height="10" transform="matrix(-1 0 0 1 568 217)" fill="#79EAEE"/>
<rect width="10" height="10" transform="matrix(-1 0 0 1 568 227)" fill="#79EAEE"/>
<rect x="183" y="122" width="10" height="10" fill="#F8CC46"/>
<rect width="10" height="10" transform="matrix(-1 0 0 1 558 217)" fill="#79EAEE"/>
<rect x="183" y="152" width="10" height="10" fill="#F8CC46"/>
<rect width="10" height="10" transform="matrix(-1 0 0 1 558 247)" fill="#79EAEE"/>
<rect width="10" height="10" transform="matrix(-1 0 0 1 568 247)" fill="#79EAEE"/>
<rect x="183" y="162" width="10" height="10" fill="#6029F5"/>
<rect width="10" height="10" transform="matrix(-1 0 0 1 558 257)" fill="#79EAEE"/>
<rect x="183" y="172" width="10" height="10" fill="#6029F5"/>
<rect x="193" y="132" width="10" height="10" fill="#6029F5"/>
<rect width="10" height="10" transform="matrix(-1 0 0 1 548 227)" fill="#F8CC46"/>
<rect width="10" height="10" transform="matrix(-1 0 0 1 558 227)" fill="#F8CC46"/>
<rect x="193" y="142" width="10" height="10" fill="#6029F5"/>
<rect width="10" height="10" transform="matrix(-1 0 0 1 548 237)" fill="#F8CC46"/>
<rect x="193" y="152" width="10" height="10" fill="#6029F5"/>
<rect width="10" height="10" transform="matrix(-1 0 0 1 548 247)" fill="#F8CC46"/>
<rect x="193" y="162" width="10" height="10" fill="#F8CC46"/>
<rect width="10" height="10" transform="matrix(-1 0 0 1 548 257)" fill="#79EAEE"/>
<rect x="193" y="172" width="10" height="10" fill="#6029F5"/>
<rect width="10" height="10" transform="matrix(-1 0 0 1 548 267)" fill="#79EAEE"/>
<rect x="193" y="182" width="10" height="10" fill="#6029F5"/>
<rect x="203" y="132" width="10" height="10" fill="#6029F5"/>
<rect width="10" height="10" transform="matrix(-1 0 0 1 538 227)" fill="#F8CC46"/>
<rect x="203" y="142" width="10" height="10" fill="#6029F5"/>
<rect width="10" height="10" transform="matrix(-1 0 0 1 538 237)" fill="#F8CC46"/>
<rect x="203" y="152" width="10" height="10" fill="#6029F5"/>
<rect width="10" height="10" transform="matrix(-1 0 0 1 538 247)" fill="#F8CC46"/>
<rect x="203" y="162" width="10" height="10" fill="#F8CC46"/>
<rect width="10" height="10" transform="matrix(-1 0 0 1 538 257)" fill="#79EAEE"/>
<rect x="203" y="172" width="10" height="10" fill="#6029F5"/>
<rect width="10" height="10" transform="matrix(-1 0 0 1 538 267)" fill="#79EAEE"/>
<rect x="203" y="182" width="10" height="10" fill="#6029F5"/>
<rect x="203" y="192" width="10" height="10" fill="#6029F5"/>
<rect x="203" y="202" width="10" height="10" fill="#6029F5"/>
<rect x="213" y="132" width="10" height="10" fill="#6029F5"/>
<rect width="10" height="10" transform="matrix(-1 0 0 1 528 227)" fill="#F8CC46"/>
<rect x="213" y="122" width="10" height="10" fill="#6029F5"/>
<rect width="10" height="10" transform="matrix(-1 0 0 1 528 217)" fill="#F8CC46"/>
<rect x="213" y="112" width="10" height="10" fill="#6029F5"/>
<rect width="10" height="10" transform="matrix(-1 0 0 1 528 207)" fill="#F8CC46"/>
<rect x="203" y="122" width="10" height="10" fill="#6029F5"/>
<rect width="10" height="10" transform="matrix(-1 0 0 1 538 217)" fill="#F8CC46"/>
<rect width="10" height="10" transform="matrix(-1 0 0 1 548 217)" fill="#F8CC46"/>
<rect x="213" y="142" width="10" height="10" fill="#6029F5"/>
<rect width="10" height="10" transform="matrix(-1 0 0 1 528 237)" fill="#F8CC46"/>
<rect x="213" y="152" width="10" height="10" fill="#6029F5"/>
<rect width="10" height="10" transform="matrix(-1 0 0 1 528 247)" fill="#F8CC46"/>
<rect x="213" y="162" width="10" height="10" fill="#6029F5"/>
<rect width="10" height="10" transform="matrix(-1 0 0 1 528 257)" fill="#F8CC46"/>
<rect x="213" y="172" width="10" height="10" fill="#F8CC46"/>
<rect width="10" height="10" transform="matrix(-1 0 0 1 528 267)" fill="#79EAEE"/>
<rect x="213" y="182" width="10" height="10" fill="#6029F5"/>
<rect width="10" height="10" transform="matrix(-1 0 0 1 528 277)" fill="#79EAEE"/>
<rect x="213" y="192" width="10" height="10" fill="#6029F5"/>
<rect x="223" y="132" width="10" height="10" fill="#6029F5"/>
<rect width="10" height="10" transform="matrix(-1 0 0 1 518 227)" fill="#F8CC46"/>
<rect x="223" y="122" width="10" height="10" fill="#6029F5"/>
<rect width="10" height="10" transform="matrix(-1 0 0 1 518 217)" fill="#F8CC46"/>
<rect x="223" y="112" width="10" height="10" fill="#6029F5"/>
<rect width="10" height="10" transform="matrix(-1 0 0 1 518 207)" fill="#F8CC46"/>
<rect x="223" y="142" width="10" height="10" fill="#6029F5"/>
<rect width="10" height="10" transform="matrix(-1 0 0 1 518 237)" fill="#F8CC46"/>
<rect x="223" y="152" width="10" height="10" fill="#6029F5"/>
<rect width="10" height="10" transform="matrix(-1 0 0 1 518 247)" fill="#F8CC46"/>
<rect x="223" y="162" width="10" height="10" fill="#6029F5"/>
<rect width="10" height="10" transform="matrix(-1 0 0 1 518 257)" fill="#F8CC46"/>
<rect x="223" y="172" width="10" height="10" fill="#F8CC46"/>
<rect width="10" height="10" transform="matrix(-1 0 0 1 518 267)" fill="#79EAEE"/>
<rect x="223" y="182" width="10" height="10" fill="#6029F5"/>
<rect width="10" height="10" transform="matrix(-1 0 0 1 518 277)" fill="#79EAEE"/>
<rect x="223" y="192" width="10" height="10" fill="#6029F5"/>
<rect x="233" y="132" width="10" height="10" fill="#6029F5"/>
<rect width="10" height="10" transform="matrix(-1 0 0 1 508 227)" fill="#F8CC46"/>
<rect x="233" y="122" width="10" height="10" fill="#6029F5"/>
<rect width="10" height="10" transform="matrix(-1 0 0 1 508 217)" fill="#F8CC46"/>
<rect x="233" y="112" width="10" height="10" fill="#6029F5"/>
<rect width="10" height="10" transform="matrix(-1 0 0 1 508 207)" fill="#F8CC46"/>
<rect x="233" y="142" width="10" height="10" fill="#6029F5"/>
<rect width="10" height="10" transform="matrix(-1 0 0 1 508 237)" fill="#F8CC46"/>
<rect x="233" y="152" width="10" height="10" fill="#6029F5"/>
<rect width="10" height="10" transform="matrix(-1 0 0 1 508 247)" fill="#F8CC46"/>
<rect x="233" y="162" width="10" height="10" fill="#6029F5"/>
<rect width="10" height="10" transform="matrix(-1 0 0 1 508 257)" fill="#F8CC46"/>
<rect x="233" y="172" width="10" height="10" fill="#6029F5"/>
<rect width="10" height="10" transform="matrix(-1 0 0 1 508 267)" fill="#F8CC46"/>
<rect x="233" y="182" width="10" height="10" fill="#F8CC46"/>
<rect width="10" height="10" transform="matrix(-1 0 0 1 508 277)" fill="#79EAEE"/>
<rect x="233" y="192" width="10" height="10" fill="#6029F5"/>
<rect x="233" y="202" width="10" height="10" fill="#6029F5"/>
<rect x="223" y="202" width="10" height="10" fill="#6029F5"/>
<rect x="213" y="202" width="10" height="10" fill="#6029F5"/>
<rect x="213" y="212" width="10" height="10" fill="#6029F5"/>
<rect x="233" y="212" width="10" height="10" fill="#6029F5"/>
<rect x="233" y="222" width="10" height="10" fill="#6029F5"/>
<rect x="223" y="212" width="10" height="10" fill="#6029F5"/>
<rect x="243" y="132" width="10" height="10" fill="#6029F5"/>
<rect width="10" height="10" transform="matrix(-1 0 0 1 498 227)" fill="#F8CC46"/>
<rect x="243" y="122" width="10" height="10" fill="#6029F5"/>
<rect width="10" height="10" transform="matrix(-1 0 0 1 498 217)" fill="#F8CC46"/>
<rect x="243" y="112" width="10" height="10" fill="#6029F5"/>
<rect width="10" height="10" transform="matrix(-1 0 0 1 498 207)" fill="#F8CC46"/>
<rect x="253" y="112" width="10" height="10" fill="#6029F5"/>
<rect width="10" height="10" transform="matrix(-1 0 0 1 488 207)" fill="#F8CC46"/>
<rect width="10" height="10" transform="matrix(-1 0 0 1 478 207)" fill="#F8CC46"/>
<rect width="10" height="10" transform="matrix(-1 0 0 1 478 197)" fill="#F8CC46"/>
<rect width="10" height="10" transform="matrix(-1 0 0 1 478 187)" fill="#F8CC46"/>
<rect width="10" height="10" transform="matrix(-1 0 0 1 488 177)" fill="#F8CC46"/>
<rect width="10" height="10" transform="matrix(-1 0 0 1 498 177)" fill="#79EAEE"/>
<rect x="243" y="142" width="10" height="10" fill="#6029F5"/>
<rect width="10" height="10" transform="matrix(-1 0 0 1 498 237)" fill="#F8CC46"/>
<rect x="243" y="152" width="10" height="10" fill="#6029F5"/>
<rect width="10" height="10" transform="matrix(-1 0 0 1 498 247)" fill="#F8CC46"/>
<rect x="243" y="162" width="10" height="10" fill="#6029F5"/>
<rect width="10" height="10" transform="matrix(-1 0 0 1 498 257)" fill="#F8CC46"/>
<rect x="243" y="172" width="10" height="10" fill="#6029F5"/>
<rect width="10" height="10" transform="matrix(-1 0 0 1 498 267)" fill="#F8CC46"/>
<rect x="243" y="182" width="10" height="10" fill="#F8CC46"/>
<rect width="10" height="10" transform="matrix(-1 0 0 1 498 277)" fill="#79EAEE"/>
<rect x="243" y="192" width="10" height="10" fill="#6029F5"/>
<rect x="243" y="202" width="10" height="10" fill="#6029F5"/>
<rect x="243" y="212" width="10" height="10" fill="#6029F5"/>
<rect x="243" y="222" width="10" height="10" fill="#6029F5"/>
<rect x="253" y="132" width="10" height="10" fill="#6029F5"/>
<rect width="10" height="10" transform="matrix(-1 0 0 1 488 227)" fill="#F8CC46"/>
<rect x="253" y="122" width="10" height="10" fill="#6029F5"/>
<rect width="10" height="10" transform="matrix(-1 0 0 1 488 217)" fill="#F8CC46"/>
<rect x="263" y="122" width="10" height="10" fill="#6029F5"/>
<rect width="10" height="10" transform="matrix(-1 0 0 1 478 217)" fill="#F8CC46"/>
<rect x="273" y="122" width="10" height="10" fill="#6029F5"/>
<rect width="10" height="10" transform="matrix(-1 0 0 1 468 217)" fill="#F8CC46"/>
<rect x="253" y="142" width="10" height="10" fill="#6029F5"/>
<rect width="10" height="10" transform="matrix(-1 0 0 1 488 237)" fill="#F8CC46"/>
<rect x="253" y="152" width="10" height="10" fill="#6029F5"/>
<rect width="10" height="10" transform="matrix(-1 0 0 1 488 247)" fill="#F8CC46"/>
<rect x="253" y="162" width="10" height="10" fill="#6029F5"/>
<rect width="10" height="10" transform="matrix(-1 0 0 1 488 257)" fill="#F8CC46"/>
<rect x="253" y="172" width="10" height="10" fill="#6029F5"/>
<rect width="10" height="10" transform="matrix(-1 0 0 1 488 267)" fill="#F8CC46"/>
<rect x="253" y="182" width="10" height="10" fill="#F8CC46"/>
<rect width="10" height="10" transform="matrix(-1 0 0 1 488 277)" fill="#79EAEE"/>
<rect x="253" y="192" width="10" height="10" fill="#6029F5"/>
<rect x="253" y="202" width="10" height="10" fill="#6029F5"/>
<rect x="253" y="212" width="10" height="10" fill="#6029F5"/>
<rect x="253" y="222" width="10" height="10" fill="#6029F5"/>
<rect x="263" y="132" width="10" height="10" fill="#6029F5"/>
<rect width="10" height="10" transform="matrix(-1 0 0 1 478 227)" fill="#F8CC46"/>
<rect x="263" y="142" width="10" height="10" fill="#6029F5"/>
<rect width="10" height="10" transform="matrix(-1 0 0 1 478 237)" fill="#F8CC46"/>
<rect x="263" y="152" width="10" height="10" fill="#6029F5"/>
<rect width="10" height="10" transform="matrix(-1 0 0 1 478 247)" fill="#F8CC46"/>
<rect x="263" y="162" width="10" height="10" fill="#6029F5"/>
<rect width="10" height="10" transform="matrix(-1 0 0 1 478 257)" fill="#F8CC46"/>
<rect x="263" y="172" width="10" height="10" fill="#6029F5"/>
<rect width="10" height="10" transform="matrix(-1 0 0 1 478 267)" fill="#F8CC46"/>
<rect x="263" y="182" width="10" height="10" fill="#F8CC46"/>
<rect width="10" height="10" transform="matrix(-1 0 0 1 478 277)" fill="#79EAEE"/>
<rect x="263" y="192" width="10" height="10" fill="#6029F5"/>
<rect width="10" height="10" transform="matrix(-1 0 0 1 478 287)" fill="#79EAEE"/>
<rect width="10" height="10" transform="matrix(-1 0 0 1 488 287)" fill="#79EAEE"/>
<rect width="10" height="10" transform="matrix(-1 0 0 1 498 287)" fill="#79EAEE"/>
<rect width="10" height="10" transform="matrix(-1 0 0 1 508 287)" fill="#79EAEE"/>
<rect x="263" y="202" width="10" height="10" fill="#6029F5"/>
<rect x="263" y="212" width="10" height="10" fill="#6029F5"/>
<rect x="263" y="222" width="10" height="10" fill="#6029F5"/>
<rect x="273" y="132" width="10" height="10" fill="#6029F5"/>
<rect width="10" height="10" transform="matrix(-1 0 0 1 468 227)" fill="#F8CC46"/>
<rect x="273" y="142" width="10" height="10" fill="#6029F5"/>
<rect width="10" height="10" transform="matrix(-1 0 0 1 468 237)" fill="#F8CC46"/>
<rect x="273" y="152" width="10" height="10" fill="#6029F5"/>
<rect width="10" height="10" transform="matrix(-1 0 0 1 468 247)" fill="#F8CC46"/>
<rect x="273" y="162" width="10" height="10" fill="#6029F5"/>
<rect width="10" height="10" transform="matrix(-1 0 0 1 468 257)" fill="#F8CC46"/>
<rect x="273" y="172" width="10" height="10" fill="#6029F5"/>
<rect width="10" height="10" transform="matrix(-1 0 0 1 468 267)" fill="#F8CC46"/>
<rect x="273" y="182" width="10" height="10" fill="#6029F5"/>
<rect width="10" height="10" transform="matrix(-1 0 0 1 468 277)" fill="#F8CC46"/>
<rect x="273" y="192" width="10" height="10" fill="#F8CC46"/>
<rect width="10" height="10" transform="matrix(-1 0 0 1 468 287)" fill="#79EAEE"/>
<rect x="273" y="202" width="10" height="10" fill="#6029F5"/>
<rect x="273" y="212" width="10" height="10" fill="#6029F5"/>
<rect x="283" y="212" width="10" height="10" fill="#6029F5"/>
<rect x="283" y="132" width="10" height="10" fill="#6029F5"/>
<rect width="10" height="10" transform="matrix(-1 0 0 1 458 227)" fill="#F8CC46"/>
<rect width="10" height="10" transform="matrix(-1 0 0 1 458 217)" fill="#F8CC46"/>
<rect x="283" y="142" width="10" height="10" fill="#6029F5"/>
<rect width="10" height="10" transform="matrix(-1 0 0 1 458 237)" fill="#F8CC46"/>
<rect x="283" y="152" width="10" height="10" fill="#6029F5"/>
<rect width="10" height="10" transform="matrix(-1 0 0 1 458 247)" fill="#F8CC46"/>
<rect x="283" y="162" width="10" height="10" fill="#6029F5"/>
<rect width="10" height="10" transform="matrix(-1 0 0 1 458 257)" fill="#F8CC46"/>
<rect x="283" y="172" width="10" height="10" fill="#6029F5"/>
<rect width="10" height="10" transform="matrix(-1 0 0 1 458 267)" fill="#F8CC46"/>
<rect x="283" y="182" width="10" height="10" fill="#6029F5"/>
<rect width="10" height="10" transform="matrix(-1 0 0 1 458 277)" fill="#F8CC46"/>
<rect x="283" y="192" width="10" height="10" fill="#F8CC46"/>
<rect width="10" height="10" transform="matrix(-1 0 0 1 458 287)" fill="#79EAEE"/>
<rect x="283" y="202" width="10" height="10" fill="#6029F5"/>
<rect x="293" y="202" width="10" height="10" fill="#6029F5"/>
<rect width="10" height="10" transform="matrix(-1 0 0 1 448 297)" fill="#79EAEE"/>
<rect width="10" height="10" transform="matrix(-1 0 0 1 458 297)" fill="#79EAEE"/>
<rect width="10" height="10" transform="matrix(-1 0 0 1 468 297)" fill="#79EAEE"/>
<rect x="303" y="192" width="10" height="10" fill="#6029F5"/>
<rect width="10" height="10" transform="matrix(-1 0 0 1 438 287)" fill="#79EAEE"/>
<rect x="293" y="142" width="10" height="10" fill="#6029F5"/>
<rect width="10" height="10" transform="matrix(-1 0 0 1 448 237)" fill="#F8CC46"/>
<rect x="293" y="152" width="10" height="10" fill="#6029F5"/>
<rect width="10" height="10" transform="matrix(-1 0 0 1 448 247)" fill="#F8CC46"/>
<rect x="293" y="162" width="10" height="10" fill="#6029F5"/>
<rect width="10" height="10" transform="matrix(-1 0 0 1 448 257)" fill="#F8CC46"/>
<rect x="293" y="172" width="10" height="10" fill="#6029F5"/>
<rect width="10" height="10" transform="matrix(-1 0 0 1 448 267)" fill="#F8CC46"/>
<rect x="293" y="182" width="10" height="10" fill="#6029F5"/>
<rect width="10" height="10" transform="matrix(-1 0 0 1 448 277)" fill="#F8CC46"/>
<rect x="293" y="192" width="10" height="10" fill="#F8CC46"/>
<rect width="10" height="10" transform="matrix(-1 0 0 1 448 287)" fill="#79EAEE"/>
<rect x="303" y="202" width="10" height="10" fill="#F8CC46"/>
<rect width="10" height="10" transform="matrix(-1 0 0 1 438 297)" fill="#79EAEE"/>
<rect x="313" y="202" width="10" height="10" fill="#F8CC46"/>
<rect width="10" height="10" transform="matrix(-1 0 0 1 428 297)" fill="#79EAEE"/>
<rect width="10" height="10" transform="matrix(-1 0 0 1 428 287)" fill="#79EAEE"/>
<rect width="10" height="10" transform="matrix(-1 0 0 1 428 277)" fill="#79EAEE"/>
<rect x="323" y="192" width="10" height="10" fill="#F8CC46"/>
<rect width="10" height="10" transform="matrix(-1 0 0 1 418 287)" fill="#79EAEE"/>
<rect x="303" y="152" width="10" height="10" fill="#6029F5"/>
<rect x="303" y="162" width="10" height="10" fill="#6029F5"/>
<rect width="10" height="10" transform="matrix(-1 0 0 1 438 257)" fill="#F8CC46"/>
<rect x="303" y="172" width="10" height="10" fill="#6029F5"/>
<rect width="10" height="10" transform="matrix(-1 0 0 1 438 267)" fill="#F8CC46"/>
<rect x="303" y="182" width="10" height="10" fill="#6029F5"/>
<rect width="10" height="10" transform="matrix(-1 0 0 1 438 277)" fill="#F8CC46"/>
<rect x="313" y="172" width="10" height="10" fill="#6029F5"/>
<rect x="313" y="182" width="10" height="10" fill="#6029F5"/>
</svg>
