<svg width="746" height="360" viewBox="0 0 746 360" fill="none" xmlns="http://www.w3.org/2000/svg">
<mask id="mask0_786_227" style="mask-type:alpha" maskUnits="userSpaceOnUse" x="0" y="0" width="746" height="360">
<rect width="746" height="360" fill="#D9D9D9"/>
</mask>
<g mask="url(#mask0_786_227)">
<rect x="321" y="81" width="10" height="10" fill="white"/>
<rect x="321" y="91" width="10" height="10" fill="white"/>
<rect x="321" y="101" width="10" height="10" fill="white"/>
<rect x="321" y="111" width="10" height="10" fill="white"/>
<rect x="311" y="91" width="10" height="10" fill="white"/>
<rect x="311" y="101" width="10" height="10" fill="white"/>
<rect x="431" y="91" width="10" height="10" fill="white"/>
<rect x="431" y="101" width="10" height="10" fill="white"/>
<rect x="431" y="111" width="10" height="10" fill="white"/>
<rect x="431" y="121" width="10" height="10" fill="white"/>
<rect x="421" y="81" width="10" height="10" fill="white"/>
<rect x="421" y="91" width="10" height="10" fill="white"/>
<rect x="421" y="101" width="10" height="10" fill="white"/>
<rect x="421" y="111" width="10" height="10" fill="white"/>
<rect x="421" y="121" width="10" height="10" fill="white"/>
<rect x="421" y="131" width="10" height="10" fill="white"/>
<rect x="411" y="71" width="10" height="10" fill="white"/>
<rect x="411" y="81" width="10" height="10" fill="white"/>
<rect x="411" y="91" width="10" height="10" fill="white"/>
<rect x="411" y="121" width="10" height="10" fill="white"/>
<rect x="411" y="131" width="10" height="10" fill="white"/>
<rect x="411" y="141" width="10" height="10" fill="white"/>
<rect x="401" y="71" width="10" height="10" fill="white"/>
<rect x="401" y="81" width="10" height="10" fill="white"/>
<rect x="401" y="131" width="10" height="10" fill="white"/>
<rect x="401" y="141" width="10" height="10" fill="white"/>
<rect x="391" y="71" width="10" height="10" fill="white"/>
<rect x="391" y="81" width="10" height="10" fill="white"/>
<rect x="391" y="131" width="10" height="10" fill="white"/>
<rect x="391" y="141" width="10" height="10" fill="white"/>
<rect x="381" y="71" width="10" height="10" fill="white"/>
<rect x="381" y="81" width="10" height="10" fill="white"/>
<rect x="381" y="131" width="10" height="10" fill="white"/>
<rect x="381" y="141" width="10" height="10" fill="white"/>
<rect x="381" y="151" width="10" height="10" fill="white"/>
<rect x="381" y="161" width="10" height="10" fill="white"/>
<rect x="381" y="181" width="10" height="10" fill="white"/>
<rect x="381" y="191" width="10" height="10" fill="white"/>
<rect x="371" y="71" width="10" height="10" fill="white"/>
<rect x="371" y="81" width="10" height="10" fill="white"/>
<rect x="371" y="131" width="10" height="10" fill="white"/>
<rect x="371" y="141" width="10" height="10" fill="white"/>
<rect x="371" y="151" width="10" height="10" fill="white"/>
<rect x="371" y="161" width="10" height="10" fill="white"/>
<rect x="371" y="181" width="10" height="10" fill="white"/>
<rect x="371" y="191" width="10" height="10" fill="white"/>
<rect x="361" y="71" width="10" height="10" fill="white"/>
<rect x="361" y="81" width="10" height="10" fill="white"/>
<rect x="361" y="141" width="10" height="10" fill="white"/>
<rect x="361" y="151" width="10" height="10" fill="white"/>
<rect x="361" y="161" width="10" height="10" fill="white"/>
<rect x="361" y="181" width="10" height="10" fill="white"/>
<rect x="361" y="191" width="10" height="10" fill="white"/>
<rect x="351" y="71" width="10" height="10" fill="white"/>
<rect x="351" y="81" width="10" height="10" fill="white"/>
<rect x="341" y="71" width="10" height="10" fill="white"/>
<rect x="341" y="81" width="10" height="10" fill="white"/>
<rect x="331" y="71" width="10" height="10" fill="white"/>
<rect x="331" y="81" width="10" height="10" fill="white"/>
<rect x="331" y="91" width="10" height="10" fill="white"/>
<rect x="326" y="305" width="10" height="10" fill="#6029F5"/>
<rect x="316" y="305" width="10" height="10" fill="#6029F5"/>
<rect x="326" y="295" width="10" height="10" fill="#6029F5"/>
<rect x="336" y="305" width="10" height="10" fill="#6029F5"/>
<rect x="336" y="295" width="10" height="10" fill="#6029F5"/>
<rect x="336" y="285" width="10" height="10" fill="#6029F5"/>
<rect x="336" y="275" width="10" height="10" fill="#6029F5"/>
<rect x="326" y="265" width="10" height="10" fill="#6029F5"/>
<rect x="316" y="265" width="10" height="10" fill="#6029F5"/>
<rect x="316" y="255" width="10" height="10" fill="#6029F5"/>
<rect x="306" y="255" width="10" height="10" fill="#6029F5"/>
<rect x="296" y="245" width="10" height="10" fill="#6029F5"/>
<rect x="306" y="245" width="10" height="10" fill="#6029F5"/>
<rect x="286" y="245" width="10" height="10" fill="#6029F5"/>
<rect x="286" y="235" width="10" height="10" fill="#6029F5"/>
<rect x="276" y="235" width="10" height="10" fill="#6029F5"/>
<rect x="256" y="245" width="10" height="10" fill="#6029F5"/>
<rect x="246" y="245" width="10" height="10" fill="#6029F5"/>
<rect x="266" y="235" width="10" height="10" fill="#6029F5"/>
<rect x="236" y="245" width="10" height="10" fill="#6029F5"/>
<rect x="226" y="235" width="10" height="10" fill="#6029F5"/>
<rect x="216" y="235" width="10" height="10" fill="#6029F5"/>
<rect x="206" y="225" width="10" height="10" fill="#6029F5"/>
<rect x="266" y="225" width="10" height="10" fill="#6029F5"/>
<rect x="256" y="215" width="10" height="10" fill="#6029F5"/>
<rect x="256" y="205" width="10" height="10" fill="#6029F5"/>
<rect x="266" y="195" width="10" height="10" fill="#6029F5"/>
<rect x="276" y="185" width="10" height="10" fill="#6029F5"/>
<rect x="286" y="175" width="10" height="10" fill="#6029F5"/>
<rect x="296" y="175" width="10" height="10" fill="#6029F5"/>
<rect x="296" y="165" width="10" height="10" fill="#6029F5"/>
<rect x="286" y="155" width="10" height="10" fill="#6029F5"/>
<rect x="306" y="175" width="10" height="10" fill="#6029F5"/>
<rect x="316" y="175" width="10" height="10" fill="#6029F5"/>
<rect x="246" y="215" width="10" height="10" fill="#6029F5"/>
<rect x="236" y="215" width="10" height="10" fill="#6029F5"/>
<rect x="236" y="205" width="10" height="10" fill="#6029F5"/>
<rect x="226" y="195" width="10" height="10" fill="#6029F5"/>
<rect x="226" y="205" width="10" height="10" fill="#6029F5"/>
<rect x="216" y="195" width="10" height="10" fill="#6029F5"/>
<rect x="206" y="185" width="10" height="10" fill="#6029F5"/>
<rect x="196" y="175" width="10" height="10" fill="#6029F5"/>
<rect x="196" y="165" width="10" height="10" fill="#6029F5"/>
<rect x="166" y="155" width="10" height="10" fill="#6029F5"/>
<rect x="186" y="175" width="10" height="10" fill="#6029F5"/>
<rect x="156" y="155" width="10" height="10" fill="#6029F5"/>
<rect x="146" y="165" width="10" height="10" fill="#6029F5"/>
<rect x="136" y="175" width="10" height="10" fill="#6029F5"/>
<rect x="126" y="175" width="10" height="10" fill="#6029F5"/>
<rect x="117" y="175" width="10" height="10" fill="#6029F5"/>
<rect x="107" y="165" width="10" height="10" fill="#6029F5"/>
<rect x="176" y="165" width="10" height="10" fill="#6029F5"/>
<rect x="146" y="145" width="10" height="10" fill="#6029F5"/>
<rect x="206" y="165" width="10" height="10" fill="#6029F5"/>
<rect x="246" y="135" width="10" height="10" fill="#6029F5"/>
<rect x="216" y="155" width="10" height="10" fill="#6029F5"/>
<rect x="256" y="125" width="10" height="10" fill="#6029F5"/>
<rect x="246" y="115" width="10" height="10" fill="#6029F5"/>
<rect x="246" y="115" width="10" height="10" fill="#6029F5"/>
<rect x="246" y="115" width="10" height="10" fill="#6029F5"/>
<rect x="236" y="105" width="10" height="10" fill="#6029F5"/>
<rect x="226" y="95" width="10" height="10" fill="#6029F5"/>
<rect x="236" y="85" width="10" height="10" fill="#6029F5"/>
<rect x="246" y="75" width="10" height="10" fill="#6029F5"/>
<rect x="256" y="65" width="10" height="10" fill="#6029F5"/>
<rect x="266" y="55" width="10" height="10" fill="#6029F5"/>
<rect x="266" y="45" width="10" height="10" fill="#6029F5"/>
<rect x="216" y="85" width="10" height="10" fill="#6029F5"/>
<rect x="226" y="155" width="10" height="10" fill="#6029F5"/>
<rect x="266" y="125" width="10" height="10" fill="#6029F5"/>
<rect x="236" y="145" width="10" height="10" fill="#6029F5"/>
<rect x="276" y="115" width="10" height="10" fill="#6029F5"/>
<rect x="346" y="305" width="10" height="10" fill="#6029F5"/>
<rect x="346" y="295" width="10" height="10" fill="#6029F5"/>
<rect x="346" y="285" width="10" height="10" fill="#6029F5"/>
<rect x="396" y="285" width="10" height="10" fill="#6029F5"/>
<rect x="406" y="285" width="10" height="10" fill="#6029F5"/>
<rect x="346" y="275" width="10" height="10" fill="#6029F5"/>
<rect x="396" y="275" width="10" height="10" fill="#6029F5"/>
<rect x="406" y="275" width="10" height="10" fill="#6029F5"/>
<rect x="416" y="275" width="10" height="10" fill="#6029F5"/>
<rect x="416" y="285" width="10" height="10" fill="#6029F5"/>
<rect x="346" y="265" width="10" height="10" fill="#6029F5"/>
<rect x="396" y="265" width="10" height="10" fill="#6029F5"/>
<rect x="396" y="255" width="10" height="10" fill="#6029F5"/>
<rect x="396" y="245" width="10" height="10" fill="#6029F5"/>
<rect x="406" y="235" width="10" height="10" fill="#6029F5"/>
<rect x="416" y="225" width="10" height="10" fill="#6029F5"/>
<rect x="406" y="265" width="10" height="10" fill="#6029F5"/>
<rect x="406" y="255" width="10" height="10" fill="#6029F5"/>
<rect x="406" y="245" width="10" height="10" fill="#6029F5"/>
<rect x="416" y="245" width="10" height="10" fill="#6029F5"/>
<rect x="416" y="235" width="10" height="10" fill="#6029F5"/>
<rect x="426" y="225" width="10" height="10" fill="#6029F5"/>
<rect x="436" y="225" width="10" height="10" fill="#6029F5"/>
<rect x="446" y="225" width="10" height="10" fill="#6029F5"/>
<rect x="436" y="215" width="10" height="10" fill="#6029F5"/>
<rect x="456" y="215" width="10" height="10" fill="#6029F5"/>
<rect x="456" y="205" width="10" height="10" fill="#6029F5"/>
<rect x="456" y="195" width="10" height="10" fill="#6029F5"/>
<rect x="446" y="195" width="10" height="10" fill="#6029F5"/>
<rect x="436" y="185" width="10" height="10" fill="#6029F5"/>
<rect x="476" y="205" width="10" height="10" fill="#6029F5"/>
<rect x="496" y="195" width="10" height="10" fill="#6029F5"/>
<rect x="506" y="185" width="10" height="10" fill="#6029F5"/>
<rect x="506" y="175" width="10" height="10" fill="#6029F5"/>
<rect x="516" y="185" width="10" height="10" fill="#6029F5"/>
<rect x="516" y="175" width="10" height="10" fill="#6029F5"/>
<rect x="526" y="165" width="10" height="10" fill="#6029F5"/>
<rect x="516" y="155" width="10" height="10" fill="#6029F5"/>
<rect x="506" y="145" width="10" height="10" fill="#6029F5"/>
<rect x="496" y="145" width="10" height="10" fill="#6029F5"/>
<rect x="486" y="145" width="10" height="10" fill="#6029F5"/>
<rect x="476" y="135" width="10" height="10" fill="#6029F5"/>
<rect x="466" y="125" width="10" height="10" fill="#6029F5"/>
<rect x="476" y="115" width="10" height="10" fill="#6029F5"/>
<rect x="536" y="165" width="10" height="10" fill="#6029F5"/>
<rect x="566" y="135" width="10" height="10" fill="#6029F5"/>
<rect x="596" y="105" width="10" height="10" fill="#6029F5"/>
<rect x="536" y="155" width="10" height="10" fill="#6029F5"/>
<rect x="566" y="125" width="10" height="10" fill="#6029F5"/>
<rect x="596" y="95" width="10" height="10" fill="#6029F5"/>
<rect x="546" y="155" width="10" height="10" fill="#6029F5"/>
<rect x="576" y="125" width="10" height="10" fill="#6029F5"/>
<rect x="606" y="95" width="10" height="10" fill="#6029F5"/>
<rect x="556" y="145" width="10" height="10" fill="#6029F5"/>
<rect x="586" y="115" width="10" height="10" fill="#6029F5"/>
<rect x="616" y="85" width="10" height="10" fill="#6029F5"/>
<rect x="446" y="215" width="10" height="10" fill="#6029F5"/>
<rect x="466" y="215" width="10" height="10" fill="#6029F5"/>
<rect x="466" y="205" width="10" height="10" fill="#6029F5"/>
<rect x="486" y="205" width="10" height="10" fill="#6029F5"/>
<rect x="506" y="195" width="10" height="10" fill="#6029F5"/>
<rect x="426" y="235" width="10" height="10" fill="#6029F5"/>
<rect x="436" y="235" width="10" height="10" fill="#6029F5"/>
<rect x="336" y="265" width="10" height="10" fill="#6029F5"/>
<rect x="336" y="255" width="10" height="10" fill="#6029F5"/>
<rect x="326" y="255" width="10" height="10" fill="#6029F5"/>
<rect x="356" y="305" width="10" height="10" fill="#6029F5"/>
<rect x="356" y="295" width="10" height="10" fill="#6029F5"/>
<rect x="356" y="285" width="10" height="10" fill="#6029F5"/>
<rect x="366" y="305" width="10" height="10" fill="#6029F5"/>
<rect x="366" y="295" width="10" height="10" fill="#6029F5"/>
<rect x="366" y="285" width="10" height="10" fill="#6029F5"/>
<rect x="376" y="305" width="10" height="10" fill="#6029F5"/>
<rect x="376" y="295" width="10" height="10" fill="#6029F5"/>
<rect x="376" y="285" width="10" height="10" fill="#6029F5"/>
<rect x="376" y="275" width="10" height="10" fill="#6029F5"/>
<rect x="376" y="265" width="10" height="10" fill="#6029F5"/>
<rect x="386" y="265" width="10" height="10" fill="#6029F5"/>
<rect x="386" y="255" width="10" height="10" fill="#6029F5"/>
<rect x="386" y="275" width="10" height="10" fill="#6029F5"/>
<rect x="366" y="275" width="10" height="10" fill="#6029F5"/>
<rect x="386" y="305" width="10" height="10" fill="#6029F5"/>
<rect x="386" y="295" width="10" height="10" fill="#6029F5"/>
<rect x="386" y="285" width="10" height="10" fill="#6029F5"/>
<rect x="396" y="305" width="10" height="10" fill="#6029F5"/>
<rect x="396" y="295" width="10" height="10" fill="#6029F5"/>
<rect x="406" y="305" width="10" height="10" fill="#6029F5"/>
<rect x="406" y="295" width="10" height="10" fill="#6029F5"/>
<rect x="416" y="305" width="10" height="10" fill="#6029F5"/>
<rect x="416" y="295" width="10" height="10" fill="#6029F5"/>
<rect x="426" y="305" width="10" height="10" fill="#6029F5"/>
<rect x="436" y="305" width="10" height="10" fill="#6029F5"/>
<rect x="426" y="295" width="10" height="10" fill="#6029F5"/>
</g>
</svg>
