<svg width="959" height="1080" viewBox="0 0 959 1080" fill="none" xmlns="http://www.w3.org/2000/svg">
<mask id="mask0_803_236" style="mask-type:alpha" maskUnits="userSpaceOnUse" x="0" y="0" width="959" height="1080">
<rect width="959" height="1080" fill="#D9D9D9"/>
</mask>
<g mask="url(#mask0_803_236)">
<rect width="960" height="1080" fill="black" fill-opacity="0.1"/>
<circle cx="555" cy="488" r="297" fill="#FFE9A7" fill-opacity="0.3"/>
<path d="M448 470.546C448 459.816 458.354 452.127 468.626 455.229L742.626 537.977C749.379 540.017 754 546.239 754 553.294V752.454C754 763.184 743.646 770.873 733.374 767.771L459.374 685.023C452.621 682.983 448 676.761 448 669.706V470.546Z" fill="#F8CC46"/>
<path d="M384 258.546C384 247.816 394.354 240.127 404.626 243.229L678.626 325.977C685.379 328.017 690 334.239 690 341.294V540.454C690 551.184 679.646 558.873 669.374 555.771L395.374 473.023C388.621 470.983 384 464.761 384 457.706V258.546Z" fill="#FFEBAE"/>
<path d="M314 404.546C314 393.816 324.354 386.127 334.626 389.229L608.626 471.977C615.379 474.017 620 480.239 620 487.294V686.454C620 697.184 609.646 704.873 599.374 701.771L325.374 619.023C318.621 616.983 314 610.761 314 603.706V404.546Z" fill="white"/>
<path d="M344.475 257.525C343.108 256.158 340.892 256.158 339.525 257.525L317.251 279.799C315.884 281.166 315.884 283.382 317.251 284.749C318.618 286.116 320.834 286.116 322.201 284.749L342 264.95L361.799 284.749C363.166 286.116 365.382 286.116 366.749 284.749C368.116 283.382 368.116 281.166 366.749 279.799L344.475 257.525ZM345.5 372L345.5 260L338.5 260L338.5 372L345.5 372Z" fill="white"/>
<path d="M715.525 806.475C716.892 807.842 719.108 807.842 720.475 806.475L742.749 784.201C744.116 782.834 744.116 780.618 742.749 779.251C741.382 777.884 739.166 777.884 737.799 779.251L718 799.05L698.201 779.251C696.834 777.884 694.618 777.884 693.251 779.251C691.884 780.618 691.884 782.834 693.251 784.201L715.525 806.475ZM714.5 700L714.5 804L721.5 804L721.5 700L714.5 700Z" fill="white"/>
<path d="M195 432L441 506V540L195 466V432Z" fill="#F8CC46"/>
<path d="M583 341L764.5 394V471.5L583 418.5V341Z" fill="white"/>
</g>
</svg>
