<svg width="960" height="1080" viewBox="0 0 960 1080" fill="none" xmlns="http://www.w3.org/2000/svg">
<mask id="mask0_803_233" style="mask-type:alpha" maskUnits="userSpaceOnUse" x="0" y="0" width="960" height="1080">
<rect width="960" height="1080" fill="#D9D9D9"/>
</mask>
<g mask="url(#mask0_803_233)">
<rect width="960" height="1080" fill="black" fill-opacity="0.1"/>
<path d="M403.462 509.171L408.688 508.105L407.623 502.88L428.526 498.619L429.591 503.845L434.817 502.78L435.882 508.006L430.657 509.071L429.591 503.845L408.688 508.105L411.883 523.783L432.787 519.523L433.852 524.749L439.078 523.684L442.273 539.361L437.047 540.427L438.112 545.652L417.208 549.913L416.143 544.687L410.917 545.752L409.852 540.526L415.078 539.461L416.143 544.687L437.047 540.427L433.852 524.749L412.948 529.009L411.883 523.783L406.657 524.848L403.462 509.171ZM473.608 532.975L468.382 534.04L469.447 539.266L453.769 542.461L452.704 537.235L447.478 538.301L443.218 517.397L448.444 516.332L447.379 511.106L463.057 507.911L464.122 513.137L469.348 512.072L470.413 517.298L465.187 518.363L464.122 513.137L448.444 516.332L452.704 537.235L468.382 534.04L467.317 528.814L472.543 527.749L473.608 532.975ZM485.125 536.071L479.899 537.136L473.508 505.781L478.734 504.716L479.799 509.941L485.025 508.876L483.96 503.651L494.412 501.52L495.477 506.746L485.025 508.876L486.09 514.102L480.864 515.167L485.125 536.071ZM525.887 522.32L520.661 523.385L521.726 528.611L511.275 530.742L510.21 525.516L504.984 526.581L499.658 500.451L504.884 499.386L510.21 525.516L520.661 523.385L519.596 518.16L524.822 517.095L520.562 496.191L525.788 495.126L532.178 526.481L526.952 527.546L525.887 522.32ZM537.404 525.416L531.014 494.061L562.369 487.67L563.434 492.896L568.66 491.831L573.986 517.961L568.76 519.026L563.434 492.896L552.982 495.026L558.308 521.156L553.082 522.221L547.757 496.091L537.305 498.222L542.63 524.351L537.404 525.416Z" fill="white"/>
<path d="M403.462 509.171L403.262 508.191L402.282 508.39L402.482 509.37L403.462 509.171ZM408.688 508.105L408.888 509.085L409.867 508.886L409.668 507.906L408.688 508.105ZM407.623 502.88L407.423 501.9L406.443 502.099L406.643 503.079L407.623 502.88ZM428.526 498.619L429.506 498.42L429.307 497.44L428.327 497.639L428.526 498.619ZM429.591 503.845L428.612 504.045L428.811 505.025L429.791 504.825L429.591 503.845ZM434.817 502.78L435.797 502.58L435.598 501.601L434.618 501.8L434.817 502.78ZM435.882 508.006L436.082 508.986L437.062 508.786L436.862 507.806L435.882 508.006ZM430.657 509.071L429.677 509.271L429.876 510.251L430.856 510.051L430.657 509.071ZM429.591 503.845L430.571 503.646L430.372 502.666L429.392 502.865L429.591 503.845ZM408.688 508.105L408.488 507.126L407.508 507.325L407.708 508.305L408.688 508.105ZM411.883 523.783L410.903 523.983L411.103 524.963L412.083 524.763L411.883 523.783ZM432.787 519.523L433.767 519.323L433.567 518.343L432.587 518.543L432.787 519.523ZM433.852 524.749L432.872 524.949L433.072 525.928L434.051 525.729L433.852 524.749ZM439.078 523.684L440.057 523.484L439.858 522.504L438.878 522.704L439.078 523.684ZM442.273 539.361L442.473 540.341L443.452 540.142L443.253 539.162L442.273 539.361ZM437.047 540.427L436.847 539.447L435.867 539.646L436.067 540.626L437.047 540.427ZM438.112 545.652L438.312 546.632L439.292 546.433L439.092 545.453L438.112 545.652ZM417.208 549.913L416.229 550.112L416.428 551.092L417.408 550.893L417.208 549.913ZM416.143 544.687L417.123 544.487L416.923 543.507L415.944 543.707L416.143 544.687ZM410.917 545.752L409.938 545.952L410.137 546.931L411.117 546.732L410.917 545.752ZM409.852 540.526L409.653 539.546L408.673 539.746L408.872 540.726L409.852 540.526ZM415.078 539.461L416.058 539.261L415.858 538.281L414.879 538.481L415.078 539.461ZM416.143 544.687L415.163 544.887L415.363 545.866L416.343 545.667L416.143 544.687ZM437.047 540.427L437.247 541.406L438.226 541.207L438.027 540.227L437.047 540.427ZM433.852 524.749L434.832 524.549L434.632 523.569L433.652 523.769L433.852 524.749ZM412.948 529.009L411.968 529.209L412.168 530.189L413.148 529.989L412.948 529.009ZM411.883 523.783L412.863 523.583L412.663 522.604L411.683 522.803L411.883 523.783ZM406.657 524.848L405.677 525.048L405.877 526.028L406.857 525.828L406.657 524.848ZM403.662 510.15L408.888 509.085L408.488 507.126L403.262 508.191L403.662 510.15ZM409.668 507.906L408.603 502.68L406.643 503.079L407.708 508.305L409.668 507.906ZM407.822 503.859L428.726 499.599L428.327 497.639L407.423 501.9L407.822 503.859ZM427.547 498.819L428.612 504.045L430.571 503.646L429.506 498.42L427.547 498.819ZM429.791 504.825L435.017 503.76L434.618 501.8L429.392 502.865L429.791 504.825ZM433.837 502.98L434.903 508.206L436.862 507.806L435.797 502.58L433.837 502.98ZM435.683 507.026L430.457 508.091L430.856 510.051L436.082 508.986L435.683 507.026ZM431.636 508.871L430.571 503.646L428.612 504.045L429.677 509.271L431.636 508.871ZM429.392 502.865L408.488 507.126L408.888 509.085L429.791 504.825L429.392 502.865ZM407.708 508.305L410.903 523.983L412.863 523.583L409.668 507.906L407.708 508.305ZM412.083 524.763L432.986 520.503L432.587 518.543L411.683 522.803L412.083 524.763ZM431.807 519.723L432.872 524.949L434.832 524.549L433.767 519.323L431.807 519.723ZM434.051 525.729L439.277 524.664L438.878 522.704L433.652 523.769L434.051 525.729ZM438.098 523.883L441.293 539.561L443.253 539.162L440.057 523.484L438.098 523.883ZM442.073 538.382L436.847 539.447L437.247 541.406L442.473 540.341L442.073 538.382ZM436.067 540.626L437.132 545.852L439.092 545.453L438.027 540.227L436.067 540.626ZM437.912 544.673L417.009 548.933L417.408 550.893L438.312 546.632L437.912 544.673ZM418.188 549.713L417.123 544.487L415.163 544.887L416.229 550.112L418.188 549.713ZM415.944 543.707L410.718 544.772L411.117 546.732L416.343 545.667L415.944 543.707ZM411.897 545.552L410.832 540.326L408.872 540.726L409.938 545.952L411.897 545.552ZM410.052 541.506L415.278 540.441L414.879 538.481L409.653 539.546L410.052 541.506ZM414.098 539.661L415.163 544.887L417.123 544.487L416.058 539.261L414.098 539.661ZM416.343 545.667L437.247 541.406L436.847 539.447L415.944 543.707L416.343 545.667ZM438.027 540.227L434.832 524.549L432.872 524.949L436.067 540.626L438.027 540.227ZM433.652 523.769L412.748 528.029L413.148 529.989L434.051 525.729L433.652 523.769ZM413.928 528.809L412.863 523.583L410.903 523.983L411.968 529.209L413.928 528.809ZM411.683 522.803L406.457 523.868L406.857 525.828L412.083 524.763L411.683 522.803ZM407.637 524.649L404.442 508.971L402.482 509.37L405.677 525.048L407.637 524.649ZM473.608 532.975L473.808 533.955L474.787 533.755L474.588 532.776L473.608 532.975ZM468.382 534.04L468.182 533.06L467.202 533.26L467.402 534.24L468.382 534.04ZM469.447 539.266L469.647 540.246L470.627 540.046L470.427 539.067L469.447 539.266ZM453.769 542.461L452.789 542.661L452.989 543.641L453.969 543.441L453.769 542.461ZM452.704 537.235L453.684 537.036L453.484 536.056L452.505 536.256L452.704 537.235ZM447.478 538.301L446.498 538.5L446.698 539.48L447.678 539.28L447.478 538.301ZM443.218 517.397L443.018 516.417L442.038 516.617L442.238 517.597L443.218 517.397ZM448.444 516.332L448.644 517.312L449.624 517.112L449.424 516.132L448.444 516.332ZM447.379 511.106L447.179 510.126L446.199 510.326L446.399 511.306L447.379 511.106ZM463.057 507.911L464.036 507.711L463.837 506.731L462.857 506.931L463.057 507.911ZM464.122 513.137L463.142 513.336L463.342 514.316L464.321 514.117L464.122 513.137ZM469.348 512.072L470.327 511.872L470.128 510.892L469.148 511.092L469.348 512.072ZM470.413 517.298L470.612 518.277L471.592 518.078L471.392 517.098L470.413 517.298ZM465.187 518.363L464.207 518.562L464.407 519.542L465.386 519.342L465.187 518.363ZM464.122 513.137L465.102 512.937L464.902 511.957L463.922 512.157L464.122 513.137ZM448.444 516.332L448.244 515.352L447.264 515.552L447.464 516.532L448.444 516.332ZM452.704 537.235L451.724 537.435L451.924 538.415L452.904 538.215L452.704 537.235ZM468.382 534.04L468.582 535.02L469.561 534.82L469.362 533.841L468.382 534.04ZM467.317 528.814L467.117 527.835L466.137 528.034L466.337 529.014L467.317 528.814ZM472.543 527.749L473.523 527.55L473.323 526.57L472.343 526.769L472.543 527.749ZM473.408 531.995L468.182 533.06L468.582 535.02L473.808 533.955L473.408 531.995ZM467.402 534.24L468.467 539.466L470.427 539.067L469.362 533.841L467.402 534.24ZM469.247 538.286L453.57 541.482L453.969 543.441L469.647 540.246L469.247 538.286ZM454.749 542.262L453.684 537.036L451.724 537.435L452.789 542.661L454.749 542.262ZM452.505 536.256L447.279 537.321L447.678 539.28L452.904 538.215L452.505 536.256ZM448.458 538.101L444.198 517.197L442.238 517.597L446.498 538.5L448.458 538.101ZM443.418 518.377L448.644 517.312L448.244 515.352L443.018 516.417L443.418 518.377ZM449.424 516.132L448.359 510.906L446.399 511.306L447.464 516.532L449.424 516.132ZM447.579 512.086L463.256 508.891L462.857 506.931L447.179 510.126L447.579 512.086ZM462.077 508.11L463.142 513.336L465.102 512.937L464.036 507.711L462.077 508.11ZM464.321 514.117L469.547 513.051L469.148 511.092L463.922 512.157L464.321 514.117ZM468.368 512.271L469.433 517.497L471.392 517.098L470.327 511.872L468.368 512.271ZM470.213 516.318L464.987 517.383L465.386 519.342L470.612 518.277L470.213 516.318ZM466.167 518.163L465.102 512.937L463.142 513.336L464.207 518.562L466.167 518.163ZM463.922 512.157L448.244 515.352L448.644 517.312L464.321 514.117L463.922 512.157ZM447.464 516.532L451.724 537.435L453.684 537.036L449.424 516.132L447.464 516.532ZM452.904 538.215L468.582 535.02L468.182 533.06L452.505 536.256L452.904 538.215ZM469.362 533.841L468.297 528.615L466.337 529.014L467.402 534.24L469.362 533.841ZM467.517 529.794L472.742 528.729L472.343 526.769L467.117 527.835L467.517 529.794ZM471.563 527.949L472.628 533.175L474.588 532.776L473.523 527.55L471.563 527.949ZM485.125 536.071L485.324 537.051L486.304 536.851L486.105 535.871L485.125 536.071ZM479.899 537.136L478.919 537.336L479.119 538.316L480.099 538.116L479.899 537.136ZM473.508 505.781L473.309 504.801L472.329 505L472.529 505.98L473.508 505.781ZM478.734 504.716L479.714 504.516L479.514 503.536L478.535 503.736L478.734 504.716ZM479.799 509.941L478.82 510.141L479.019 511.121L479.999 510.921L479.799 509.941ZM485.025 508.876L485.225 509.856L486.205 509.657L486.005 508.677L485.025 508.876ZM483.96 503.651L483.761 502.671L482.781 502.87L482.98 503.85L483.96 503.651ZM494.412 501.52L495.392 501.321L495.192 500.341L494.212 500.541L494.412 501.52ZM495.477 506.746L495.677 507.726L496.657 507.526L496.457 506.547L495.477 506.746ZM485.025 508.876L484.826 507.897L483.846 508.096L484.045 509.076L485.025 508.876ZM486.09 514.102L486.29 515.082L487.27 514.882L487.07 513.903L486.09 514.102ZM480.864 515.167L480.665 514.188L479.685 514.387L479.885 515.367L480.864 515.167ZM484.925 535.091L479.699 536.156L480.099 538.116L485.324 537.051L484.925 535.091ZM480.879 536.936L474.488 505.581L472.529 505.98L478.919 537.336L480.879 536.936ZM473.708 506.76L478.934 505.695L478.535 503.736L473.309 504.801L473.708 506.76ZM477.754 504.915L478.82 510.141L480.779 509.742L479.714 504.516L477.754 504.915ZM479.999 510.921L485.225 509.856L484.826 507.897L479.6 508.962L479.999 510.921ZM486.005 508.677L484.94 503.451L482.98 503.85L484.045 509.076L486.005 508.677ZM484.16 504.63L494.612 502.5L494.212 500.541L483.761 502.671L484.16 504.63ZM493.432 501.72L494.497 506.946L496.457 506.547L495.392 501.321L493.432 501.72ZM495.277 505.766L484.826 507.897L485.225 509.856L495.677 507.726L495.277 505.766ZM484.045 509.076L485.11 514.302L487.07 513.903L486.005 508.677L484.045 509.076ZM485.891 513.122L480.665 514.188L481.064 516.147L486.29 515.082L485.891 513.122ZM479.885 515.367L484.145 536.271L486.105 535.871L481.844 514.968L479.885 515.367ZM525.887 522.32L526.867 522.121L526.667 521.141L525.688 521.341L525.887 522.32ZM520.661 523.385L520.462 522.406L519.482 522.605L519.682 523.585L520.661 523.385ZM521.726 528.611L521.926 529.591L522.906 529.392L522.706 528.412L521.726 528.611ZM511.275 530.742L510.295 530.941L510.494 531.921L511.474 531.721L511.275 530.742ZM510.21 525.516L511.189 525.316L510.99 524.336L510.01 524.536L510.21 525.516ZM504.984 526.581L504.004 526.78L504.204 527.76L505.183 527.561L504.984 526.581ZM499.658 500.451L499.459 499.471L498.479 499.671L498.678 500.651L499.658 500.451ZM504.884 499.386L505.864 499.186L505.664 498.207L504.685 498.406L504.884 499.386ZM510.21 525.516L509.23 525.715L509.429 526.695L510.409 526.495L510.21 525.516ZM520.661 523.385L520.861 524.365L521.841 524.166L521.641 523.186L520.661 523.385ZM519.596 518.16L519.397 517.18L518.417 517.379L518.616 518.359L519.596 518.16ZM524.822 517.095L525.022 518.074L526.002 517.875L525.802 516.895L524.822 517.095ZM520.562 496.191L520.362 495.211L519.382 495.411L519.582 496.391L520.562 496.191ZM525.788 495.126L526.768 494.926L526.568 493.946L525.588 494.146L525.788 495.126ZM532.178 526.481L532.378 527.461L533.358 527.261L533.158 526.282L532.178 526.481ZM526.952 527.546L525.973 527.746L526.172 528.726L527.152 528.526L526.952 527.546ZM525.688 521.341L520.462 522.406L520.861 524.365L526.087 523.3L525.688 521.341ZM519.682 523.585L520.747 528.811L522.706 528.412L521.641 523.186L519.682 523.585ZM521.527 527.632L511.075 529.762L511.474 531.721L521.926 529.591L521.527 527.632ZM512.255 530.542L511.189 525.316L509.23 525.715L510.295 530.941L512.255 530.542ZM510.01 524.536L504.784 525.601L505.183 527.561L510.409 526.495L510.01 524.536ZM505.964 526.381L500.638 500.251L498.678 500.651L504.004 526.78L505.964 526.381ZM499.858 501.431L505.084 500.366L504.685 498.406L499.459 499.471L499.858 501.431ZM503.904 499.586L509.23 525.715L511.189 525.316L505.864 499.186L503.904 499.586ZM510.409 526.495L520.861 524.365L520.462 522.406L510.01 524.536L510.409 526.495ZM521.641 523.186L520.576 517.96L518.616 518.359L519.682 523.585L521.641 523.186ZM519.796 519.139L525.022 518.074L524.623 516.115L519.397 517.18L519.796 519.139ZM525.802 516.895L521.542 495.991L519.582 496.391L523.842 517.294L525.802 516.895ZM520.762 497.171L525.988 496.106L525.588 494.146L520.362 495.211L520.762 497.171ZM524.808 495.326L531.198 526.681L533.158 526.282L526.768 494.926L524.808 495.326ZM531.979 525.501L526.753 526.566L527.152 528.526L532.378 527.461L531.979 525.501ZM527.932 527.347L526.867 522.121L524.907 522.52L525.973 527.746L527.932 527.347ZM537.404 525.416L536.424 525.616L536.624 526.596L537.604 526.396L537.404 525.416ZM531.014 494.061L530.814 493.081L529.834 493.281L530.034 494.26L531.014 494.061ZM562.369 487.67L563.349 487.471L563.149 486.491L562.169 486.69L562.369 487.67ZM563.434 492.896L562.454 493.096L562.654 494.076L563.634 493.876L563.434 492.896ZM568.66 491.831L569.64 491.631L569.44 490.652L568.46 490.851L568.66 491.831ZM573.986 517.961L574.185 518.941L575.165 518.741L574.965 517.761L573.986 517.961ZM568.76 519.026L567.78 519.225L567.979 520.205L568.959 520.006L568.76 519.026ZM563.434 492.896L564.414 492.697L564.214 491.717L563.235 491.916L563.434 492.896ZM552.982 495.026L552.783 494.047L551.803 494.246L552.003 495.226L552.982 495.026ZM558.308 521.156L558.507 522.136L559.487 521.936L559.288 520.956L558.308 521.156ZM553.082 522.221L552.102 522.421L552.302 523.401L553.282 523.201L553.082 522.221ZM547.757 496.091L548.736 495.892L548.537 494.912L547.557 495.112L547.757 496.091ZM537.305 498.222L537.105 497.242L536.125 497.441L536.325 498.421L537.305 498.222ZM542.63 524.351L542.83 525.331L543.81 525.131L543.61 524.151L542.63 524.351ZM538.384 525.216L531.994 493.861L530.034 494.26L536.424 525.616L538.384 525.216ZM531.213 495.041L562.569 488.65L562.169 486.69L530.814 493.081L531.213 495.041ZM561.389 487.87L562.454 493.096L564.414 492.697L563.349 487.471L561.389 487.87ZM563.634 493.876L568.86 492.811L568.46 490.851L563.235 491.916L563.634 493.876ZM567.68 492.031L573.006 518.16L574.965 517.761L569.64 491.631L567.68 492.031ZM573.786 516.981L568.56 518.046L568.959 520.006L574.185 518.941L573.786 516.981ZM569.739 518.826L564.414 492.697L562.454 493.096L567.78 519.225L569.739 518.826ZM563.235 491.916L552.783 494.047L553.182 496.006L563.634 493.876L563.235 491.916ZM552.003 495.226L557.328 521.356L559.288 520.956L553.962 494.827L552.003 495.226ZM558.108 520.176L552.882 521.241L553.282 523.201L558.507 522.136L558.108 520.176ZM554.062 522.021L548.736 495.892L546.777 496.291L552.102 522.421L554.062 522.021ZM547.557 495.112L537.105 497.242L537.504 499.201L547.956 497.071L547.557 495.112ZM536.325 498.421L541.65 524.551L543.61 524.151L538.285 498.022L536.325 498.421ZM542.43 523.371L537.204 524.436L537.604 526.396L542.83 525.331L542.43 523.371Z" fill="white"/>
<circle cx="491.5" cy="512.5" r="229.5" stroke="#EFE7FF" stroke-width="52"/>
<rect x="299" y="678" width="179" height="93" fill="#8A5DDD"/>
<line x1="-10" y1="742" x2="480" y2="742" stroke="#EFE7FF" stroke-width="52"/>
<line x1="674" y1="742" x2="790" y2="742" stroke="#EFE7FF" stroke-width="52"/>
<path d="M300 709L324 742.5L300 776" stroke="#8A5DDD" stroke-width="14"/>
<path d="M504 318L480 284.5L504 251" stroke="#8A5DDD" stroke-width="14"/>
<path d="M300.015 469.394L261.213 483.275L235.589 451" stroke="#8A5DDD" stroke-width="14"/>
<rect x="338" y="651" width="45" height="40" fill="#8A5DDD"/>
<path d="M341.721 694.008L280.062 685.352L352.742 632.726L341.721 694.008Z" fill="#EFE7FF"/>
<path d="M826.563 741.807L783.391 786.673L783.391 696.941L826.563 741.807Z" fill="#EFE7FF"/>
</g>
</svg>
