<svg width="1920" height="1080" viewBox="0 0 1920 1080" fill="none" xmlns="http://www.w3.org/2000/svg">
<rect width="1920" height="1080" fill="#F8CC46"/>
<rect x="438" y="635" width="10" height="10" fill="black"/>
<rect x="428" y="645" width="10" height="10" fill="black"/>
<rect x="478" y="645" width="10" height="10" fill="black"/>
<rect x="532" y="695" width="10" height="10" fill="black"/>
<rect x="542" y="685" width="10" height="10" fill="black"/>
<rect x="542" y="705" width="10" height="10" fill="black"/>
<rect x="552" y="695" width="10" height="10" fill="black"/>
<rect x="428" y="655" width="10" height="10" fill="black"/>
<rect x="478" y="655" width="10" height="10" fill="black"/>
<rect x="428" y="665" width="10" height="10" fill="black"/>
<rect x="478" y="665" width="10" height="10" fill="black"/>
<rect x="428" y="675" width="10" height="10" fill="black"/>
<rect x="438" y="685" width="10" height="10" fill="black"/>
<rect x="448" y="635" width="10" height="10" fill="black"/>
<rect x="448" y="685" width="10" height="10" fill="black"/>
<rect x="458" y="635" width="10" height="10" fill="black"/>
<rect x="458" y="685" width="10" height="10" fill="black"/>
<rect x="468" y="635" width="10" height="10" fill="black"/>
<rect x="478" y="675" width="10" height="10" fill="black"/>
<rect x="468" y="685" width="10" height="10" fill="black"/>
</svg>
