<svg width="416" height="312" viewBox="0 0 416 312" fill="none" xmlns="http://www.w3.org/2000/svg">
<mask id="mask0_803_242" style="mask-type:alpha" maskUnits="userSpaceOnUse" x="0" y="0" width="416" height="312">
<rect width="416" height="312" fill="#D9D9D9"/>
</mask>
<g mask="url(#mask0_803_242)">
<rect x="129" y="87" width="10" height="10" fill="#F8CC46"/>
<rect x="239" y="87" width="10" height="10" fill="#F8CC46"/>
<rect x="129" y="197" width="10" height="10" fill="#F8CC46"/>
<rect x="239" y="197" width="10" height="10" fill="#F8CC46"/>
<rect x="129" y="127" width="10" height="10" fill="#F8CC46"/>
<rect x="239" y="127" width="10" height="10" fill="white"/>
<rect x="129" y="237" width="10" height="10" fill="#F8CC46"/>
<rect x="129" y="177" width="10" height="10" fill="#F8CC46"/>
<rect x="239" y="177" width="10" height="10" fill="#F8CC46"/>
<rect x="129" y="107" width="10" height="10" fill="#F8CC46"/>
<rect x="239" y="107" width="10" height="10" fill="#F8CC46"/>
<rect x="239" y="237" width="10" height="10" fill="#F8CC46"/>
<rect x="129" y="67" width="10" height="10" fill="#F8CC46"/>
<rect x="129" y="147" width="10" height="10" fill="#F8CC46"/>
<rect x="239" y="147" width="10" height="10" fill="white"/>
<rect x="239" y="67" width="10" height="10" fill="#F8CC46"/>
<rect x="239" y="77" width="10" height="10" fill="#F8CC46"/>
<rect x="129" y="157" width="10" height="10" fill="#F8CC46"/>
<rect x="239" y="157" width="10" height="10" fill="white"/>
<rect x="129" y="217" width="10" height="10" fill="#F8CC46"/>
<rect x="239" y="217" width="10" height="10" fill="#F8CC46"/>
<rect x="129" y="47" width="10" height="10" fill="#F8CC46"/>
<rect x="239" y="47" width="10" height="10" fill="#F8CC46"/>
<rect x="129" y="187" width="10" height="10" fill="#F8CC46"/>
<rect x="239" y="187" width="10" height="10" fill="#F8CC46"/>
<rect x="129" y="117" width="10" height="10" fill="#F8CC46"/>
<rect x="239" y="117" width="10" height="10" fill="#F8CC46"/>
<rect x="349" y="47" width="10" height="10" fill="#F8CC46"/>
<rect x="349" y="67" width="10" height="10" fill="#F8CC46"/>
<rect x="349" y="87" width="10" height="10" fill="#F8CC46"/>
<rect x="129" y="167" width="10" height="10" fill="#F8CC46"/>
<rect x="239" y="167" width="10" height="10" fill="white"/>
<rect x="349" y="107" width="10" height="10" fill="#F8CC46"/>
<rect x="349" y="127" width="10" height="10" fill="#F8CC46"/>
<rect x="349" y="147" width="10" height="10" fill="#F8CC46"/>
<rect x="349" y="167" width="10" height="10" fill="#F8CC46"/>
<rect x="349" y="187" width="10" height="10" fill="#F8CC46"/>
<rect x="349" y="207" width="10" height="10" fill="#F8CC46"/>
<rect x="349" y="227" width="10" height="10" fill="#F8CC46"/>
<rect x="129" y="77" width="10" height="10" fill="#F8CC46"/>
<rect x="129" y="37" width="10" height="10" fill="#F8CC46"/>
<rect x="129" y="97" width="10" height="10" fill="#F8CC46"/>
<rect x="239" y="97" width="10" height="10" fill="#F8CC46"/>
<rect x="239" y="37" width="10" height="10" fill="#F8CC46"/>
<rect x="129" y="137" width="10" height="10" fill="#F8CC46"/>
<rect x="239" y="137" width="10" height="10" fill="white"/>
<rect x="129" y="227" width="10" height="10" fill="#F8CC46"/>
<rect x="239" y="227" width="10" height="10" fill="#F8CC46"/>
<rect x="119" y="197" width="10" height="10" fill="#F8CC46"/>
<rect x="229" y="197" width="10" height="10" fill="#F8CC46"/>
<rect x="119" y="127" width="10" height="10" fill="#F8CC46"/>
<rect x="229" y="127" width="10" height="10" fill="white"/>
<rect x="129" y="57" width="10" height="10" fill="#F8CC46"/>
<rect x="239" y="57" width="10" height="10" fill="#F8CC46"/>
<rect x="349" y="57" width="10" height="10" fill="#F8CC46"/>
<rect x="119" y="177" width="10" height="10" fill="#F8CC46"/>
<rect x="229" y="177" width="10" height="10" fill="#F8CC46"/>
<rect x="119" y="107" width="10" height="10" fill="#F8CC46"/>
<rect x="229" y="107" width="10" height="10" fill="#F8CC46"/>
<rect x="349" y="77" width="10" height="10" fill="#F8CC46"/>
<rect x="349" y="97" width="10" height="10" fill="#F8CC46"/>
<rect x="119" y="147" width="10" height="10" fill="#F8CC46"/>
<rect x="229" y="147" width="10" height="10" fill="white"/>
<rect x="119" y="157" width="10" height="10" fill="#F8CC46"/>
<rect x="229" y="157" width="10" height="10" fill="white"/>
<rect x="349" y="117" width="10" height="10" fill="#F8CC46"/>
<rect x="349" y="137" width="10" height="10" fill="#F8CC46"/>
<rect x="349" y="157" width="10" height="10" fill="#F8CC46"/>
<rect x="349" y="177" width="10" height="10" fill="#F8CC46"/>
<rect x="349" y="197" width="10" height="10" fill="#F8CC46"/>
<rect x="349" y="217" width="10" height="10" fill="#F8CC46"/>
<rect x="349" y="237" width="10" height="10" fill="#F8CC46"/>
<rect x="129" y="207" width="10" height="10" fill="#F8CC46"/>
<rect x="239" y="207" width="10" height="10" fill="#F8CC46"/>
<rect x="129" y="247" width="10" height="10" fill="#F8CC46"/>
<rect x="239" y="247" width="10" height="10" fill="#F8CC46"/>
<rect x="119" y="87" width="10" height="10" fill="#F8CC46"/>
<rect x="119" y="187" width="10" height="10" fill="#F8CC46"/>
<rect x="229" y="187" width="10" height="10" fill="#F8CC46"/>
<rect x="119" y="117" width="10" height="10" fill="#F8CC46"/>
<rect x="229" y="87" width="10" height="10" fill="#F8CC46"/>
<rect x="229" y="117" width="10" height="10" fill="#F8CC46"/>
<rect x="119" y="167" width="10" height="10" fill="#F8CC46"/>
<rect x="229" y="167" width="10" height="10" fill="white"/>
<rect x="119" y="237" width="10" height="10" fill="#F8CC46"/>
<rect x="229" y="237" width="10" height="10" fill="#F8CC46"/>
<rect x="119" y="67" width="10" height="10" fill="#F8CC46"/>
<rect x="119" y="217" width="10" height="10" fill="#F8CC46"/>
<rect x="229" y="217" width="10" height="10" fill="#F8CC46"/>
<rect x="119" y="97" width="10" height="10" fill="#F8CC46"/>
<rect x="229" y="97" width="10" height="10" fill="#F8CC46"/>
<rect x="119" y="137" width="10" height="10" fill="#F8CC46"/>
<rect x="229" y="137" width="10" height="10" fill="white"/>
<rect x="119" y="47" width="10" height="10" fill="#F8CC46"/>
<rect x="229" y="47" width="10" height="10" fill="#F8CC46"/>
<rect x="229" y="57" width="10" height="10" fill="#F8CC46"/>
<rect x="109" y="197" width="10" height="10" fill="#F8CC46"/>
<rect x="219" y="197" width="10" height="10" fill="#F8CC46"/>
<rect x="109" y="127" width="10" height="10" fill="#F8CC46"/>
<rect x="219" y="127" width="10" height="10" fill="white"/>
<rect x="229" y="67" width="10" height="10" fill="#F8CC46"/>
<rect x="339" y="47" width="10" height="10" fill="#F8CC46"/>
<rect x="339" y="67" width="10" height="10" fill="#F8CC46"/>
<rect x="339" y="87" width="10" height="10" fill="#F8CC46"/>
<rect x="109" y="177" width="10" height="10" fill="#F8CC46"/>
<rect x="219" y="177" width="10" height="10" fill="#F8CC46"/>
<rect x="109" y="107" width="10" height="10" fill="#F8CC46"/>
<rect x="219" y="107" width="10" height="10" fill="#F8CC46"/>
<rect x="339" y="107" width="10" height="10" fill="#F8CC46"/>
<rect x="339" y="127" width="10" height="10" fill="#F8CC46"/>
<rect x="109" y="147" width="10" height="10" fill="#F8CC46"/>
<rect x="219" y="147" width="10" height="10" fill="white"/>
<rect x="109" y="157" width="10" height="10" fill="#F8CC46"/>
<rect x="219" y="157" width="10" height="10" fill="white"/>
<rect x="339" y="147" width="10" height="10" fill="#F8CC46"/>
<rect x="339" y="167" width="10" height="10" fill="#F8CC46"/>
<rect x="339" y="187" width="10" height="10" fill="#F8CC46"/>
<rect x="339" y="207" width="10" height="10" fill="#F8CC46"/>
<rect x="339" y="227" width="10" height="10" fill="#F8CC46"/>
<rect x="119" y="77" width="10" height="10" fill="#F8CC46"/>
<rect x="229" y="77" width="10" height="10" fill="#F8CC46"/>
<rect x="119" y="37" width="10" height="10" fill="#F8CC46"/>
<rect x="229" y="37" width="10" height="10" fill="#F8CC46"/>
<rect x="119" y="227" width="10" height="10" fill="#F8CC46"/>
<rect x="229" y="227" width="10" height="10" fill="#F8CC46"/>
<rect x="109" y="187" width="10" height="10" fill="#F8CC46"/>
<rect x="219" y="187" width="10" height="10" fill="#F8CC46"/>
<rect x="109" y="167" width="10" height="10" fill="#F8CC46"/>
<rect x="219" y="167" width="10" height="10" fill="white"/>
<rect x="109" y="117" width="10" height="10" fill="#F8CC46"/>
<rect x="219" y="117" width="10" height="10" fill="#F8CC46"/>
<rect x="119" y="57" width="10" height="10" fill="#F8CC46"/>
<rect x="339" y="57" width="10" height="10" fill="#F8CC46"/>
<rect x="339" y="77" width="10" height="10" fill="#F8CC46"/>
<rect x="339" y="97" width="10" height="10" fill="#F8CC46"/>
<rect x="339" y="117" width="10" height="10" fill="#F8CC46"/>
<rect x="339" y="137" width="10" height="10" fill="#F8CC46"/>
<rect x="339" y="157" width="10" height="10" fill="#F8CC46"/>
<rect x="339" y="177" width="10" height="10" fill="#F8CC46"/>
<rect x="339" y="197" width="10" height="10" fill="#F8CC46"/>
<rect x="339" y="217" width="10" height="10" fill="#F8CC46"/>
<rect x="339" y="237" width="10" height="10" fill="#F8CC46"/>
<rect x="119" y="207" width="10" height="10" fill="#F8CC46"/>
<rect x="109" y="97" width="10" height="10" fill="#F8CC46"/>
<rect x="219" y="97" width="10" height="10" fill="#F8CC46"/>
<rect x="229" y="207" width="10" height="10" fill="#F8CC46"/>
<rect x="109" y="137" width="10" height="10" fill="#F8CC46"/>
<rect x="219" y="137" width="10" height="10" fill="white"/>
<rect x="119" y="247" width="10" height="10" fill="#F8CC46"/>
<rect x="229" y="247" width="10" height="10" fill="#F8CC46"/>
<rect x="99" y="197" width="10" height="10" fill="#F8CC46"/>
<rect x="209" y="197" width="10" height="10" fill="#F8CC46"/>
<rect x="99" y="127" width="10" height="10" fill="#F8CC46"/>
<rect x="209" y="127" width="10" height="10" fill="white"/>
<rect x="109" y="87" width="10" height="10" fill="#F8CC46"/>
<rect x="219" y="87" width="10" height="10" fill="#F8CC46"/>
<rect x="99" y="177" width="10" height="10" fill="#F8CC46"/>
<rect x="209" y="177" width="10" height="10" fill="white"/>
<rect x="99" y="107" width="10" height="10" fill="#F8CC46"/>
<rect x="209" y="107" width="10" height="10" fill="#F8CC46"/>
<rect x="99" y="147" width="10" height="10" fill="#F8CC46"/>
<rect x="209" y="147" width="10" height="10" fill="white"/>
<rect x="99" y="157" width="10" height="10" fill="#F8CC46"/>
<rect x="209" y="157" width="10" height="10" fill="white"/>
<rect x="109" y="237" width="10" height="10" fill="#F8CC46"/>
<rect x="219" y="237" width="10" height="10" fill="#F8CC46"/>
<rect x="109" y="67" width="10" height="10" fill="#F8CC46"/>
<rect x="219" y="67" width="10" height="10" fill="#F8CC46"/>
<rect x="109" y="217" width="10" height="10" fill="#F8CC46"/>
<rect x="219" y="217" width="10" height="10" fill="#F8CC46"/>
<rect x="99" y="167" width="10" height="10" fill="#F8CC46"/>
<rect x="209" y="167" width="10" height="10" fill="white"/>
<rect x="99" y="187" width="10" height="10" fill="#F8CC46"/>
<rect x="209" y="187" width="10" height="10" fill="#F8CC46"/>
<rect x="99" y="117" width="10" height="10" fill="#F8CC46"/>
<rect x="209" y="117" width="10" height="10" fill="white"/>
<rect x="109" y="47" width="10" height="10" fill="#F8CC46"/>
<rect x="219" y="47" width="10" height="10" fill="#F8CC46"/>
<rect x="219" y="57" width="10" height="10" fill="#F8CC46"/>
<rect x="329" y="47" width="10" height="10" fill="#F8CC46"/>
<rect x="329" y="67" width="10" height="10" fill="#F8CC46"/>
<rect x="329" y="87" width="10" height="10" fill="#F8CC46"/>
<rect x="329" y="107" width="10" height="10" fill="#F8CC46"/>
<rect x="329" y="127" width="10" height="10" fill="#F8CC46"/>
<rect x="329" y="147" width="10" height="10" fill="#F8CC46"/>
<rect x="329" y="167" width="10" height="10" fill="#F8CC46"/>
<rect x="329" y="187" width="10" height="10" fill="#F8CC46"/>
<rect x="329" y="207" width="10" height="10" fill="#F8CC46"/>
<rect x="329" y="227" width="10" height="10" fill="#F8CC46"/>
<rect x="329" y="247" width="10" height="10" fill="#F8CC46"/>
<rect x="109" y="77" width="10" height="10" fill="#F8CC46"/>
<rect x="219" y="77" width="10" height="10" fill="#F8CC46"/>
<rect x="99" y="97" width="10" height="10" fill="#F8CC46"/>
<rect x="209" y="97" width="10" height="10" fill="#F8CC46"/>
<rect x="99" y="137" width="10" height="10" fill="#F8CC46"/>
<rect x="209" y="137" width="10" height="10" fill="white"/>
<rect x="89" y="197" width="10" height="10" fill="#F8CC46"/>
<rect x="199" y="197" width="10" height="10" fill="#F8CC46"/>
<rect x="89" y="127" width="10" height="10" fill="#F8CC46"/>
<rect x="199" y="127" width="10" height="10" fill="white"/>
<rect x="219" y="37" width="10" height="10" fill="#F8CC46"/>
<rect x="109" y="227" width="10" height="10" fill="#F8CC46"/>
<rect x="219" y="227" width="10" height="10" fill="#F8CC46"/>
<rect x="109" y="57" width="10" height="10" fill="#F8CC46"/>
<rect x="89" y="177" width="10" height="10" fill="#F8CC46"/>
<rect x="199" y="177" width="10" height="10" fill="white"/>
<rect x="89" y="107" width="10" height="10" fill="#F8CC46"/>
<rect x="199" y="107" width="10" height="10" fill="#F8CC46"/>
<rect x="329" y="57" width="10" height="10" fill="#F8CC46"/>
<rect x="329" y="77" width="10" height="10" fill="#F8CC46"/>
<rect x="89" y="147" width="10" height="10" fill="#F8CC46"/>
<rect x="199" y="147" width="10" height="10" fill="white"/>
<rect x="89" y="157" width="10" height="10" fill="#F8CC46"/>
<rect x="199" y="157" width="10" height="10" fill="white"/>
<rect x="329" y="97" width="10" height="10" fill="#F8CC46"/>
<rect x="329" y="117" width="10" height="10" fill="#F8CC46"/>
<rect x="329" y="37" width="10" height="10" fill="#F8CC46"/>
<rect x="329" y="137" width="10" height="10" fill="#F8CC46"/>
<rect x="329" y="157" width="10" height="10" fill="#F8CC46"/>
<rect x="329" y="177" width="10" height="10" fill="#F8CC46"/>
<rect x="329" y="197" width="10" height="10" fill="#F8CC46"/>
<rect x="329" y="217" width="10" height="10" fill="#F8CC46"/>
<rect x="329" y="237" width="10" height="10" fill="#F8CC46"/>
<rect x="109" y="207" width="10" height="10" fill="#F8CC46"/>
<rect x="219" y="207" width="10" height="10" fill="#F8CC46"/>
<rect x="89" y="167" width="10" height="10" fill="#F8CC46"/>
<rect x="199" y="167" width="10" height="10" fill="white"/>
<rect x="89" y="187" width="10" height="10" fill="#F8CC46"/>
<rect x="199" y="187" width="10" height="10" fill="#F8CC46"/>
<rect x="89" y="117" width="10" height="10" fill="#F8CC46"/>
<rect x="199" y="117" width="10" height="10" fill="white"/>
<rect x="219" y="247" width="10" height="10" fill="#F8CC46"/>
<rect x="99" y="87" width="10" height="10" fill="#F8CC46"/>
<rect x="209" y="87" width="10" height="10" fill="#F8CC46"/>
<rect x="99" y="237" width="10" height="10" fill="#F8CC46"/>
<rect x="209" y="237" width="10" height="10" fill="#F8CC46"/>
<rect x="99" y="67" width="10" height="10" fill="#F8CC46"/>
<rect x="209" y="67" width="10" height="10" fill="#F8CC46"/>
<rect x="99" y="217" width="10" height="10" fill="#F8CC46"/>
<rect x="89" y="97" width="10" height="10" fill="#F8CC46"/>
<rect x="199" y="97" width="10" height="10" fill="#F8CC46"/>
<rect x="209" y="217" width="10" height="10" fill="#F8CC46"/>
<rect x="89" y="137" width="10" height="10" fill="#F8CC46"/>
<rect x="199" y="137" width="10" height="10" fill="white"/>
<rect x="79" y="197" width="10" height="10" fill="#F8CC46"/>
<rect x="189" y="197" width="10" height="10" fill="#F8CC46"/>
<rect x="79" y="127" width="10" height="10" fill="#F8CC46"/>
<rect x="189" y="127" width="10" height="10" fill="white"/>
<rect x="99" y="47" width="10" height="10" fill="#F8CC46"/>
<rect x="319" y="47" width="10" height="10" fill="#F8CC46"/>
<rect x="319" y="67" width="10" height="10" fill="#F8CC46"/>
<rect x="79" y="177" width="10" height="10" fill="#F8CC46"/>
<rect x="189" y="177" width="10" height="10" fill="white"/>
<rect x="79" y="107" width="10" height="10" fill="#F8CC46"/>
<rect x="189" y="107" width="10" height="10" fill="white"/>
<rect x="319" y="87" width="10" height="10" fill="#F8CC46"/>
<rect x="319" y="107" width="10" height="10" fill="#F8CC46"/>
<rect x="79" y="147" width="10" height="10" fill="#F8CC46"/>
<rect x="189" y="147" width="10" height="10" fill="white"/>
<rect x="79" y="157" width="10" height="10" fill="#F8CC46"/>
<rect x="189" y="157" width="10" height="10" fill="white"/>
<rect x="319" y="127" width="10" height="10" fill="#F8CC46"/>
<rect x="319" y="147" width="10" height="10" fill="#F8CC46"/>
<rect x="319" y="167" width="10" height="10" fill="#F8CC46"/>
<rect x="319" y="187" width="10" height="10" fill="#F8CC46"/>
<rect x="299" y="107" width="10" height="10" fill="#F8CC46"/>
<rect x="299" y="127" width="10" height="10" fill="#F8CC46"/>
<rect x="299" y="147" width="10" height="10" fill="#F8CC46"/>
<rect x="299" y="167" width="10" height="10" fill="#F8CC46"/>
<rect x="299" y="187" width="10" height="10" fill="#F8CC46"/>
<rect x="319" y="207" width="10" height="10" fill="#F8CC46"/>
<rect x="319" y="227" width="10" height="10" fill="#F8CC46"/>
<rect x="319" y="247" width="10" height="10" fill="#F8CC46"/>
<rect x="79" y="167" width="10" height="10" fill="#F8CC46"/>
<rect x="189" y="167" width="10" height="10" fill="white"/>
<rect x="79" y="187" width="10" height="10" fill="#F8CC46"/>
<rect x="189" y="187" width="10" height="10" fill="white"/>
<rect x="79" y="117" width="10" height="10" fill="#F8CC46"/>
<rect x="189" y="117" width="10" height="10" fill="white"/>
<rect x="99" y="77" width="10" height="10" fill="#F8CC46"/>
<rect x="209" y="77" width="10" height="10" fill="#F8CC46"/>
<rect x="209" y="37" width="10" height="10" fill="#F8CC46"/>
<rect x="299" y="97" width="10" height="10" fill="#F8CC46"/>
<rect x="299" y="117" width="10" height="10" fill="#F8CC46"/>
<rect x="209" y="47" width="10" height="10" fill="#F8CC46"/>
<rect x="299" y="137" width="10" height="10" fill="#F8CC46"/>
<rect x="299" y="157" width="10" height="10" fill="#F8CC46"/>
<rect x="299" y="177" width="10" height="10" fill="#F8CC46"/>
<rect x="299" y="197" width="10" height="10" fill="#F8CC46"/>
<rect x="209" y="57" width="10" height="10" fill="#F8CC46"/>
<rect x="99" y="227" width="10" height="10" fill="#F8CC46"/>
<rect x="79" y="97" width="10" height="10" fill="#F8CC46"/>
<rect x="189" y="97" width="10" height="10" fill="#F8CC46"/>
<rect x="209" y="227" width="10" height="10" fill="#F8CC46"/>
<rect x="99" y="57" width="10" height="10" fill="#F8CC46"/>
<rect x="79" y="137" width="10" height="10" fill="#F8CC46"/>
<rect x="189" y="137" width="10" height="10" fill="white"/>
<rect x="319" y="57" width="10" height="10" fill="#F8CC46"/>
<rect x="319" y="77" width="10" height="10" fill="#F8CC46"/>
<rect x="319" y="97" width="10" height="10" fill="#F8CC46"/>
<rect x="69" y="197" width="10" height="10" fill="#F8CC46"/>
<rect x="179" y="197" width="10" height="10" fill="#F8CC46"/>
<rect x="69" y="127" width="10" height="10" fill="#F8CC46"/>
<rect x="179" y="127" width="10" height="10" fill="white"/>
<rect x="319" y="117" width="10" height="10" fill="#F8CC46"/>
<rect x="319" y="37" width="10" height="10" fill="#F8CC46"/>
<rect x="69" y="177" width="10" height="10" fill="#F8CC46"/>
<rect x="179" y="177" width="10" height="10" fill="white"/>
<rect x="69" y="107" width="10" height="10" fill="#F8CC46"/>
<rect x="179" y="107" width="10" height="10" fill="white"/>
<rect x="319" y="137" width="10" height="10" fill="#F8CC46"/>
<rect x="69" y="147" width="10" height="10" fill="#F8CC46"/>
<rect x="179" y="147" width="10" height="10" fill="white"/>
<rect x="69" y="157" width="10" height="10" fill="#F8CC46"/>
<rect x="179" y="157" width="10" height="10" fill="white"/>
<rect x="319" y="157" width="10" height="10" fill="#F8CC46"/>
<rect x="319" y="177" width="10" height="10" fill="#F8CC46"/>
<rect x="319" y="197" width="10" height="10" fill="#F8CC46"/>
<rect x="319" y="217" width="10" height="10" fill="#F8CC46"/>
<rect x="289" y="107" width="10" height="10" fill="#F8CC46"/>
<rect x="289" y="127" width="10" height="10" fill="#F8CC46"/>
<rect x="289" y="147" width="10" height="10" fill="#F8CC46"/>
<rect x="289" y="167" width="10" height="10" fill="#F8CC46"/>
<rect x="289" y="187" width="10" height="10" fill="#F8CC46"/>
<rect x="319" y="237" width="10" height="10" fill="#F8CC46"/>
<rect x="69" y="167" width="10" height="10" fill="#F8CC46"/>
<rect x="179" y="167" width="10" height="10" fill="white"/>
<rect x="99" y="207" width="10" height="10" fill="#F8CC46"/>
<rect x="69" y="187" width="10" height="10" fill="#F8CC46"/>
<rect x="179" y="187" width="10" height="10" fill="white"/>
<rect x="69" y="117" width="10" height="10" fill="#F8CC46"/>
<rect x="179" y="117" width="10" height="10" fill="white"/>
<rect x="209" y="207" width="10" height="10" fill="#F8CC46"/>
<rect x="209" y="247" width="10" height="10" fill="#F8CC46"/>
<rect x="89" y="87" width="10" height="10" fill="#F8CC46"/>
<rect x="289" y="97" width="10" height="10" fill="#F8CC46"/>
<rect x="289" y="117" width="10" height="10" fill="#F8CC46"/>
<rect x="199" y="87" width="10" height="10" fill="#F8CC46"/>
<rect x="289" y="137" width="10" height="10" fill="#F8CC46"/>
<rect x="289" y="157" width="10" height="10" fill="#F8CC46"/>
<rect x="289" y="177" width="10" height="10" fill="#F8CC46"/>
<rect x="289" y="197" width="10" height="10" fill="#F8CC46"/>
<rect x="69" y="97" width="10" height="10" fill="#F8CC46"/>
<rect x="179" y="97" width="10" height="10" fill="#F8CC46"/>
<rect x="69" y="137" width="10" height="10" fill="#F8CC46"/>
<rect x="179" y="137" width="10" height="10" fill="white"/>
<rect x="89" y="237" width="10" height="10" fill="#F8CC46"/>
<rect x="169" y="197" width="10" height="10" fill="#F8CC46"/>
<rect x="169" y="127" width="10" height="10" fill="#F8CC46"/>
<rect x="199" y="237" width="10" height="10" fill="#F8CC46"/>
<rect x="89" y="67" width="10" height="10" fill="#F8CC46"/>
<rect x="169" y="177" width="10" height="10" fill="#F8CC46"/>
<rect x="169" y="107" width="10" height="10" fill="#F8CC46"/>
<rect x="199" y="67" width="10" height="10" fill="#F8CC46"/>
<rect x="169" y="147" width="10" height="10" fill="#F8CC46"/>
<rect x="169" y="157" width="10" height="10" fill="#F8CC46"/>
<rect x="279" y="107" width="10" height="10" fill="#F8CC46"/>
<rect x="279" y="127" width="10" height="10" fill="#F8CC46"/>
<rect x="279" y="147" width="10" height="10" fill="white"/>
<rect x="279" y="167" width="10" height="10" fill="#F8CC46"/>
<rect x="279" y="187" width="10" height="10" fill="#F8CC46"/>
<rect x="89" y="217" width="10" height="10" fill="#F8CC46"/>
<rect x="199" y="217" width="10" height="10" fill="#F8CC46"/>
<rect x="169" y="167" width="10" height="10" fill="#F8CC46"/>
<rect x="169" y="187" width="10" height="10" fill="#F8CC46"/>
<rect x="169" y="117" width="10" height="10" fill="#F8CC46"/>
<rect x="89" y="47" width="10" height="10" fill="#F8CC46"/>
<rect x="199" y="47" width="10" height="10" fill="#F8CC46"/>
<rect x="309" y="47" width="10" height="10" fill="#F8CC46"/>
<rect x="279" y="97" width="10" height="10" fill="#F8CC46"/>
<rect x="279" y="117" width="10" height="10" fill="#F8CC46"/>
<rect x="309" y="67" width="10" height="10" fill="#F8CC46"/>
<rect x="279" y="137" width="10" height="10" fill="#F8CC46"/>
<rect x="279" y="157" width="10" height="10" fill="#F8CC46"/>
<rect x="279" y="177" width="10" height="10" fill="#F8CC46"/>
<rect x="279" y="197" width="10" height="10" fill="#F8CC46"/>
<rect x="309" y="87" width="10" height="10" fill="#F8CC46"/>
<rect x="309" y="107" width="10" height="10" fill="#F8CC46"/>
<rect x="169" y="97" width="10" height="10" fill="#F8CC46"/>
<rect x="309" y="127" width="10" height="10" fill="#F8CC46"/>
<rect x="169" y="137" width="10" height="10" fill="#F8CC46"/>
<rect x="309" y="147" width="10" height="10" fill="#F8CC46"/>
<rect x="159" y="157" width="10" height="10" fill="#F8CC46"/>
<rect x="309" y="167" width="10" height="10" fill="#F8CC46"/>
<rect x="159" y="197" width="10" height="10" fill="#F8CC46"/>
<rect x="159" y="127" width="10" height="10" fill="#F8CC46"/>
<rect x="309" y="187" width="10" height="10" fill="#F8CC46"/>
<rect x="309" y="207" width="10" height="10" fill="#F8CC46"/>
<rect x="159" y="177" width="10" height="10" fill="#F8CC46"/>
<rect x="159" y="107" width="10" height="10" fill="#F8CC46"/>
<rect x="309" y="227" width="10" height="10" fill="#F8CC46"/>
<rect x="159" y="147" width="10" height="10" fill="#F8CC46"/>
<rect x="309" y="247" width="10" height="10" fill="#F8CC46"/>
<rect x="89" y="77" width="10" height="10" fill="#F8CC46"/>
<rect x="269" y="107" width="10" height="10" fill="#F8CC46"/>
<rect x="269" y="127" width="10" height="10" fill="#F8CC46"/>
<rect x="269" y="147" width="10" height="10" fill="white"/>
<rect x="269" y="167" width="10" height="10" fill="#F8CC46"/>
<rect x="269" y="187" width="10" height="10" fill="#F8CC46"/>
<rect x="199" y="77" width="10" height="10" fill="#F8CC46"/>
<rect x="199" y="37" width="10" height="10" fill="#F8CC46"/>
<rect x="89" y="227" width="10" height="10" fill="#F8CC46"/>
<rect x="199" y="227" width="10" height="10" fill="#F8CC46"/>
<rect x="89" y="57" width="10" height="10" fill="#F8CC46"/>
<rect x="159" y="167" width="10" height="10" fill="#F8CC46"/>
<rect x="199" y="57" width="10" height="10" fill="#F8CC46"/>
<rect x="159" y="187" width="10" height="10" fill="#F8CC46"/>
<rect x="159" y="117" width="10" height="10" fill="#F8CC46"/>
<rect x="309" y="57" width="10" height="10" fill="#F8CC46"/>
<rect x="309" y="77" width="10" height="10" fill="#F8CC46"/>
<rect x="309" y="97" width="10" height="10" fill="#F8CC46"/>
<rect x="309" y="117" width="10" height="10" fill="#F8CC46"/>
<rect x="309" y="37" width="10" height="10" fill="#F8CC46"/>
<rect x="269" y="97" width="10" height="10" fill="#F8CC46"/>
<rect x="269" y="117" width="10" height="10" fill="#F8CC46"/>
<rect x="309" y="137" width="10" height="10" fill="#F8CC46"/>
<rect x="269" y="137" width="10" height="10" fill="#F8CC46"/>
<rect x="269" y="157" width="10" height="10" fill="#F8CC46"/>
<rect x="269" y="177" width="10" height="10" fill="#F8CC46"/>
<rect x="269" y="197" width="10" height="10" fill="#F8CC46"/>
<rect x="309" y="157" width="10" height="10" fill="#F8CC46"/>
<rect x="309" y="177" width="10" height="10" fill="#F8CC46"/>
<rect x="309" y="197" width="10" height="10" fill="#F8CC46"/>
<rect x="309" y="217" width="10" height="10" fill="#F8CC46"/>
<rect x="309" y="237" width="10" height="10" fill="#F8CC46"/>
<rect x="89" y="207" width="10" height="10" fill="#F8CC46"/>
<rect x="159" y="97" width="10" height="10" fill="#F8CC46"/>
<rect x="199" y="207" width="10" height="10" fill="#F8CC46"/>
<rect x="149" y="157" width="10" height="10" fill="#F8CC46"/>
<rect x="159" y="137" width="10" height="10" fill="#F8CC46"/>
<rect x="149" y="197" width="10" height="10" fill="#F8CC46"/>
<rect x="149" y="127" width="10" height="10" fill="#F8CC46"/>
<rect x="199" y="247" width="10" height="10" fill="#F8CC46"/>
<rect x="79" y="87" width="10" height="10" fill="#F8CC46"/>
<rect x="149" y="177" width="10" height="10" fill="#F8CC46"/>
<rect x="149" y="107" width="10" height="10" fill="#F8CC46"/>
<rect x="189" y="87" width="10" height="10" fill="#F8CC46"/>
<rect x="149" y="147" width="10" height="10" fill="#F8CC46"/>
<rect x="259" y="107" width="10" height="10" fill="#F8CC46"/>
<rect x="259" y="127" width="10" height="10" fill="#F8CC46"/>
<rect x="259" y="147" width="10" height="10" fill="white"/>
<rect x="259" y="167" width="10" height="10" fill="#F8CC46"/>
<rect x="259" y="187" width="10" height="10" fill="#F8CC46"/>
<rect x="189" y="237" width="10" height="10" fill="#F8CC46"/>
<rect x="79" y="67" width="10" height="10" fill="#F8CC46"/>
<rect x="189" y="67" width="10" height="10" fill="#F8CC46"/>
<rect x="79" y="217" width="10" height="10" fill="#F8CC46"/>
<rect x="189" y="217" width="10" height="10" fill="#F8CC46"/>
<rect x="149" y="167" width="10" height="10" fill="#F8CC46"/>
<rect x="149" y="187" width="10" height="10" fill="#F8CC46"/>
<rect x="149" y="117" width="10" height="10" fill="#F8CC46"/>
<rect x="189" y="47" width="10" height="10" fill="#F8CC46"/>
<rect x="299" y="47" width="10" height="10" fill="#F8CC46"/>
<rect x="299" y="67" width="10" height="10" fill="#F8CC46"/>
<rect x="299" y="87" width="10" height="10" fill="#F8CC46"/>
<rect x="259" y="97" width="10" height="10" fill="#F8CC46"/>
<rect x="259" y="117" width="10" height="10" fill="#F8CC46"/>
<rect x="259" y="137" width="10" height="10" fill="white"/>
<rect x="259" y="157" width="10" height="10" fill="white"/>
<rect x="259" y="177" width="10" height="10" fill="#F8CC46"/>
<rect x="259" y="197" width="10" height="10" fill="#F8CC46"/>
<rect x="299" y="207" width="10" height="10" fill="#F8CC46"/>
<rect x="299" y="227" width="10" height="10" fill="#F8CC46"/>
<rect x="299" y="247" width="10" height="10" fill="#F8CC46"/>
<rect x="79" y="77" width="10" height="10" fill="#F8CC46"/>
<rect x="189" y="77" width="10" height="10" fill="#F8CC46"/>
<rect x="149" y="97" width="10" height="10" fill="#F8CC46"/>
<rect x="149" y="137" width="10" height="10" fill="#F8CC46"/>
<rect x="139" y="157" width="10" height="10" fill="#F8CC46"/>
<rect x="139" y="197" width="10" height="10" fill="#F8CC46"/>
<rect x="139" y="127" width="10" height="10" fill="#F8CC46"/>
<rect x="189" y="37" width="10" height="10" fill="#F8CC46"/>
<rect x="79" y="227" width="10" height="10" fill="#F8CC46"/>
<rect x="139" y="177" width="10" height="10" fill="#F8CC46"/>
<rect x="139" y="107" width="10" height="10" fill="#F8CC46"/>
<rect x="189" y="227" width="10" height="10" fill="#F8CC46"/>
<rect x="139" y="147" width="10" height="10" fill="#F8CC46"/>
<rect x="79" y="57" width="10" height="10" fill="#F8CC46"/>
<rect x="189" y="57" width="10" height="10" fill="#F8CC46"/>
<rect x="299" y="57" width="10" height="10" fill="#F8CC46"/>
<rect x="299" y="77" width="10" height="10" fill="#F8CC46"/>
<rect x="249" y="107" width="10" height="10" fill="#F8CC46"/>
<rect x="249" y="127" width="10" height="10" fill="#F8CC46"/>
<rect x="249" y="147" width="10" height="10" fill="white"/>
<rect x="249" y="167" width="10" height="10" fill="#F8CC46"/>
<rect x="249" y="187" width="10" height="10" fill="#F8CC46"/>
<rect x="299" y="37" width="10" height="10" fill="#F8CC46"/>
<rect x="299" y="217" width="10" height="10" fill="#F8CC46"/>
<rect x="299" y="237" width="10" height="10" fill="#F8CC46"/>
<rect x="79" y="207" width="10" height="10" fill="#F8CC46"/>
<rect x="189" y="207" width="10" height="10" fill="#F8CC46"/>
<rect x="139" y="167" width="10" height="10" fill="#F8CC46"/>
<rect x="139" y="187" width="10" height="10" fill="#F8CC46"/>
<rect x="139" y="117" width="10" height="10" fill="#F8CC46"/>
<rect x="189" y="247" width="10" height="10" fill="#F8CC46"/>
<rect x="69" y="87" width="10" height="10" fill="#F8CC46"/>
<rect x="179" y="87" width="10" height="10" fill="#F8CC46"/>
<rect x="249" y="97" width="10" height="10" fill="#F8CC46"/>
<rect x="249" y="117" width="10" height="10" fill="#F8CC46"/>
<rect x="249" y="137" width="10" height="10" fill="white"/>
<rect x="249" y="157" width="10" height="10" fill="white"/>
<rect x="249" y="177" width="10" height="10" fill="#F8CC46"/>
<rect x="249" y="197" width="10" height="10" fill="#F8CC46"/>
<rect x="179" y="237" width="10" height="10" fill="#F8CC46"/>
<rect x="179" y="67" width="10" height="10" fill="#F8CC46"/>
<rect x="179" y="217" width="10" height="10" fill="#F8CC46"/>
<rect x="139" y="97" width="10" height="10" fill="#F8CC46"/>
<rect x="139" y="137" width="10" height="10" fill="#F8CC46"/>
<rect x="179" y="47" width="10" height="10" fill="#F8CC46"/>
<rect x="289" y="47" width="10" height="10" fill="#F8CC46"/>
<rect x="289" y="67" width="10" height="10" fill="#F8CC46"/>
<rect x="289" y="87" width="10" height="10" fill="#F8CC46"/>
<rect x="289" y="207" width="10" height="10" fill="#F8CC46"/>
<rect x="289" y="227" width="10" height="10" fill="#F8CC46"/>
<rect x="289" y="247" width="10" height="10" fill="#F8CC46"/>
<rect x="179" y="77" width="10" height="10" fill="#F8CC46"/>
<rect x="179" y="37" width="10" height="10" fill="#F8CC46"/>
<rect x="179" y="227" width="10" height="10" fill="#F8CC46"/>
<rect x="179" y="57" width="10" height="10" fill="#F8CC46"/>
<rect x="289" y="57" width="10" height="10" fill="#F8CC46"/>
<rect x="289" y="77" width="10" height="10" fill="#F8CC46"/>
<rect x="289" y="37" width="10" height="10" fill="#F8CC46"/>
<rect x="289" y="217" width="10" height="10" fill="#F8CC46"/>
<rect x="289" y="237" width="10" height="10" fill="#F8CC46"/>
<rect x="179" y="207" width="10" height="10" fill="#F8CC46"/>
<rect x="179" y="247" width="10" height="10" fill="#F8CC46"/>
<rect x="169" y="87" width="10" height="10" fill="#F8CC46"/>
<rect x="169" y="237" width="10" height="10" fill="#F8CC46"/>
<rect x="169" y="67" width="10" height="10" fill="#F8CC46"/>
<rect x="169" y="217" width="10" height="10" fill="#F8CC46"/>
<rect x="169" y="47" width="10" height="10" fill="#F8CC46"/>
<rect x="279" y="47" width="10" height="10" fill="#F8CC46"/>
<rect x="279" y="67" width="10" height="10" fill="#F8CC46"/>
<rect x="279" y="87" width="10" height="10" fill="#F8CC46"/>
<rect x="279" y="207" width="10" height="10" fill="#F8CC46"/>
<rect x="279" y="227" width="10" height="10" fill="#F8CC46"/>
<rect x="279" y="247" width="10" height="10" fill="#F8CC46"/>
<rect x="169" y="77" width="10" height="10" fill="#F8CC46"/>
<rect x="169" y="37" width="10" height="10" fill="#F8CC46"/>
<rect x="169" y="227" width="10" height="10" fill="#F8CC46"/>
<rect x="169" y="57" width="10" height="10" fill="#F8CC46"/>
<rect x="279" y="57" width="10" height="10" fill="#F8CC46"/>
<rect x="279" y="77" width="10" height="10" fill="#F8CC46"/>
<rect x="279" y="37" width="10" height="10" fill="#F8CC46"/>
<rect x="279" y="217" width="10" height="10" fill="#F8CC46"/>
<rect x="279" y="237" width="10" height="10" fill="#F8CC46"/>
<rect x="169" y="207" width="10" height="10" fill="#F8CC46"/>
<rect x="169" y="247" width="10" height="10" fill="#F8CC46"/>
<rect x="159" y="87" width="10" height="10" fill="#F8CC46"/>
<rect x="159" y="237" width="10" height="10" fill="#F8CC46"/>
<rect x="159" y="67" width="10" height="10" fill="#F8CC46"/>
<rect x="159" y="217" width="10" height="10" fill="#F8CC46"/>
<rect x="159" y="47" width="10" height="10" fill="#F8CC46"/>
<rect x="269" y="47" width="10" height="10" fill="#F8CC46"/>
<rect x="269" y="67" width="10" height="10" fill="#F8CC46"/>
<rect x="269" y="87" width="10" height="10" fill="#F8CC46"/>
<rect x="269" y="207" width="10" height="10" fill="#F8CC46"/>
<rect x="269" y="227" width="10" height="10" fill="#F8CC46"/>
<rect x="269" y="247" width="10" height="10" fill="#F8CC46"/>
<rect x="379" y="87" width="10" height="10" fill="#F8CC46"/>
<rect x="379" y="107" width="10" height="10" fill="#F8CC46"/>
<rect x="379" y="127" width="10" height="10" fill="#F8CC46"/>
<rect x="379" y="147" width="10" height="10" fill="#F8CC46"/>
<rect x="379" y="167" width="10" height="10" fill="#F8CC46"/>
<rect x="379" y="187" width="10" height="10" fill="#F8CC46"/>
<rect x="159" y="77" width="10" height="10" fill="#F8CC46"/>
<rect x="159" y="37" width="10" height="10" fill="#F8CC46"/>
<rect x="159" y="227" width="10" height="10" fill="#F8CC46"/>
<rect x="159" y="57" width="10" height="10" fill="#F8CC46"/>
<rect x="269" y="57" width="10" height="10" fill="#F8CC46"/>
<rect x="269" y="77" width="10" height="10" fill="#F8CC46"/>
<rect x="269" y="37" width="10" height="10" fill="#F8CC46"/>
<rect x="269" y="217" width="10" height="10" fill="#F8CC46"/>
<rect x="269" y="237" width="10" height="10" fill="#F8CC46"/>
<rect x="379" y="97" width="10" height="10" fill="#F8CC46"/>
<rect x="379" y="117" width="10" height="10" fill="#F8CC46"/>
<rect x="379" y="137" width="10" height="10" fill="#F8CC46"/>
<rect x="379" y="157" width="10" height="10" fill="#F8CC46"/>
<rect x="379" y="177" width="10" height="10" fill="#F8CC46"/>
<rect x="379" y="197" width="10" height="10" fill="#F8CC46"/>
<rect x="159" y="207" width="10" height="10" fill="#F8CC46"/>
<rect x="159" y="247" width="10" height="10" fill="#F8CC46"/>
<rect x="149" y="87" width="10" height="10" fill="#F8CC46"/>
<rect x="149" y="237" width="10" height="10" fill="#F8CC46"/>
<rect x="149" y="67" width="10" height="10" fill="#F8CC46"/>
<rect x="149" y="217" width="10" height="10" fill="#F8CC46"/>
<rect x="149" y="47" width="10" height="10" fill="#F8CC46"/>
<rect x="259" y="47" width="10" height="10" fill="#F8CC46"/>
<rect x="259" y="67" width="10" height="10" fill="#F8CC46"/>
<rect x="259" y="87" width="10" height="10" fill="#F8CC46"/>
<rect x="259" y="207" width="10" height="10" fill="#F8CC46"/>
<rect x="259" y="227" width="10" height="10" fill="#F8CC46"/>
<rect x="259" y="247" width="10" height="10" fill="#F8CC46"/>
<rect x="369" y="67" width="10" height="10" fill="#F8CC46"/>
<rect x="369" y="87" width="10" height="10" fill="#F8CC46"/>
<rect x="369" y="107" width="10" height="10" fill="#F8CC46"/>
<rect x="369" y="127" width="10" height="10" fill="#F8CC46"/>
<rect x="369" y="147" width="10" height="10" fill="#F8CC46"/>
<rect x="369" y="167" width="10" height="10" fill="#F8CC46"/>
<rect x="369" y="187" width="10" height="10" fill="#F8CC46"/>
<rect x="369" y="207" width="10" height="10" fill="#F8CC46"/>
<rect x="369" y="227" width="10" height="10" fill="#F8CC46"/>
<rect x="149" y="77" width="10" height="10" fill="#F8CC46"/>
<rect x="149" y="37" width="10" height="10" fill="#F8CC46"/>
<rect x="149" y="227" width="10" height="10" fill="#F8CC46"/>
<rect x="149" y="57" width="10" height="10" fill="#F8CC46"/>
<rect x="259" y="57" width="10" height="10" fill="#F8CC46"/>
<rect x="259" y="77" width="10" height="10" fill="#F8CC46"/>
<rect x="259" y="37" width="10" height="10" fill="#F8CC46"/>
<rect x="259" y="217" width="10" height="10" fill="#F8CC46"/>
<rect x="259" y="237" width="10" height="10" fill="#F8CC46"/>
<rect x="369" y="57" width="10" height="10" fill="#F8CC46"/>
<rect x="369" y="77" width="10" height="10" fill="#F8CC46"/>
<rect x="369" y="97" width="10" height="10" fill="#F8CC46"/>
<rect x="369" y="117" width="10" height="10" fill="#F8CC46"/>
<rect x="369" y="137" width="10" height="10" fill="#F8CC46"/>
<rect x="369" y="157" width="10" height="10" fill="#F8CC46"/>
<rect x="369" y="177" width="10" height="10" fill="#F8CC46"/>
<rect x="369" y="197" width="10" height="10" fill="#F8CC46"/>
<rect x="369" y="217" width="10" height="10" fill="#F8CC46"/>
<rect x="149" y="207" width="10" height="10" fill="#F8CC46"/>
<rect x="149" y="247" width="10" height="10" fill="#F8CC46"/>
<rect x="139" y="87" width="10" height="10" fill="#F8CC46"/>
<rect x="139" y="237" width="10" height="10" fill="#F8CC46"/>
<rect x="139" y="67" width="10" height="10" fill="#F8CC46"/>
<rect x="139" y="217" width="10" height="10" fill="#F8CC46"/>
<rect x="139" y="47" width="10" height="10" fill="#F8CC46"/>
<rect x="249" y="47" width="10" height="10" fill="#F8CC46"/>
<rect x="249" y="67" width="10" height="10" fill="#F8CC46"/>
<rect x="249" y="87" width="10" height="10" fill="#F8CC46"/>
<rect x="249" y="207" width="10" height="10" fill="#F8CC46"/>
<rect x="249" y="227" width="10" height="10" fill="#F8CC46"/>
<rect x="249" y="247" width="10" height="10" fill="#F8CC46"/>
<rect x="359" y="47" width="10" height="10" fill="#F8CC46"/>
<rect x="359" y="67" width="10" height="10" fill="#F8CC46"/>
<rect x="359" y="87" width="10" height="10" fill="#F8CC46"/>
<rect x="359" y="107" width="10" height="10" fill="#F8CC46"/>
<rect x="359" y="127" width="10" height="10" fill="#F8CC46"/>
<rect x="359" y="147" width="10" height="10" fill="#F8CC46"/>
<rect x="359" y="167" width="10" height="10" fill="#F8CC46"/>
<rect x="359" y="187" width="10" height="10" fill="#F8CC46"/>
<rect x="359" y="207" width="10" height="10" fill="#F8CC46"/>
<rect x="359" y="227" width="10" height="10" fill="#F8CC46"/>
<rect x="139" y="77" width="10" height="10" fill="#F8CC46"/>
<rect x="139" y="37" width="10" height="10" fill="#F8CC46"/>
<rect x="139" y="227" width="10" height="10" fill="#F8CC46"/>
<rect x="139" y="57" width="10" height="10" fill="#F8CC46"/>
<rect x="249" y="57" width="10" height="10" fill="#F8CC46"/>
<rect x="249" y="77" width="10" height="10" fill="#F8CC46"/>
<rect x="249" y="37" width="10" height="10" fill="#F8CC46"/>
<rect x="249" y="217" width="10" height="10" fill="#F8CC46"/>
<rect x="249" y="237" width="10" height="10" fill="#F8CC46"/>
<rect x="359" y="57" width="10" height="10" fill="#F8CC46"/>
<rect x="359" y="77" width="10" height="10" fill="#F8CC46"/>
<rect x="359" y="97" width="10" height="10" fill="#F8CC46"/>
<rect x="359" y="117" width="10" height="10" fill="#F8CC46"/>
<rect x="359" y="137" width="10" height="10" fill="#F8CC46"/>
<rect x="359" y="157" width="10" height="10" fill="#F8CC46"/>
<rect x="359" y="177" width="10" height="10" fill="#F8CC46"/>
<rect x="359" y="197" width="10" height="10" fill="#F8CC46"/>
<rect x="359" y="217" width="10" height="10" fill="#F8CC46"/>
<rect x="359" y="237" width="10" height="10" fill="#F8CC46"/>
<rect x="139" y="207" width="10" height="10" fill="#F8CC46"/>
<rect x="139" y="247" width="10" height="10" fill="#F8CC46"/>
</g>
</svg>
